<?xml version="1.0" encoding="UTF-8" standalone="no"?>
<!-- Created with Inkscape (http://www.inkscape.org/) -->

<svg
   version="1.1"
   id="svg2"
   width="473.18668"
   height="38.439999"
   viewBox="0 0 473.18668 38.439999"
   sodipodi:docname="RSA Conference 2024 logo (no venue) horizontal - vector.eps"
   xmlns:inkscape="http://www.inkscape.org/namespaces/inkscape"
   xmlns:sodipodi="http://sodipodi.sourceforge.net/DTD/sodipodi-0.dtd"
   xmlns="http://www.w3.org/2000/svg"
   xmlns:svg="http://www.w3.org/2000/svg">
  <defs
     id="defs6" />
  <sodipodi:namedview
     id="namedview4"
     pagecolor="#ffffff"
     bordercolor="#000000"
     borderopacity="0.25"
     inkscape:showpageshadow="2"
     inkscape:pageopacity="0.0"
     inkscape:pagecheckerboard="0"
     inkscape:deskcolor="#d1d1d1" />
  <g
     id="g8"
     inkscape:groupmode="layer"
     inkscape:label="ink_ext_XXXXXX"
     transform="matrix(1.3333333,0,0,-1.3333333,0,38.44)">
    <g
       id="g10"
       transform="scale(0.1)">
      <path
         d="m 2760.01,18.6172 c 0,92.3278 141.72,102.9648 141.72,183.5118 0,31.918 -23.56,56.992 -61.93,56.992 -42.55,0 -64.59,-37.992 -64.59,-37.992 l -12.16,8.359 c 0,0 23.93,45.59 77.13,45.59 52.43,0 78.65,-34.949 78.65,-72.949 0,-90.805 -141.34,-102.2032 -141.34,-182.3712 h 145.52 V 4.5625 h -161.86 c -0.76,4.94141 -1.14,9.4961 -1.14,14.0547"
         style="fill:#231f20;fill-opacity:1;fill-rule:nonzero;stroke:none"
         id="path12" />
      <path
         d="m 3123.27,137.539 c 0,68.395 -15.96,121.582 -72.57,121.582 -56.61,0 -72.56,-53.187 -72.56,-121.582 0,-68.7695 15.95,-121.582 72.56,-121.582 56.61,0 72.57,52.8125 72.57,121.582 z m -162.23,0 c 0,76.746 22.04,137.539 89.66,137.539 67.63,0 89.67,-60.793 89.67,-137.539 C 3140.37,60.4102 3118.33,0 3050.7,0 c -67.62,0 -89.66,60.4102 -89.66,137.539"
         style="fill:#231f20;fill-opacity:1;fill-rule:nonzero;stroke:none"
         id="path14" />
      <path
         d="m 3170.03,18.6172 c 0,92.3278 141.72,102.9648 141.72,183.5118 0,31.918 -23.56,56.992 -61.94,56.992 -42.54,0 -64.59,-37.992 -64.59,-37.992 l -12.15,8.359 c 0,0 23.93,45.59 77.13,45.59 52.43,0 78.65,-34.949 78.65,-72.949 0,-90.805 -141.34,-102.2032 -141.34,-182.3712 h 145.52 V 4.5625 h -161.86 c -0.76,4.94141 -1.14,9.4961 -1.14,14.0547"
         style="fill:#231f20;fill-opacity:1;fill-rule:nonzero;stroke:none"
         id="path16" />
      <path
         d="M 3493.01,95.7461 V 220.371 c 0,10.637 1.14,23.938 1.14,23.938 h -0.76 c 0,0 -6.47,-9.504 -13.3,-18.239 L 3379.02,96.5078 v -0.7617 z m -136.78,-3.7969 137.92,178.5738 h 15.2 V 95.7461 h 39.51 V 80.5469 h -39.51 V 4.5625 h -16.34 v 75.9844 h -136.78 v 11.4023"
         style="fill:#231f20;fill-opacity:1;fill-rule:nonzero;stroke:none"
         id="path18" />
      <path
         d="M 164.195,11.1094 79.7344,168.648 93.3828,168.57 h 22.3122 c 34.477,0 46.711,21.09 46.711,39.149 0,12.164 -4.777,22.011 -13.453,27.734 -8.074,5.492 -16.707,7.641 -30.777,7.641 H 51.5742 V 11.1094 H 0 V 286.098 h 118.598 c 26.476,0 46.218,-5.848 62.125,-18.407 19.578,-15.101 30.789,-36.957 30.789,-59.972 0,-34.078 -19.953,-62.203 -53.387,-75.235 l -2.168,-0.847 69.227,-120.5276 z m 519.254,0 L 607.137,218.902 530.773,11.1094 H 476.125 L 586.168,286.098 H 628.09 L 738.125,11.1094 Z M 357.559,8.83594 C 312.633,8.83594 274,21.4961 242.746,46.4766 l -2.949,2.3476 34.094,35.3477 2.382,-1.7578 c 22.954,-16.5743 52.731,-26.0782 81.711,-26.0782 33.403,0 54.989,13.3086 54.989,33.9024 0,18.7817 -12.274,30.1057 -35.485,32.7457 -7.758,0.875 -14.617,1.758 -21.851,2.715 l -17.11,2.188 c -50.16,6.285 -81.308,36.453 -81.308,78.726 0,49.649 39.07,81.727 99.535,81.727 33.422,0 66.215,-9.527 97.461,-28.32 l 3.207,-1.961 -28.91,-38.965 -2.625,1.511 c -22.957,13.243 -47.586,20.247 -71.223,20.247 -22.184,0 -45.891,-9.196 -45.891,-35.004 0,-16 14.559,-27.543 38.938,-30.875 10.566,-1.528 21.684,-2.922 33.023,-4.153 61.871,-6.754 83.825,-47.632 83.825,-80.5817 0,-50.2149 -41,-81.40236 -107,-81.40236"
         style="fill:#231f20;fill-opacity:1;fill-rule:nonzero;stroke:none"
         id="path20" />
      <path
         d="m 867.066,286.648 c 64.688,0 97.418,-34.293 97.418,-34.293 l -10.132,-12.468 c 0,0 -32.34,30.781 -86.899,30.781 -67.019,0 -118.066,-52.605 -118.066,-123.133 0,-70.9217 50.66,-127.035 119.238,-127.035 58.449,0 92.355,37.0195 92.355,37.0195 L 971.5,45.8281 c 0,0 -36.629,-41.30466 -102.875,-41.30466 -79.496,0 -136.773,63.90626 -136.773,143.01156 0,79.102 58.449,139.113 135.214,139.113"
         style="fill:#231f20;fill-opacity:1;fill-rule:nonzero;stroke:none"
         id="path22" />
      <path
         d="m 1101.26,20.5 c 46.37,0 83.78,37.7969 83.78,87.285 0,48.32 -37.41,84.949 -83.78,84.949 -46.37,0 -83.78,-36.629 -83.78,-84.949 0,-49.4881 37.41,-87.285 83.78,-87.285 z m 0,188.211 c 55.72,0 100.92,-44.031 100.92,-100.926 0,-58.0584 -45.2,-103.26156 -100.92,-103.26156 -55.72,0 -100.93,45.20316 -100.93,103.26156 0,56.895 45.21,100.926 100.93,100.926"
         style="fill:#231f20;fill-opacity:1;fill-rule:nonzero;stroke:none"
         id="path24" />
      <path
         d="m 1249.65,204.035 h 16.37 v -34.293 c 0,-8.961 -1.56,-15.972 -1.56,-15.972 h 0.78 c 6.62,18.312 33.9,54.941 82.6,54.941 50.66,0 64.3,-30.004 64.3,-75.984 V 9.19922 h -16.36 V 126.879 c 0,33.902 -4.29,65.855 -47.94,65.855 -36.62,0 -68.97,-25.714 -78.71,-61.957 -2.34,-8.183 -3.11,-17.144 -3.11,-26.496 V 9.19922 h -16.37 V 204.035"
         style="fill:#231f20;fill-opacity:1;fill-rule:nonzero;stroke:none"
         id="path26" />
      <path
         d="m 1481.4,188.059 h -24.54 v 14.808 h 24.54 v 8.965 c 0,64.293 42.09,72.086 61.57,72.086 6.23,0 10.13,-0.777 10.13,-0.777 v -15.2 c 0,0 -3.51,0.778 -8.96,0.778 -15.59,0 -46.37,-6.235 -46.37,-56.5 v -9.352 h 53.38 v -14.808 h -53.38 V 9.19922 H 1481.4 V 188.059"
         style="fill:#231f20;fill-opacity:1;fill-rule:nonzero;stroke:none"
         id="path28" />
      <path
         d="m 1729.91,124.543 c -1.95,47.539 -30.4,68.969 -62.74,68.969 -35.85,0 -68.97,-23.379 -75.98,-68.969 z m -62.35,84.168 c 53,0 79.49,-41.691 79.49,-88.844 0,-4.289 -0.78,-10.519 -0.78,-10.519 h -156.25 c 0,-56.5042 38.19,-88.848 83.39,-88.848 37.4,0 60.39,24.5508 60.39,24.5508 l 8.97,-13.6406 c 0,0 -27.28,-26.88676 -69.36,-26.88676 -54.94,0 -100.54,39.74606 -100.54,101.70356 0,65.855 44.82,102.484 94.69,102.484"
         style="fill:#231f20;fill-opacity:1;fill-rule:nonzero;stroke:none"
         id="path30" />
      <path
         d="m 1798.39,204.035 h 16.36 V 167.02 c 0,-8.965 -1.56,-15.981 -1.56,-15.981 h 0.78 c 9.74,30.004 31.57,54.555 62.35,54.555 5.85,0 11.3,-1.168 11.3,-1.168 v -16.367 c 0,0 -4.68,0.781 -8.96,0.781 -30.4,0 -49.49,-25.723 -58.06,-54.555 -4.29,-13.64 -5.85,-28.058 -5.85,-40.9178 V 9.19922 h -16.36 V 204.035"
         style="fill:#231f20;fill-opacity:1;fill-rule:nonzero;stroke:none"
         id="path32" />
      <path
         d="m 2062.12,124.543 c -1.94,47.539 -30.39,68.969 -62.73,68.969 -35.85,0 -68.98,-23.379 -75.99,-68.969 z m -62.34,84.168 c 52.99,0 79.49,-41.691 79.49,-88.844 0,-4.289 -0.78,-10.519 -0.78,-10.519 h -156.26 c 0,-56.5042 38.19,-88.848 83.39,-88.848 37.41,0 60.4,24.5508 60.4,24.5508 l 8.96,-13.6406 c 0,0 -27.27,-26.88676 -69.36,-26.88676 -54.94,0 -100.54,39.74606 -100.54,101.70356 0,65.855 44.82,102.484 94.7,102.484"
         style="fill:#231f20;fill-opacity:1;fill-rule:nonzero;stroke:none"
         id="path34" />
      <path
         d="m 2127.51,204.035 h 16.37 v -34.293 c 0,-8.961 -1.56,-15.972 -1.56,-15.972 h 0.78 c 6.62,18.312 33.9,54.941 82.61,54.941 50.66,0 64.29,-30.004 64.29,-75.984 V 9.19922 h -16.36 V 126.879 c 0,33.902 -4.29,65.855 -47.93,65.855 -36.63,0 -68.97,-25.714 -78.71,-61.957 -2.34,-8.183 -3.12,-17.144 -3.12,-26.496 V 9.19922 h -16.37 V 204.035"
         style="fill:#231f20;fill-opacity:1;fill-rule:nonzero;stroke:none"
         id="path36" />
      <path
         d="m 2429.88,208.711 c 46.37,0 69.75,-27.668 69.75,-27.668 l -10.13,-13.246 c 0,0 -22.21,24.937 -59.62,24.937 -45.59,0 -83.39,-33.898 -83.39,-86.507 0,-51.8286 37.8,-85.727 83.39,-85.727 42.87,0 65.08,28.0586 65.08,28.0586 l 8.57,-13.6406 c 0,0 -25.33,-30.39456 -73.65,-30.39456 -54.94,0 -100.54,39.74606 -100.54,101.70356 0,61.957 46.38,102.484 100.54,102.484"
         style="fill:#231f20;fill-opacity:1;fill-rule:nonzero;stroke:none"
         id="path38" />
      <path
         d="m 2687.05,124.543 c -1.95,47.539 -30.4,68.969 -62.74,68.969 -35.85,0 -68.97,-23.379 -75.98,-68.969 z m -62.35,84.168 c 53,0 79.49,-41.691 79.49,-88.844 0,-4.289 -0.78,-10.519 -0.78,-10.519 h -156.25 c 0,-56.5042 38.19,-88.848 83.39,-88.848 37.41,0 60.39,24.5508 60.39,24.5508 l 8.97,-13.6406 c 0,0 -27.28,-26.88676 -69.36,-26.88676 -54.94,0 -100.54,39.74606 -100.54,101.70356 0,65.855 44.82,102.484 94.69,102.484"
         style="fill:#231f20;fill-opacity:1;fill-rule:nonzero;stroke:none"
         id="path40" />
      <path
         d="m 2697.28,255.543 c 0,-0.367 -0.02,-0.68 -0.06,-0.953 -0.04,-0.262 -0.11,-0.481 -0.19,-0.637 -0.08,-0.168 -0.19,-0.285 -0.31,-0.367 -0.13,-0.074 -0.28,-0.117 -0.42,-0.117 h -10.45 v -32.207 c 0,-0.145 -0.04,-0.282 -0.11,-0.399 -0.08,-0.113 -0.21,-0.207 -0.42,-0.269 -0.18,-0.074 -0.44,-0.129 -0.75,-0.18 -0.31,-0.043 -0.71,-0.062 -1.19,-0.062 -0.46,0 -0.84,0.019 -1.18,0.062 -0.31,0.051 -0.58,0.106 -0.77,0.18 -0.19,0.062 -0.32,0.156 -0.4,0.269 -0.08,0.117 -0.12,0.254 -0.12,0.399 v 32.207 h -10.45 c -0.15,0 -0.3,0.043 -0.4,0.117 -0.13,0.082 -0.23,0.199 -0.32,0.367 -0.08,0.156 -0.12,0.375 -0.18,0.637 -0.05,0.273 -0.07,0.586 -0.07,0.953 0,0.355 0.02,0.68 0.07,0.965 0.06,0.269 0.1,0.5 0.18,0.668 0.09,0.168 0.19,0.293 0.32,0.379 0.1,0.074 0.25,0.113 0.4,0.113 h 25.84 c 0.14,0 0.29,-0.039 0.42,-0.113 0.12,-0.086 0.23,-0.211 0.31,-0.379 0.08,-0.168 0.15,-0.399 0.19,-0.668 0.04,-0.285 0.06,-0.61 0.06,-0.965"
         style="fill:#231f20;fill-opacity:1;fill-rule:nonzero;stroke:none"
         id="path42" />
      <path
         d="m 2743.04,221.262 c 0,-0.145 -0.04,-0.282 -0.13,-0.399 -0.08,-0.113 -0.21,-0.207 -0.42,-0.269 -0.18,-0.074 -0.44,-0.129 -0.75,-0.18 -0.29,-0.043 -0.69,-0.062 -1.19,-0.062 -0.46,0 -0.84,0.019 -1.18,0.062 -0.31,0.051 -0.56,0.106 -0.75,0.18 -0.19,0.062 -0.33,0.156 -0.4,0.269 -0.08,0.117 -0.12,0.254 -0.12,0.399 v 32.355 h -0.07 l -13.08,-32.492 c -0.07,-0.137 -0.15,-0.25 -0.26,-0.344 -0.1,-0.093 -0.25,-0.179 -0.44,-0.254 -0.2,-0.062 -0.44,-0.113 -0.73,-0.132 -0.27,-0.032 -0.61,-0.043 -0.98,-0.043 -0.4,0 -0.76,0.011 -1.03,0.05 -0.29,0.043 -0.54,0.094 -0.73,0.157 -0.19,0.066 -0.34,0.148 -0.44,0.242 -0.11,0.105 -0.17,0.211 -0.21,0.324 l -12.52,32.492 h -0.02 v -32.355 c 0,-0.145 -0.05,-0.282 -0.13,-0.399 -0.08,-0.113 -0.21,-0.207 -0.42,-0.269 -0.19,-0.074 -0.44,-0.129 -0.75,-0.18 -0.32,-0.043 -0.74,-0.062 -1.22,-0.062 -0.48,0 -0.88,0.019 -1.19,0.062 -0.32,0.051 -0.57,0.106 -0.76,0.18 -0.18,0.062 -0.31,0.156 -0.37,0.269 -0.07,0.117 -0.11,0.254 -0.11,0.399 v 34.168 c 0,0.804 0.21,1.371 0.65,1.715 0.42,0.347 0.9,0.523 1.43,0.523 h 3.03 c 0.61,0 1.15,-0.063 1.64,-0.176 0.46,-0.117 0.85,-0.293 1.21,-0.547 0.36,-0.25 0.65,-0.562 0.88,-0.941 0.23,-0.387 0.44,-0.836 0.61,-1.352 l 10.61,-26.898 h 0.15 l 11.06,26.816 c 0.21,0.567 0.44,1.059 0.69,1.453 0.25,0.411 0.54,0.723 0.84,0.965 0.29,0.242 0.63,0.41 1,0.524 0.38,0.105 0.8,0.156 1.28,0.156 h 3.18 c 0.3,0 0.57,-0.039 0.84,-0.137 0.25,-0.082 0.48,-0.218 0.67,-0.394 0.19,-0.18 0.34,-0.41 0.44,-0.692 0.13,-0.273 0.19,-0.621 0.19,-1.015 v -34.168"
         style="fill:#231f20;fill-opacity:1;fill-rule:nonzero;stroke:none"
         id="path44" />
    </g>
  </g>
</svg>
