<?xml version="1.0" standalone="no"?>
<svg xmlns="http://www.w3.org/2000/svg" width="1000" height="1300" viewBox="0 0 1000 1300"><defs><clipPath id="clip-path-dot-color"><path d="M 278 585v 12h 6a 6 6, 0, 0, 0, 0 -12" transform="rotate(180,284,591)"/><circle cx="284" cy="639" r="6" transform="rotate(0,284,639)"/><path d="M 278 681v 12h 12a 12 12, 0, 0, 0, -12 -12" transform="rotate(-90,284,687)"/><rect x="278" y="693" width="12" height="12" transform="rotate(0,284,699)"/><rect x="278" y="705" width="12" height="12" transform="rotate(0,284,711)"/><path d="M 278 717v 12h 12a 12 12, 0, 0, 0, -12 -12" transform="rotate(180,284,723)"/><path d="M 278 741v 12h 6a 6 6, 0, 0, 0, 0 -12" transform="rotate(-90,284,747)"/><path d="M 278 753v 12h 12a 12 12, 0, 0, 0, -12 -12" transform="rotate(180,284,759)"/><path d="M 278 777v 12h 6a 6 6, 0, 0, 0, 0 -12" transform="rotate(-90,284,783)"/><path d="M 278 789v 12h 12a 12 12, 0, 0, 0, -12 -12" transform="rotate(180,284,795)"/><path d="M 290 561v 12h 6a 6 6, 0, 0, 0, 0 -12" transform="rotate(180,296,567)"/><rect x="290" y="585" width="12" height="12" transform="rotate(0,296,591)"/><circle cx="296" cy="615" r="6" transform="rotate(0,296,615)"/><path d="M 290 657v 12h 12a 12 12, 0, 0, 0, -12 -12" transform="rotate(-90,296,663)"/><rect x="290" y="669" width="12" height="12" transform="rotate(0,296,675)"/><rect x="290" y="681" width="12" height="12" transform="rotate(0,296,687)"/><rect x="290" y="693" width="12" height="12" transform="rotate(0,296,699)"/><rect x="290" y="705" width="12" height="12" transform="rotate(0,296,711)"/><rect x="290" y="717" width="12" height="12" transform="rotate(0,296,723)"/><path d="M 290 753v 12h 6a 6 6, 0, 0, 0, 0 -12" transform="rotate(0,296,759)"/><path d="M 290 789v 12h 6a 6 6, 0, 0, 0, 0 -12" transform="rotate(0,296,795)"/><path d="M 302 549v 12h 6a 6 6, 0, 0, 0, 0 -12" transform="rotate(-90,308,555)"/><rect x="302" y="561" width="12" height="12" transform="rotate(0,308,567)"/><rect x="302" y="573" width="12" height="12" transform="rotate(0,308,579)"/><rect x="302" y="585" width="12" height="12" transform="rotate(0,308,591)"/><path d="M 302 597v 12h 12a 12 12, 0, 0, 0, -12 -12" transform="rotate(180,308,603)"/><path d="M 302 621v 12h 12a 12 12, 0, 0, 0, -12 -12" transform="rotate(-90,308,627)"/><rect x="302" y="633" width="12" height="12" transform="rotate(0,308,639)"/><rect x="302" y="645" width="12" height="12" transform="rotate(0,308,651)"/><path d="M 302 657v 12h 12a 12 12, 0, 0, 0, -12 -12" transform="rotate(90,308,663)"/><path d="M 302 681v 12h 6a 6 6, 0, 0, 0, 0 -12" transform="rotate(0,308,687)"/><path d="M 302 705v 12h 12a 12 12, 0, 0, 0, -12 -12" transform="rotate(0,308,711)"/><rect x="302" y="717" width="12" height="12" transform="rotate(0,308,723)"/><path d="M 302 729v 12h 12a 12 12, 0, 0, 0, -12 -12" transform="rotate(180,308,735)"/><path d="M 302 777v 12h 6a 6 6, 0, 0, 0, 0 -12" transform="rotate(180,308,783)"/><path d="M 314 597v 12h 12a 12 12, 0, 0, 0, -12 -12" transform="rotate(0,320,603)"/><rect x="314" y="609" width="12" height="12" transform="rotate(0,320,615)"/><rect x="314" y="621" width="12" height="12" transform="rotate(0,320,627)"/><rect x="314" y="633" width="12" height="12" transform="rotate(0,320,639)"/><path d="M 314 645v 12h 12a 12 12, 0, 0, 0, -12 -12" transform="rotate(90,320,651)"/><circle cx="320" cy="675" r="6" transform="rotate(0,320,675)"/><circle cx="320" cy="699" r="6" transform="rotate(0,320,699)"/><rect x="314" y="729" width="12" height="12" transform="rotate(0,320,735)"/><rect x="314" y="741" width="12" height="12" transform="rotate(0,320,747)"/><rect x="314" y="753" width="12" height="12" transform="rotate(0,320,759)"/><rect x="314" y="765" width="12" height="12" transform="rotate(0,320,771)"/><rect x="314" y="777" width="12" height="12" transform="rotate(0,320,783)"/><path d="M 314 789v 12h 6a 6 6, 0, 0, 0, 0 -12" transform="rotate(90,320,795)"/><path d="M 326 549v 12h 6a 6 6, 0, 0, 0, 0 -12" transform="rotate(180,332,555)"/><rect x="326" y="633" width="12" height="12" transform="rotate(0,332,639)"/><path d="M 326 681v 12h 6a 6 6, 0, 0, 0, 0 -12" transform="rotate(180,332,687)"/><path d="M 326 729v 12h 6a 6 6, 0, 0, 0, 0 -12" transform="rotate(0,332,735)"/><rect x="326" y="753" width="12" height="12" transform="rotate(0,332,759)"/><rect x="326" y="765" width="12" height="12" transform="rotate(0,332,771)"/><path d="M 326 777v 12h 12a 12 12, 0, 0, 0, -12 -12" transform="rotate(90,332,783)"/><rect x="338" y="549" width="12" height="12" transform="rotate(0,344,555)"/><circle cx="344" cy="591" r="6" transform="rotate(0,344,591)"/><path d="M 338 633v 12h 12a 12 12, 0, 0, 0, -12 -12" transform="rotate(0,344,639)"/><path d="M 338 645v 12h 12a 12 12, 0, 0, 0, -12 -12" transform="rotate(180,344,651)"/><path d="M 338 669v 12h 12a 12 12, 0, 0, 0, -12 -12" transform="rotate(-90,344,675)"/><path d="M 338 681v 12h 12a 12 12, 0, 0, 0, -12 -12" transform="rotate(90,344,687)"/><path d="M 338 717v 12h 6a 6 6, 0, 0, 0, 0 -12" transform="rotate(180,344,723)"/><path d="M 338 753v 12h 12a 12 12, 0, 0, 0, -12 -12" transform="rotate(0,344,759)"/><rect x="338" y="765" width="12" height="12" transform="rotate(0,344,771)"/><path d="M 338 789v 12h 6a 6 6, 0, 0, 0, 0 -12" transform="rotate(180,344,795)"/><path d="M 350 549v 12h 6a 6 6, 0, 0, 0, 0 -12" transform="rotate(0,356,555)"/><circle cx="356" cy="579" r="6" transform="rotate(0,356,579)"/><circle cx="356" cy="603" r="6" transform="rotate(0,356,603)"/><circle cx="356" cy="627" r="6" transform="rotate(0,356,627)"/><rect x="350" y="645" width="12" height="12" transform="rotate(0,356,651)"/><path d="M 350 669v 12h 6a 6 6, 0, 0, 0, 0 -12" transform="rotate(0,356,675)"/><path d="M 350 693v 12h 6a 6 6, 0, 0, 0, 0 -12" transform="rotate(180,356,699)"/><path d="M 350 717v 12h 6a 6 6, 0, 0, 0, 0 -12" transform="rotate(0,356,723)"/><path d="M 350 741v 12h 6a 6 6, 0, 0, 0, 0 -12" transform="rotate(180,356,747)"/><rect x="350" y="765" width="12" height="12" transform="rotate(0,356,771)"/><path d="M 350 789v 12h 6a 6 6, 0, 0, 0, 0 -12" transform="rotate(0,356,795)"/><path d="M 362 645v 12h 12a 12 12, 0, 0, 0, -12 -12" transform="rotate(0,368,651)"/><path d="M 362 657v 12h 6a 6 6, 0, 0, 0, 0 -12" transform="rotate(90,368,663)"/><path d="M 362 681v 12h 6a 6 6, 0, 0, 0, 0 -12" transform="rotate(-90,368,687)"/><rect x="362" y="693" width="12" height="12" transform="rotate(0,368,699)"/><path d="M 362 705v 12h 6a 6 6, 0, 0, 0, 0 -12" transform="rotate(90,368,711)"/><rect x="362" y="741" width="12" height="12" transform="rotate(0,368,747)"/><rect x="362" y="765" width="12" height="12" transform="rotate(0,368,771)"/><path d="M 374 465v 12h 6a 6 6, 0, 0, 0, 0 -12" transform="rotate(180,380,471)"/><circle cx="380" cy="507" r="6" transform="rotate(0,380,507)"/><circle cx="380" cy="531" r="6" transform="rotate(0,380,531)"/><circle cx="380" cy="555" r="6" transform="rotate(0,380,555)"/><path d="M 374 597v 12h 6a 6 6, 0, 0, 0, 0 -12" transform="rotate(-90,380,603)"/><rect x="374" y="609" width="12" height="12" transform="rotate(0,380,615)"/><rect x="374" y="621" width="12" height="12" transform="rotate(0,380,627)"/><path d="M 374 633v 12h 12a 12 12, 0, 0, 0, -12 -12" transform="rotate(180,380,639)"/><rect x="374" y="693" width="12" height="12" transform="rotate(0,380,699)"/><path d="M 374 717v 12h 12a 12 12, 0, 0, 0, -12 -12" transform="rotate(-90,380,723)"/><rect x="374" y="729" width="12" height="12" transform="rotate(0,380,735)"/><rect x="374" y="741" width="12" height="12" transform="rotate(0,380,747)"/><rect x="374" y="753" width="12" height="12" transform="rotate(0,380,759)"/><rect x="374" y="765" width="12" height="12" transform="rotate(0,380,771)"/><path d="M 374 777v 12h 6a 6 6, 0, 0, 0, 0 -12" transform="rotate(90,380,783)"/><circle cx="380" cy="807" r="6" transform="rotate(0,380,807)"/><path d="M 374 825v 12h 6a 6 6, 0, 0, 0, 0 -12" transform="rotate(-90,380,831)"/><path d="M 374 837v 12h 12a 12 12, 0, 0, 0, -12 -12" transform="rotate(180,380,843)"/><path d="M 374 861v 12h 6a 6 6, 0, 0, 0, 0 -12" transform="rotate(180,380,867)"/><path d="M 386 453v 12h 12a 12 12, 0, 0, 0, -12 -12" transform="rotate(-90,392,459)"/><path d="M 386 465v 12h 12a 12 12, 0, 0, 0, -12 -12" transform="rotate(90,392,471)"/><circle cx="392" cy="495" r="6" transform="rotate(0,392,495)"/><path d="M 386 561v 12h 6a 6 6, 0, 0, 0, 0 -12" transform="rotate(180,392,567)"/><path d="M 386 621v 12h 12a 12 12, 0, 0, 0, -12 -12" transform="rotate(0,392,627)"/><rect x="386" y="633" width="12" height="12" transform="rotate(0,392,639)"/><rect x="386" y="645" width="12" height="12" transform="rotate(0,392,651)"/><rect x="386" y="657" width="12" height="12" transform="rotate(0,392,663)"/><rect x="386" y="669" width="12" height="12" transform="rotate(0,392,675)"/><rect x="386" y="681" width="12" height="12" transform="rotate(0,392,687)"/><path d="M 386 693v 12h 12a 12 12, 0, 0, 0, -12 -12" transform="rotate(90,392,699)"/><path d="M 386 717v 12h 12a 12 12, 0, 0, 0, -12 -12" transform="rotate(0,392,723)"/><rect x="386" y="729" width="12" height="12" transform="rotate(0,392,735)"/><path d="M 386 789v 12h 6a 6 6, 0, 0, 0, 0 -12" transform="rotate(180,392,795)"/><rect x="386" y="837" width="12" height="12" transform="rotate(0,392,843)"/><rect x="386" y="849" width="12" height="12" transform="rotate(0,392,855)"/><rect x="386" y="861" width="12" height="12" transform="rotate(0,392,867)"/><path d="M 386 873v 12h 6a 6 6, 0, 0, 0, 0 -12" transform="rotate(90,392,879)"/><path d="M 398 453v 12h 6a 6 6, 0, 0, 0, 0 -12" transform="rotate(0,404,459)"/><path d="M 398 477v 12h 6a 6 6, 0, 0, 0, 0 -12" transform="rotate(180,404,483)"/><circle cx="404" cy="531" r="6" transform="rotate(0,404,531)"/><path d="M 398 549v 12h 6a 6 6, 0, 0, 0, 0 -12" transform="rotate(-90,404,555)"/><rect x="398" y="561" width="12" height="12" transform="rotate(0,404,567)"/><path d="M 398 573v 12h 6a 6 6, 0, 0, 0, 0 -12" transform="rotate(90,404,579)"/><path d="M 398 597v 12h 6a 6 6, 0, 0, 0, 0 -12" transform="rotate(-90,404,603)"/><path d="M 398 609v 12h 6a 6 6, 0, 0, 0, 0 -12" transform="rotate(90,404,615)"/><rect x="398" y="645" width="12" height="12" transform="rotate(0,404,651)"/><path d="M 398 705v 12h 6a 6 6, 0, 0, 0, 0 -12" transform="rotate(180,404,711)"/><path d="M 398 729v 12h 12a 12 12, 0, 0, 0, -12 -12" transform="rotate(0,404,735)"/><rect x="398" y="741" width="12" height="12" transform="rotate(0,404,747)"/><rect x="398" y="753" width="12" height="12" transform="rotate(0,404,759)"/><path d="M 398 765v 12h 12a 12 12, 0, 0, 0, -12 -12" transform="rotate(180,404,771)"/><path d="M 398 789v 12h 12a 12 12, 0, 0, 0, -12 -12" transform="rotate(0,404,795)"/><path d="M 398 801v 12h 12a 12 12, 0, 0, 0, -12 -12" transform="rotate(180,404,807)"/><path d="M 398 837v 12h 6a 6 6, 0, 0, 0, 0 -12" transform="rotate(0,404,843)"/><rect x="398" y="861" width="12" height="12" transform="rotate(0,404,867)"/><rect x="410" y="477" width="12" height="12" transform="rotate(0,416,483)"/><path d="M 410 489v 12h 6a 6 6, 0, 0, 0, 0 -12" transform="rotate(90,416,495)"/><path d="M 410 513v 12h 6a 6 6, 0, 0, 0, 0 -12" transform="rotate(180,416,519)"/><path d="M 410 645v 12h 12a 12 12, 0, 0, 0, -12 -12" transform="rotate(0,416,651)"/><rect x="410" y="657" width="12" height="12" transform="rotate(0,416,663)"/><rect x="410" y="669" width="12" height="12" transform="rotate(0,416,675)"/><rect x="410" y="681" width="12" height="12" transform="rotate(0,416,687)"/><rect x="410" y="693" width="12" height="12" transform="rotate(0,416,699)"/><rect x="410" y="705" width="12" height="12" transform="rotate(0,416,711)"/><path d="M 410 765v 12h 6a 6 6, 0, 0, 0, 0 -12" transform="rotate(0,416,771)"/><rect x="410" y="801" width="12" height="12" transform="rotate(0,416,807)"/><path d="M 410 861v 12h 12a 12 12, 0, 0, 0, -12 -12" transform="rotate(0,416,867)"/><rect x="410" y="873" width="12" height="12" transform="rotate(0,416,879)"/><path d="M 410 885v 12h 12a 12 12, 0, 0, 0, -12 -12" transform="rotate(180,416,891)"/><path d="M 422 477v 12h 6a 6 6, 0, 0, 0, 0 -12" transform="rotate(0,428,483)"/><path d="M 422 501v 12h 6a 6 6, 0, 0, 0, 0 -12" transform="rotate(-90,428,507)"/><rect x="422" y="513" width="12" height="12" transform="rotate(0,428,519)"/><rect x="422" y="525" width="12" height="12" transform="rotate(0,428,531)"/><rect x="422" y="537" width="12" height="12" transform="rotate(0,428,543)"/><rect x="422" y="549" width="12" height="12" transform="rotate(0,428,555)"/><rect x="422" y="561" width="12" height="12" transform="rotate(0,428,567)"/><rect x="422" y="573" width="12" height="12" transform="rotate(0,428,579)"/><path d="M 422 585v 12h 6a 6 6, 0, 0, 0, 0 -12" transform="rotate(90,428,591)"/><rect x="422" y="657" width="12" height="12" transform="rotate(0,428,663)"/><rect x="422" y="669" width="12" height="12" transform="rotate(0,428,675)"/><rect x="422" y="681" width="12" height="12" transform="rotate(0,428,687)"/><rect x="422" y="693" width="12" height="12" transform="rotate(0,428,699)"/><rect x="422" y="705" width="12" height="12" transform="rotate(0,428,711)"/><path d="M 422 717v 12h 12a 12 12, 0, 0, 0, -12 -12" transform="rotate(180,428,723)"/><path d="M 422 741v 12h 6a 6 6, 0, 0, 0, 0 -12" transform="rotate(180,428,747)"/><path d="M 422 777v 12h 12a 12 12, 0, 0, 0, -12 -12" transform="rotate(-90,428,783)"/><rect x="422" y="789" width="12" height="12" transform="rotate(0,428,795)"/><rect x="422" y="801" width="12" height="12" transform="rotate(0,428,807)"/><path d="M 422 813v 12h 6a 6 6, 0, 0, 0, 0 -12" transform="rotate(90,428,819)"/><path d="M 422 885v 12h 6a 6 6, 0, 0, 0, 0 -12" transform="rotate(0,428,891)"/><path d="M 434 489v 12h 6a 6 6, 0, 0, 0, 0 -12" transform="rotate(180,440,495)"/><path d="M 434 513v 12h 6a 6 6, 0, 0, 0, 0 -12" transform="rotate(0,440,519)"/><path d="M 434 609v 12h 12a 12 12, 0, 0, 0, -12 -12" transform="rotate(-90,440,615)"/><rect x="434" y="621" width="12" height="12" transform="rotate(0,440,627)"/><rect x="434" y="633" width="12" height="12" transform="rotate(0,440,639)"/><rect x="434" y="645" width="12" height="12" transform="rotate(0,440,651)"/><rect x="434" y="657" width="12" height="12" transform="rotate(0,440,663)"/><rect x="434" y="669" width="12" height="12" transform="rotate(0,440,675)"/><path d="M 434 705v 12h 12a 12 12, 0, 0, 0, -12 -12" transform="rotate(0,440,711)"/><rect x="434" y="717" width="12" height="12" transform="rotate(0,440,723)"/><rect x="434" y="729" width="12" height="12" transform="rotate(0,440,735)"/><rect x="434" y="741" width="12" height="12" transform="rotate(0,440,747)"/><rect x="434" y="753" width="12" height="12" transform="rotate(0,440,759)"/><rect x="434" y="765" width="12" height="12" transform="rotate(0,440,771)"/><rect x="434" y="777" width="12" height="12" transform="rotate(0,440,783)"/><rect x="434" y="789" width="12" height="12" transform="rotate(0,440,795)"/><path d="M 434 801v 12h 12a 12 12, 0, 0, 0, -12 -12" transform="rotate(90,440,807)"/><circle cx="440" cy="843" r="6" transform="rotate(0,440,843)"/><path d="M 434 861v 12h 6a 6 6, 0, 0, 0, 0 -12" transform="rotate(180,440,867)"/><path d="M 446 453v 12h 12a 12 12, 0, 0, 0, -12 -12" transform="rotate(-90,452,459)"/><path d="M 446 465v 12h 6a 6 6, 0, 0, 0, 0 -12" transform="rotate(90,452,471)"/><path d="M 446 489v 12h 12a 12 12, 0, 0, 0, -12 -12" transform="rotate(0,452,495)"/><path d="M 446 501v 12h 12a 12 12, 0, 0, 0, -12 -12" transform="rotate(180,452,507)"/><path d="M 446 525v 12h 6a 6 6, 0, 0, 0, 0 -12" transform="rotate(-90,452,531)"/><path d="M 446 537v 12h 12a 12 12, 0, 0, 0, -12 -12" transform="rotate(180,452,543)"/><path d="M 446 561v 12h 12a 12 12, 0, 0, 0, -12 -12" transform="rotate(-90,452,567)"/><rect x="446" y="573" width="12" height="12" transform="rotate(0,452,579)"/><path d="M 446 585v 12h 6a 6 6, 0, 0, 0, 0 -12" transform="rotate(90,452,591)"/><path d="M 446 609v 12h 6a 6 6, 0, 0, 0, 0 -12" transform="rotate(0,452,615)"/><path d="M 446 633v 12h 12a 12 12, 0, 0, 0, -12 -12" transform="rotate(0,452,639)"/><rect x="446" y="645" width="12" height="12" transform="rotate(0,452,651)"/><path d="M 446 669v 12h 6a 6 6, 0, 0, 0, 0 -12" transform="rotate(0,452,675)"/><rect x="446" y="729" width="12" height="12" transform="rotate(0,452,735)"/><path d="M 446 753v 12h 6a 6 6, 0, 0, 0, 0 -12" transform="rotate(0,452,759)"/><rect x="446" y="777" width="12" height="12" transform="rotate(0,452,783)"/><path d="M 446 813v 12h 12a 12 12, 0, 0, 0, -12 -12" transform="rotate(-90,452,819)"/><path d="M 446 825v 12h 12a 12 12, 0, 0, 0, -12 -12" transform="rotate(180,452,831)"/><path d="M 446 849v 12h 6a 6 6, 0, 0, 0, 0 -12" transform="rotate(-90,452,855)"/><rect x="446" y="861" width="12" height="12" transform="rotate(0,452,867)"/><rect x="458" y="453" width="12" height="12" transform="rotate(0,464,459)"/><path d="M 458 477v 12h 6a 6 6, 0, 0, 0, 0 -12" transform="rotate(180,464,483)"/><rect x="458" y="501" width="12" height="12" transform="rotate(0,464,507)"/><path d="M 458 513v 12h 12a 12 12, 0, 0, 0, -12 -12" transform="rotate(180,464,519)"/><path d="M 458 537v 12h 12a 12 12, 0, 0, 0, -12 -12" transform="rotate(0,464,543)"/><rect x="458" y="549" width="12" height="12" transform="rotate(0,464,555)"/><rect x="458" y="561" width="12" height="12" transform="rotate(0,464,567)"/><path d="M 458 573v 12h 12a 12 12, 0, 0, 0, -12 -12" transform="rotate(90,464,579)"/><circle cx="464" cy="603" r="6" transform="rotate(0,464,603)"/><circle cx="464" cy="627" r="6" transform="rotate(0,464,627)"/><path d="M 458 645v 12h 12a 12 12, 0, 0, 0, -12 -12" transform="rotate(0,464,651)"/><path d="M 458 657v 12h 12a 12 12, 0, 0, 0, -12 -12" transform="rotate(180,464,663)"/><path d="M 458 717v 12h 12a 12 12, 0, 0, 0, -12 -12" transform="rotate(-90,464,723)"/><rect x="458" y="729" width="12" height="12" transform="rotate(0,464,735)"/><path d="M 458 741v 12h 12a 12 12, 0, 0, 0, -12 -12" transform="rotate(180,464,747)"/><path d="M 458 777v 12h 6a 6 6, 0, 0, 0, 0 -12" transform="rotate(0,464,783)"/><rect x="458" y="813" width="12" height="12" transform="rotate(0,464,819)"/><rect x="458" y="825" width="12" height="12" transform="rotate(0,464,831)"/><rect x="458" y="861" width="12" height="12" transform="rotate(0,464,867)"/><circle cx="464" cy="891" r="6" transform="rotate(0,464,891)"/><rect x="470" y="453" width="12" height="12" transform="rotate(0,476,459)"/><rect x="470" y="465" width="12" height="12" transform="rotate(0,476,471)"/><path d="M 470 477v 12h 12a 12 12, 0, 0, 0, -12 -12" transform="rotate(90,476,483)"/><path d="M 470 501v 12h 12a 12 12, 0, 0, 0, -12 -12" transform="rotate(0,476,507)"/><rect x="470" y="513" width="12" height="12" transform="rotate(0,476,519)"/><path d="M 470 525v 12h 6a 6 6, 0, 0, 0, 0 -12" transform="rotate(90,476,531)"/><path d="M 470 585v 12h 6a 6 6, 0, 0, 0, 0 -12" transform="rotate(180,476,591)"/><rect x="470" y="657" width="12" height="12" transform="rotate(0,476,663)"/><path d="M 470 681v 12h 12a 12 12, 0, 0, 0, -12 -12" transform="rotate(-90,476,687)"/><path d="M 470 693v 12h 12a 12 12, 0, 0, 0, -12 -12" transform="rotate(180,476,699)"/><path d="M 470 717v 12h 6a 6 6, 0, 0, 0, 0 -12" transform="rotate(0,476,723)"/><path d="M 470 741v 12h 6a 6 6, 0, 0, 0, 0 -12" transform="rotate(0,476,747)"/><path d="M 470 801v 12h 6a 6 6, 0, 0, 0, 0 -12" transform="rotate(-90,476,807)"/><rect x="470" y="813" width="12" height="12" transform="rotate(0,476,819)"/><path d="M 470 825v 12h 12a 12 12, 0, 0, 0, -12 -12" transform="rotate(90,476,831)"/><path d="M 470 849v 12h 12a 12 12, 0, 0, 0, -12 -12" transform="rotate(-90,476,855)"/><rect x="470" y="861" width="12" height="12" transform="rotate(0,476,867)"/><path d="M 470 873v 12h 6a 6 6, 0, 0, 0, 0 -12" transform="rotate(90,476,879)"/><rect x="482" y="453" width="12" height="12" transform="rotate(0,488,459)"/><rect x="482" y="465" width="12" height="12" transform="rotate(0,488,471)"/><circle cx="488" cy="495" r="6" transform="rotate(0,488,495)"/><path d="M 482 537v 12h 12a 12 12, 0, 0, 0, -12 -12" transform="rotate(-90,488,543)"/><rect x="482" y="549" width="12" height="12" transform="rotate(0,488,555)"/><path d="M 482 561v 12h 6a 6 6, 0, 0, 0, 0 -12" transform="rotate(90,488,567)"/><path d="M 482 585v 12h 6a 6 6, 0, 0, 0, 0 -12" transform="rotate(0,488,591)"/><path d="M 482 633v 12h 6a 6 6, 0, 0, 0, 0 -12" transform="rotate(180,488,639)"/><rect x="482" y="657" width="12" height="12" transform="rotate(0,488,663)"/><path d="M 482 681v 12h 12a 12 12, 0, 0, 0, -12 -12" transform="rotate(0,488,687)"/><rect x="482" y="693" width="12" height="12" transform="rotate(0,488,699)"/><path d="M 482 705v 12h 12a 12 12, 0, 0, 0, -12 -12" transform="rotate(180,488,711)"/><path d="M 482 765v 12h 12a 12 12, 0, 0, 0, -12 -12" transform="rotate(-90,488,771)"/><rect x="482" y="777" width="12" height="12" transform="rotate(0,488,783)"/><path d="M 482 789v 12h 12a 12 12, 0, 0, 0, -12 -12" transform="rotate(180,488,795)"/><path d="M 482 837v 12h 12a 12 12, 0, 0, 0, -12 -12" transform="rotate(-90,488,843)"/><rect x="482" y="849" width="12" height="12" transform="rotate(0,488,855)"/><rect x="482" y="861" width="12" height="12" transform="rotate(0,488,867)"/><rect x="494" y="453" width="12" height="12" transform="rotate(0,500,459)"/><rect x="494" y="465" width="12" height="12" transform="rotate(0,500,471)"/><path d="M 494 477v 12h 12a 12 12, 0, 0, 0, -12 -12" transform="rotate(180,500,483)"/><path d="M 494 525v 12h 6a 6 6, 0, 0, 0, 0 -12" transform="rotate(-90,500,531)"/><rect x="494" y="537" width="12" height="12" transform="rotate(0,500,543)"/><path d="M 494 549v 12h 12a 12 12, 0, 0, 0, -12 -12" transform="rotate(90,500,555)"/><path d="M 494 597v 12h 6a 6 6, 0, 0, 0, 0 -12" transform="rotate(-90,500,603)"/><path d="M 494 609v 12h 12a 12 12, 0, 0, 0, -12 -12" transform="rotate(180,500,615)"/><rect x="494" y="633" width="12" height="12" transform="rotate(0,500,639)"/><rect x="494" y="657" width="12" height="12" transform="rotate(0,500,663)"/><path d="M 494 669v 12h 12a 12 12, 0, 0, 0, -12 -12" transform="rotate(180,500,675)"/><path d="M 494 693v 12h 12a 12 12, 0, 0, 0, -12 -12" transform="rotate(0,500,699)"/><rect x="494" y="705" width="12" height="12" transform="rotate(0,500,711)"/><rect x="494" y="765" width="12" height="12" transform="rotate(0,500,771)"/><rect x="494" y="777" width="12" height="12" transform="rotate(0,500,783)"/><rect x="494" y="789" width="12" height="12" transform="rotate(0,500,795)"/><path d="M 494 801v 12h 6a 6 6, 0, 0, 0, 0 -12" transform="rotate(90,500,807)"/><path d="M 494 825v 12h 6a 6 6, 0, 0, 0, 0 -12" transform="rotate(-90,500,831)"/><path d="M 494 837v 12h 12a 12 12, 0, 0, 0, -12 -12" transform="rotate(90,500,843)"/><rect x="494" y="861" width="12" height="12" transform="rotate(0,500,867)"/><rect x="506" y="453" width="12" height="12" transform="rotate(0,512,459)"/><rect x="506" y="465" width="12" height="12" transform="rotate(0,512,471)"/><rect x="506" y="477" width="12" height="12" transform="rotate(0,512,483)"/><path d="M 506 489v 12h 12a 12 12, 0, 0, 0, -12 -12" transform="rotate(180,512,495)"/><circle cx="512" cy="519" r="6" transform="rotate(0,512,519)"/><circle cx="512" cy="591" r="6" transform="rotate(0,512,591)"/><path d="M 506 609v 12h 6a 6 6, 0, 0, 0, 0 -12" transform="rotate(0,512,615)"/><rect x="506" y="633" width="12" height="12" transform="rotate(0,512,639)"/><rect x="506" y="645" width="12" height="12" transform="rotate(0,512,651)"/><rect x="506" y="657" width="12" height="12" transform="rotate(0,512,663)"/><rect x="506" y="669" width="12" height="12" transform="rotate(0,512,675)"/><path d="M 506 681v 12h 6a 6 6, 0, 0, 0, 0 -12" transform="rotate(90,512,687)"/><rect x="506" y="705" width="12" height="12" transform="rotate(0,512,711)"/><path d="M 506 717v 12h 12a 12 12, 0, 0, 0, -12 -12" transform="rotate(180,512,723)"/><path d="M 506 741v 12h 6a 6 6, 0, 0, 0, 0 -12" transform="rotate(180,512,747)"/><path d="M 506 765v 12h 6a 6 6, 0, 0, 0, 0 -12" transform="rotate(0,512,771)"/><path d="M 506 813v 12h 6a 6 6, 0, 0, 0, 0 -12" transform="rotate(180,512,819)"/><path d="M 506 849v 12h 6a 6 6, 0, 0, 0, 0 -12" transform="rotate(-90,512,855)"/><rect x="506" y="861" width="12" height="12" transform="rotate(0,512,867)"/><path d="M 506 885v 12h 6a 6 6, 0, 0, 0, 0 -12" transform="rotate(180,512,891)"/><rect x="518" y="453" width="12" height="12" transform="rotate(0,524,459)"/><path d="M 518 477v 12h 12a 12 12, 0, 0, 0, -12 -12" transform="rotate(0,524,483)"/><path d="M 518 489v 12h 12a 12 12, 0, 0, 0, -12 -12" transform="rotate(90,524,495)"/><circle cx="524" cy="531" r="6" transform="rotate(0,524,531)"/><circle cx="524" cy="555" r="6" transform="rotate(0,524,555)"/><path d="M 518 573v 12h 6a 6 6, 0, 0, 0, 0 -12" transform="rotate(180,524,579)"/><circle cx="524" cy="603" r="6" transform="rotate(0,524,603)"/><path d="M 518 621v 12h 12a 12 12, 0, 0, 0, -12 -12" transform="rotate(-90,524,627)"/><path d="M 518 633v 12h 12a 12 12, 0, 0, 0, -12 -12" transform="rotate(90,524,639)"/><rect x="518" y="669" width="12" height="12" transform="rotate(0,524,675)"/><path d="M 518 693v 12h 6a 6 6, 0, 0, 0, 0 -12" transform="rotate(-90,524,699)"/><rect x="518" y="705" width="12" height="12" transform="rotate(0,524,711)"/><rect x="518" y="717" width="12" height="12" transform="rotate(0,524,723)"/><rect x="518" y="729" width="12" height="12" transform="rotate(0,524,735)"/><rect x="518" y="741" width="12" height="12" transform="rotate(0,524,747)"/><path d="M 518 753v 12h 6a 6 6, 0, 0, 0, 0 -12" transform="rotate(90,524,759)"/><path d="M 518 813v 12h 6a 6 6, 0, 0, 0, 0 -12" transform="rotate(0,524,819)"/><path d="M 518 861v 12h 6a 6 6, 0, 0, 0, 0 -12" transform="rotate(0,524,867)"/><path d="M 518 885v 12h 6a 6 6, 0, 0, 0, 0 -12" transform="rotate(0,524,891)"/><rect x="530" y="453" width="12" height="12" transform="rotate(0,536,459)"/><path d="M 530 465v 12h 6a 6 6, 0, 0, 0, 0 -12" transform="rotate(90,536,471)"/><circle cx="536" cy="519" r="6" transform="rotate(0,536,519)"/><path d="M 530 537v 12h 6a 6 6, 0, 0, 0, 0 -12" transform="rotate(180,536,543)"/><path d="M 530 573v 12h 6a 6 6, 0, 0, 0, 0 -12" transform="rotate(0,536,579)"/><path d="M 530 621v 12h 6a 6 6, 0, 0, 0, 0 -12" transform="rotate(0,536,627)"/><path d="M 530 645v 12h 6a 6 6, 0, 0, 0, 0 -12" transform="rotate(-90,536,651)"/><rect x="530" y="657" width="12" height="12" transform="rotate(0,536,663)"/><rect x="530" y="669" width="12" height="12" transform="rotate(0,536,675)"/><rect x="530" y="717" width="12" height="12" transform="rotate(0,536,723)"/><rect x="530" y="729" width="12" height="12" transform="rotate(0,536,735)"/><path d="M 530 777v 12h 6a 6 6, 0, 0, 0, 0 -12" transform="rotate(180,536,783)"/><path d="M 530 801v 12h 6a 6 6, 0, 0, 0, 0 -12" transform="rotate(180,536,807)"/><path d="M 530 837v 12h 6a 6 6, 0, 0, 0, 0 -12" transform="rotate(-90,536,843)"/><path d="M 530 849v 12h 12a 12 12, 0, 0, 0, -12 -12" transform="rotate(180,536,855)"/><path d="M 530 873v 12h 6a 6 6, 0, 0, 0, 0 -12" transform="rotate(180,536,879)"/><rect x="542" y="453" width="12" height="12" transform="rotate(0,548,459)"/><path d="M 542 501v 12h 6a 6 6, 0, 0, 0, 0 -12" transform="rotate(180,548,507)"/><path d="M 542 525v 12h 6a 6 6, 0, 0, 0, 0 -12" transform="rotate(-90,548,531)"/><path d="M 542 537v 12h 12a 12 12, 0, 0, 0, -12 -12" transform="rotate(90,548,543)"/><circle cx="548" cy="591" r="6" transform="rotate(0,548,591)"/><path d="M 542 657v 12h 12a 12 12, 0, 0, 0, -12 -12" transform="rotate(0,548,663)"/><rect x="542" y="669" width="12" height="12" transform="rotate(0,548,675)"/><path d="M 542 681v 12h 6a 6 6, 0, 0, 0, 0 -12" transform="rotate(90,548,687)"/><path d="M 542 705v 12h 12a 12 12, 0, 0, 0, -12 -12" transform="rotate(-90,548,711)"/><rect x="542" y="717" width="12" height="12" transform="rotate(0,548,723)"/><rect x="542" y="729" width="12" height="12" transform="rotate(0,548,735)"/><rect x="542" y="741" width="12" height="12" transform="rotate(0,548,747)"/><rect x="542" y="753" width="12" height="12" transform="rotate(0,548,759)"/><rect x="542" y="765" width="12" height="12" transform="rotate(0,548,771)"/><rect x="542" y="777" width="12" height="12" transform="rotate(0,548,783)"/><rect x="542" y="789" width="12" height="12" transform="rotate(0,548,795)"/><path d="M 542 801v 12h 12a 12 12, 0, 0, 0, -12 -12" transform="rotate(90,548,807)"/><path d="M 542 849v 12h 12a 12 12, 0, 0, 0, -12 -12" transform="rotate(0,548,855)"/><rect x="542" y="861" width="12" height="12" transform="rotate(0,548,867)"/><path d="M 542 873v 12h 12a 12 12, 0, 0, 0, -12 -12" transform="rotate(90,548,879)"/><path d="M 554 453v 12h 12a 12 12, 0, 0, 0, -12 -12" transform="rotate(0,560,459)"/><path d="M 554 465v 12h 6a 6 6, 0, 0, 0, 0 -12" transform="rotate(90,560,471)"/><path d="M 554 489v 12h 12a 12 12, 0, 0, 0, -12 -12" transform="rotate(-90,560,495)"/><path d="M 554 501v 12h 12a 12 12, 0, 0, 0, -12 -12" transform="rotate(90,560,507)"/><circle cx="560" cy="567" r="6" transform="rotate(0,560,567)"/><path d="M 554 597v 12h 6a 6 6, 0, 0, 0, 0 -12" transform="rotate(-90,560,603)"/><rect x="554" y="609" width="12" height="12" transform="rotate(0,560,615)"/><rect x="554" y="621" width="12" height="12" transform="rotate(0,560,627)"/><rect x="554" y="633" width="12" height="12" transform="rotate(0,560,639)"/><path d="M 554 645v 12h 12a 12 12, 0, 0, 0, -12 -12" transform="rotate(180,560,651)"/><rect x="554" y="705" width="12" height="12" transform="rotate(0,560,711)"/><rect x="554" y="717" width="12" height="12" transform="rotate(0,560,723)"/><rect x="554" y="753" width="12" height="12" transform="rotate(0,560,759)"/><path d="M 554 789v 12h 6a 6 6, 0, 0, 0, 0 -12" transform="rotate(0,560,795)"/><path d="M 554 825v 12h 6a 6 6, 0, 0, 0, 0 -12" transform="rotate(180,560,831)"/><rect x="554" y="861" width="12" height="12" transform="rotate(0,560,867)"/><path d="M 566 489v 12h 6a 6 6, 0, 0, 0, 0 -12" transform="rotate(0,572,495)"/><path d="M 566 513v 12h 6a 6 6, 0, 0, 0, 0 -12" transform="rotate(-90,572,519)"/><rect x="566" y="525" width="12" height="12" transform="rotate(0,572,531)"/><path d="M 566 537v 12h 12a 12 12, 0, 0, 0, -12 -12" transform="rotate(180,572,543)"/><circle cx="572" cy="591" r="6" transform="rotate(0,572,591)"/><path d="M 566 633v 12h 12a 12 12, 0, 0, 0, -12 -12" transform="rotate(0,572,639)"/><rect x="566" y="645" width="12" height="12" transform="rotate(0,572,651)"/><path d="M 566 657v 12h 6a 6 6, 0, 0, 0, 0 -12" transform="rotate(90,572,663)"/><path d="M 566 693v 12h 6a 6 6, 0, 0, 0, 0 -12" transform="rotate(-90,572,699)"/><rect x="566" y="705" width="12" height="12" transform="rotate(0,572,711)"/><path d="M 566 717v 12h 12a 12 12, 0, 0, 0, -12 -12" transform="rotate(90,572,723)"/><path d="M 566 741v 12h 6a 6 6, 0, 0, 0, 0 -12" transform="rotate(-90,572,747)"/><rect x="566" y="753" width="12" height="12" transform="rotate(0,572,759)"/><circle cx="572" cy="783" r="6" transform="rotate(0,572,783)"/><path d="M 566 801v 12h 6a 6 6, 0, 0, 0, 0 -12" transform="rotate(-90,572,807)"/><rect x="566" y="813" width="12" height="12" transform="rotate(0,572,819)"/><rect x="566" y="825" width="12" height="12" transform="rotate(0,572,831)"/><path d="M 566 837v 12h 12a 12 12, 0, 0, 0, -12 -12" transform="rotate(180,572,843)"/><path d="M 566 861v 12h 12a 12 12, 0, 0, 0, -12 -12" transform="rotate(0,572,867)"/><rect x="566" y="873" width="12" height="12" transform="rotate(0,572,879)"/><path d="M 566 885v 12h 6a 6 6, 0, 0, 0, 0 -12" transform="rotate(90,572,891)"/><path d="M 578 453v 12h 6a 6 6, 0, 0, 0, 0 -12" transform="rotate(-90,584,459)"/><path d="M 578 465v 12h 6a 6 6, 0, 0, 0, 0 -12" transform="rotate(90,584,471)"/><path d="M 578 537v 12h 12a 12 12, 0, 0, 0, -12 -12" transform="rotate(0,584,543)"/><path d="M 578 549v 12h 6a 6 6, 0, 0, 0, 0 -12" transform="rotate(90,584,555)"/><path d="M 578 609v 12h 6a 6 6, 0, 0, 0, 0 -12" transform="rotate(180,584,615)"/><path d="M 578 729v 12h 6a 6 6, 0, 0, 0, 0 -12" transform="rotate(180,584,735)"/><rect x="578" y="753" width="12" height="12" transform="rotate(0,584,759)"/><path d="M 578 765v 12h 6a 6 6, 0, 0, 0, 0 -12" transform="rotate(90,584,771)"/><path d="M 578 837v 12h 6a 6 6, 0, 0, 0, 0 -12" transform="rotate(0,584,843)"/><path d="M 578 873v 12h 6a 6 6, 0, 0, 0, 0 -12" transform="rotate(0,584,879)"/><circle cx="596" cy="507" r="6" transform="rotate(0,596,507)"/><circle cx="596" cy="531" r="6" transform="rotate(0,596,531)"/><path d="M 590 561v 12h 6a 6 6, 0, 0, 0, 0 -12" transform="rotate(180,596,567)"/><path d="M 590 585v 12h 6a 6 6, 0, 0, 0, 0 -12" transform="rotate(-90,596,591)"/><rect x="590" y="597" width="12" height="12" transform="rotate(0,596,603)"/><rect x="590" y="609" width="12" height="12" transform="rotate(0,596,615)"/><path d="M 590 633v 12h 6a 6 6, 0, 0, 0, 0 -12" transform="rotate(180,596,639)"/><circle cx="596" cy="675" r="6" transform="rotate(0,596,675)"/><path d="M 590 717v 12h 12a 12 12, 0, 0, 0, -12 -12" transform="rotate(-90,596,723)"/><path d="M 590 729v 12h 12a 12 12, 0, 0, 0, -12 -12" transform="rotate(90,596,735)"/><path d="M 590 753v 12h 6a 6 6, 0, 0, 0, 0 -12" transform="rotate(0,596,759)"/><circle cx="596" cy="783" r="6" transform="rotate(0,596,783)"/><circle cx="596" cy="807" r="6" transform="rotate(0,596,807)"/><path d="M 590 861v 12h 6a 6 6, 0, 0, 0, 0 -12" transform="rotate(180,596,867)"/><path d="M 602 549v 12h 6a 6 6, 0, 0, 0, 0 -12" transform="rotate(-90,608,555)"/><rect x="602" y="561" width="12" height="12" transform="rotate(0,608,567)"/><path d="M 602 609v 12h 6a 6 6, 0, 0, 0, 0 -12" transform="rotate(0,608,615)"/><path d="M 602 633v 12h 12a 12 12, 0, 0, 0, -12 -12" transform="rotate(0,608,639)"/><path d="M 602 645v 12h 12a 12 12, 0, 0, 0, -12 -12" transform="rotate(180,608,651)"/><path d="M 602 681v 12h 12a 12 12, 0, 0, 0, -12 -12" transform="rotate(-90,608,687)"/><rect x="602" y="693" width="12" height="12" transform="rotate(0,608,699)"/><rect x="602" y="705" width="12" height="12" transform="rotate(0,608,711)"/><rect x="602" y="717" width="12" height="12" transform="rotate(0,608,723)"/><circle cx="608" cy="747" r="6" transform="rotate(0,608,747)"/><path d="M 602 813v 12h 12a 12 12, 0, 0, 0, -12 -12" transform="rotate(-90,608,819)"/><path d="M 602 825v 12h 12a 12 12, 0, 0, 0, -12 -12" transform="rotate(180,608,831)"/><rect x="602" y="861" width="12" height="12" transform="rotate(0,608,867)"/><path d="M 614 453v 12h 6a 6 6, 0, 0, 0, 0 -12" transform="rotate(-90,620,459)"/><rect x="614" y="465" width="12" height="12" transform="rotate(0,620,471)"/><rect x="614" y="477" width="12" height="12" transform="rotate(0,620,483)"/><rect x="614" y="489" width="12" height="12" transform="rotate(0,620,495)"/><path d="M 614 501v 12h 6a 6 6, 0, 0, 0, 0 -12" transform="rotate(90,620,507)"/><circle cx="620" cy="531" r="6" transform="rotate(0,620,531)"/><rect x="614" y="561" width="12" height="12" transform="rotate(0,620,567)"/><path d="M 614 585v 12h 6a 6 6, 0, 0, 0, 0 -12" transform="rotate(180,620,591)"/><circle cx="620" cy="627" r="6" transform="rotate(0,620,627)"/><rect x="614" y="645" width="12" height="12" transform="rotate(0,620,651)"/><path d="M 614 681v 12h 6a 6 6, 0, 0, 0, 0 -12" transform="rotate(0,620,687)"/><path d="M 614 705v 12h 12a 12 12, 0, 0, 0, -12 -12" transform="rotate(0,620,711)"/><rect x="614" y="717" width="12" height="12" transform="rotate(0,620,723)"/><path d="M 614 729v 12h 12a 12 12, 0, 0, 0, -12 -12" transform="rotate(180,620,735)"/><path d="M 614 789v 12h 12a 12 12, 0, 0, 0, -12 -12" transform="rotate(-90,620,795)"/><rect x="614" y="801" width="12" height="12" transform="rotate(0,620,807)"/><rect x="614" y="813" width="12" height="12" transform="rotate(0,620,819)"/><rect x="614" y="825" width="12" height="12" transform="rotate(0,620,831)"/><path d="M 614 837v 12h 12a 12 12, 0, 0, 0, -12 -12" transform="rotate(180,620,843)"/><path d="M 614 861v 12h 6a 6 6, 0, 0, 0, 0 -12" transform="rotate(0,620,867)"/><circle cx="620" cy="891" r="6" transform="rotate(0,620,891)"/><path d="M 626 549v 12h 6a 6 6, 0, 0, 0, 0 -12" transform="rotate(-90,632,555)"/><rect x="626" y="561" width="12" height="12" transform="rotate(0,632,567)"/><rect x="626" y="573" width="12" height="12" transform="rotate(0,632,579)"/><rect x="626" y="585" width="12" height="12" transform="rotate(0,632,591)"/><path d="M 626 597v 12h 12a 12 12, 0, 0, 0, -12 -12" transform="rotate(180,632,603)"/><path d="M 626 633v 12h 6a 6 6, 0, 0, 0, 0 -12" transform="rotate(-90,632,639)"/><rect x="626" y="645" width="12" height="12" transform="rotate(0,632,651)"/><circle cx="632" cy="675" r="6" transform="rotate(0,632,675)"/><circle cx="632" cy="699" r="6" transform="rotate(0,632,699)"/><rect x="626" y="729" width="12" height="12" transform="rotate(0,632,735)"/><path d="M 626 753v 12h 6a 6 6, 0, 0, 0, 0 -12" transform="rotate(-90,632,759)"/><rect x="626" y="765" width="12" height="12" transform="rotate(0,632,771)"/><rect x="626" y="777" width="12" height="12" transform="rotate(0,632,783)"/><rect x="626" y="789" width="12" height="12" transform="rotate(0,632,795)"/><rect x="626" y="837" width="12" height="12" transform="rotate(0,632,843)"/><path d="M 626 849v 12h 12a 12 12, 0, 0, 0, -12 -12" transform="rotate(180,632,855)"/><path d="M 638 573v 12h 6a 6 6, 0, 0, 0, 0 -12" transform="rotate(0,644,579)"/><rect x="638" y="597" width="12" height="12" transform="rotate(0,644,603)"/><path d="M 638 621v 12h 6a 6 6, 0, 0, 0, 0 -12" transform="rotate(180,644,627)"/><rect x="638" y="645" width="12" height="12" transform="rotate(0,644,651)"/><path d="M 638 705v 12h 12a 12 12, 0, 0, 0, -12 -12" transform="rotate(-90,644,711)"/><rect x="638" y="717" width="12" height="12" transform="rotate(0,644,723)"/><rect x="638" y="729" width="12" height="12" transform="rotate(0,644,735)"/><path d="M 638 741v 12h 6a 6 6, 0, 0, 0, 0 -12" transform="rotate(90,644,747)"/><rect x="638" y="765" width="12" height="12" transform="rotate(0,644,771)"/><rect x="638" y="789" width="12" height="12" transform="rotate(0,644,795)"/><circle cx="644" cy="819" r="6" transform="rotate(0,644,819)"/><rect x="638" y="837" width="12" height="12" transform="rotate(0,644,843)"/><rect x="638" y="849" width="12" height="12" transform="rotate(0,644,855)"/><rect x="638" y="861" width="12" height="12" transform="rotate(0,644,867)"/><path d="M 638 873v 12h 6a 6 6, 0, 0, 0, 0 -12" transform="rotate(90,644,879)"/><path d="M 650 585v 12h 12a 12 12, 0, 0, 0, -12 -12" transform="rotate(-90,656,591)"/><rect x="650" y="597" width="12" height="12" transform="rotate(0,656,603)"/><rect x="650" y="609" width="12" height="12" transform="rotate(0,656,615)"/><rect x="650" y="621" width="12" height="12" transform="rotate(0,656,627)"/><rect x="650" y="645" width="12" height="12" transform="rotate(0,656,651)"/><rect x="650" y="657" width="12" height="12" transform="rotate(0,656,663)"/><rect x="650" y="669" width="12" height="12" transform="rotate(0,656,675)"/><rect x="650" y="681" width="12" height="12" transform="rotate(0,656,687)"/><rect x="650" y="693" width="12" height="12" transform="rotate(0,656,699)"/><path d="M 650 705v 12h 12a 12 12, 0, 0, 0, -12 -12" transform="rotate(90,656,711)"/><rect x="650" y="729" width="12" height="12" transform="rotate(0,656,735)"/><path d="M 650 765v 12h 6a 6 6, 0, 0, 0, 0 -12" transform="rotate(0,656,771)"/><rect x="650" y="789" width="12" height="12" transform="rotate(0,656,795)"/><rect x="650" y="837" width="12" height="12" transform="rotate(0,656,843)"/><rect x="650" y="861" width="12" height="12" transform="rotate(0,656,867)"/><circle cx="668" cy="555" r="6" transform="rotate(0,668,555)"/><path d="M 662 573v 12h 6a 6 6, 0, 0, 0, 0 -12" transform="rotate(-90,668,579)"/><rect x="662" y="585" width="12" height="12" transform="rotate(0,668,591)"/><rect x="662" y="597" width="12" height="12" transform="rotate(0,668,603)"/><rect x="662" y="621" width="12" height="12" transform="rotate(0,668,627)"/><path d="M 662 645v 12h 12a 12 12, 0, 0, 0, -12 -12" transform="rotate(0,668,651)"/><path d="M 662 657v 12h 12a 12 12, 0, 0, 0, -12 -12" transform="rotate(90,668,663)"/><path d="M 662 693v 12h 6a 6 6, 0, 0, 0, 0 -12" transform="rotate(0,668,699)"/><path d="M 662 729v 12h 6a 6 6, 0, 0, 0, 0 -12" transform="rotate(0,668,735)"/><rect x="662" y="789" width="12" height="12" transform="rotate(0,668,795)"/><rect x="662" y="801" width="12" height="12" transform="rotate(0,668,807)"/><rect x="662" y="813" width="12" height="12" transform="rotate(0,668,819)"/><rect x="662" y="825" width="12" height="12" transform="rotate(0,668,831)"/><rect x="662" y="837" width="12" height="12" transform="rotate(0,668,843)"/><rect x="662" y="849" width="12" height="12" transform="rotate(0,668,855)"/><rect x="662" y="861" width="12" height="12" transform="rotate(0,668,867)"/><path d="M 674 561v 12h 6a 6 6, 0, 0, 0, 0 -12" transform="rotate(180,680,567)"/><path d="M 674 597v 12h 12a 12 12, 0, 0, 0, -12 -12" transform="rotate(0,680,603)"/><rect x="674" y="609" width="12" height="12" transform="rotate(0,680,615)"/><rect x="674" y="621" width="12" height="12" transform="rotate(0,680,627)"/><path d="M 674 633v 12h 12a 12 12, 0, 0, 0, -12 -12" transform="rotate(180,680,639)"/><path d="M 674 669v 12h 12a 12 12, 0, 0, 0, -12 -12" transform="rotate(-90,680,675)"/><path d="M 674 681v 12h 12a 12 12, 0, 0, 0, -12 -12" transform="rotate(180,680,687)"/><path d="M 674 717v 12h 6a 6 6, 0, 0, 0, 0 -12" transform="rotate(180,680,723)"/><path d="M 674 741v 12h 6a 6 6, 0, 0, 0, 0 -12" transform="rotate(180,680,747)"/><path d="M 674 765v 12h 12a 12 12, 0, 0, 0, -12 -12" transform="rotate(-90,680,771)"/><rect x="674" y="777" width="12" height="12" transform="rotate(0,680,783)"/><path d="M 674 789v 12h 12a 12 12, 0, 0, 0, -12 -12" transform="rotate(90,680,795)"/><rect x="674" y="813" width="12" height="12" transform="rotate(0,680,819)"/><rect x="674" y="825" width="12" height="12" transform="rotate(0,680,831)"/><path d="M 674 849v 12h 12a 12 12, 0, 0, 0, -12 -12" transform="rotate(0,680,855)"/><rect x="674" y="861" width="12" height="12" transform="rotate(0,680,867)"/><path d="M 674 873v 12h 12a 12 12, 0, 0, 0, -12 -12" transform="rotate(180,680,879)"/><rect x="686" y="561" width="12" height="12" transform="rotate(0,692,567)"/><path d="M 686 573v 12h 12a 12 12, 0, 0, 0, -12 -12" transform="rotate(180,692,579)"/><path d="M 686 609v 12h 6a 6 6, 0, 0, 0, 0 -12" transform="rotate(0,692,615)"/><path d="M 686 633v 12h 12a 12 12, 0, 0, 0, -12 -12" transform="rotate(0,692,639)"/><rect x="686" y="645" width="12" height="12" transform="rotate(0,692,651)"/><rect x="686" y="657" width="12" height="12" transform="rotate(0,692,663)"/><rect x="686" y="669" width="12" height="12" transform="rotate(0,692,675)"/><rect x="686" y="681" width="12" height="12" transform="rotate(0,692,687)"/><path d="M 686 717v 12h 12a 12 12, 0, 0, 0, -12 -12" transform="rotate(0,692,723)"/><rect x="686" y="729" width="12" height="12" transform="rotate(0,692,735)"/><rect x="686" y="741" width="12" height="12" transform="rotate(0,692,747)"/><rect x="686" y="753" width="12" height="12" transform="rotate(0,692,759)"/><rect x="686" y="765" width="12" height="12" transform="rotate(0,692,771)"/><rect x="686" y="813" width="12" height="12" transform="rotate(0,692,819)"/><rect x="686" y="825" width="12" height="12" transform="rotate(0,692,831)"/><rect x="686" y="873" width="12" height="12" transform="rotate(0,692,879)"/><path d="M 698 549v 12h 6a 6 6, 0, 0, 0, 0 -12" transform="rotate(-90,704,555)"/><rect x="698" y="561" width="12" height="12" transform="rotate(0,704,567)"/><rect x="698" y="573" width="12" height="12" transform="rotate(0,704,579)"/><path d="M 698 585v 12h 12a 12 12, 0, 0, 0, -12 -12" transform="rotate(180,704,591)"/><path d="M 698 645v 12h 6a 6 6, 0, 0, 0, 0 -12" transform="rotate(0,704,651)"/><path d="M 698 669v 12h 12a 12 12, 0, 0, 0, -12 -12" transform="rotate(0,704,675)"/><rect x="698" y="681" width="12" height="12" transform="rotate(0,704,687)"/><rect x="698" y="693" width="12" height="12" transform="rotate(0,704,699)"/><path d="M 698 705v 12h 12a 12 12, 0, 0, 0, -12 -12" transform="rotate(180,704,711)"/><path d="M 698 729v 12h 6a 6 6, 0, 0, 0, 0 -12" transform="rotate(0,704,735)"/><path d="M 698 765v 12h 12a 12 12, 0, 0, 0, -12 -12" transform="rotate(0,704,771)"/><path d="M 698 777v 12h 12a 12 12, 0, 0, 0, -12 -12" transform="rotate(180,704,783)"/><path d="M 698 813v 12h 12a 12 12, 0, 0, 0, -12 -12" transform="rotate(0,704,819)"/><rect x="698" y="825" width="12" height="12" transform="rotate(0,704,831)"/><path d="M 698 861v 12h 6a 6 6, 0, 0, 0, 0 -12" transform="rotate(-90,704,867)"/><rect x="698" y="873" width="12" height="12" transform="rotate(0,704,879)"/><path d="M 710 585v 12h 6a 6 6, 0, 0, 0, 0 -12" transform="rotate(0,716,591)"/><path d="M 710 609v 12h 6a 6 6, 0, 0, 0, 0 -12" transform="rotate(-90,716,615)"/><path d="M 710 621v 12h 6a 6 6, 0, 0, 0, 0 -12" transform="rotate(90,716,627)"/><path d="M 710 693v 12h 12a 12 12, 0, 0, 0, -12 -12" transform="rotate(0,716,699)"/><rect x="710" y="705" width="12" height="12" transform="rotate(0,716,711)"/><path d="M 710 717v 12h 6a 6 6, 0, 0, 0, 0 -12" transform="rotate(90,716,723)"/><path d="M 710 777v 12h 6a 6 6, 0, 0, 0, 0 -12" transform="rotate(0,716,783)"/><path d="M 710 825v 12h 6a 6 6, 0, 0, 0, 0 -12" transform="rotate(0,716,831)"/><path d="M 710 873v 12h 12a 12 12, 0, 0, 0, -12 -12" transform="rotate(0,716,879)"/><path d="M 710 885v 12h 6a 6 6, 0, 0, 0, 0 -12" transform="rotate(90,716,891)"/></clipPath><clipPath id="clip-path-corners-square-color-0-0"><path clip-rule="evenodd" d="M 278 483v 24a 30 30, 0, 0, 0, 30 30h 24a 30 30, 0, 0, 0, 30 -30v -24a 30 30, 0, 0, 0, -30 -30h -24a 30 30, 0, 0, 0, -30 30M 308 465h 24a 18 18, 0, 0, 1, 18 18v 24a 18 18, 0, 0, 1, -18 18h -24a 18 18, 0, 0, 1, -18 -18v -24a 18 18, 0, 0, 1, 18 -18" transform="rotate(0,320,495)"/></clipPath><clipPath id="clip-path-corners-dot-color-0-0"><rect x="302" y="477" width="36" height="36" transform="rotate(0,320,495)"/></clipPath><clipPath id="clip-path-corners-square-color-1-0"><path clip-rule="evenodd" d="M 638 483v 24a 30 30, 0, 0, 0, 30 30h 24a 30 30, 0, 0, 0, 30 -30v -24a 30 30, 0, 0, 0, -30 -30h -24a 30 30, 0, 0, 0, -30 30M 668 465h 24a 18 18, 0, 0, 1, 18 18v 24a 18 18, 0, 0, 1, -18 18h -24a 18 18, 0, 0, 1, -18 -18v -24a 18 18, 0, 0, 1, 18 -18" transform="rotate(90,680,495)"/></clipPath><clipPath id="clip-path-corners-dot-color-1-0"><rect x="662" y="477" width="36" height="36" transform="rotate(90,680,495)"/></clipPath><clipPath id="clip-path-corners-square-color-0-1"><path clip-rule="evenodd" d="M 278 843v 24a 30 30, 0, 0, 0, 30 30h 24a 30 30, 0, 0, 0, 30 -30v -24a 30 30, 0, 0, 0, -30 -30h -24a 30 30, 0, 0, 0, -30 30M 308 825h 24a 18 18, 0, 0, 1, 18 18v 24a 18 18, 0, 0, 1, -18 18h -24a 18 18, 0, 0, 1, -18 -18v -24a 18 18, 0, 0, 1, 18 -18" transform="rotate(-90,320,855)"/></clipPath><clipPath id="clip-path-corners-dot-color-0-1"><rect x="302" y="837" width="36" height="36" transform="rotate(-90,320,855)"/></clipPath></defs><defs/><path fill="#60007a" d="M845.5,483.42v-151.2H469.88c-0.07,0.14-0.13,0.28-0.21,0.42c-6.44,11.55-14.36,21.2-24.61,29.58H815.5v121.1 L845.5,483.42z"/>
			<polygon fill="#60007a" points="815.52,1065.96 815.52,918.86 845.52,918.76 845.52,1065.96"/>
			<path fill="#60007a" d="M185.85,1021.88V362.22h110.12c-5.01-6.58-10.1-13.12-14.47-20.14c-2.05-3.29-3.92-6.56-5.63-9.86H155.85v689.65H185.85z"/>
			<path fill="#60007a" d="M793.9,1193.76H207.45c-28.5,0-51.6-23.1-51.6-51.6V995.57H845.5v146.59C845.5,1170.66,822.4,1193.76,793.9,1193.76z"/>
			<path fill="#60007a" d="M112.42,789.58c-29.16,0-70.21-26.14-70.21-84.26c0-39.83,21.83-82.36,39.38-116.53c6.76-13.18,13.16-25.63,16.82-35.23 c3.91-10.23-0.88-28.58-6.42-49.83c-9.01-34.54-21.35-81.86-9.78-140.39c10.1-51.08,36.67-89.2,78.98-113.27 c32.21-18.33,64.63-23.15,79.65-25.19c0.51-0.56,1.04-1.15,1.6-1.77c12.59-13.89,42.09-46.42,81.51-75.64 c50.34-37.32,99.13-56.24,145.02-56.24c48.39,0,94.67,15.41,133.85,44.56c29.64,22.05,44.91,44.25,45.55,45.19 c4.66,6.85,2.89,16.18-3.96,20.84c-6.85,4.66-16.18,2.88-20.84-3.96c-0.11-0.16-13.64-19.6-39.56-38.67 c-34.24-25.19-72.94-37.96-115.04-37.96c-62.15,0-130.89,41.06-204.3,122.03c-2.73,3.01-4.53,5-5.88,6.35 c-2.26,2.26-5.17,3.73-8.33,4.22c-1.12,0.17-2.53,0.36-4.18,0.59c-76.33,10.29-121.63,48.9-134.65,114.75 c-10.24,51.79,0.64,93.49,9.38,127c7.12,27.31,12.75,48.89,5.42,68.1c-4.26,11.14-11.01,24.3-18.16,38.23 c-16.07,31.3-36.06,70.25-36.06,102.83c0,41,27.09,54.26,40.21,54.26c19.69,0,34.06-11.33,42.7-33.67 c2.99-7.73,11.67-11.57,19.4-8.58c7.73,2.99,11.57,11.67,8.58,19.4c-7.2,18.63-17.93,32.66-31.89,41.68 C139.92,785.72,126.5,789.58,112.42,789.58z"/>
			<path fill="#60007a" d="M368.57,407.74c-31.09,0-59.37-12.62-81.79-36.51c-16.56-17.64-24.19-35.46-24.51-36.21 c-3.22-7.63,0.35-16.43,7.98-19.65c7.63-3.23,16.43,0.35,19.65,7.98c0.04,0.09,6.23,14.27,19.39,28.03 c16.72,17.49,36.66,26.35,59.27,26.35c56.2,0,78.15-38.06,78.37-38.44c2.65-4.74,7.66-7.67,13.09-7.67h340.49 c6.13-20.2,6.29-41.46,0.39-62.06c-8.1-28.3-26.74-51.75-52.47-66.04c-25.74-14.28-55.5-17.69-83.8-9.59 c-17.64,5.05-33.84,14.46-46.83,27.23c-5.91,5.81-15.41,5.72-21.21-0.19c-5.81-5.91-5.72-15.41,0.19-21.21 c16.55-16.26,37.17-28.25,59.6-34.67c36-10.31,73.87-5.97,106.61,12.2c32.75,18.17,56.45,48.01,66.76,84.01 c8.67,30.31,7.04,61.75-4.72,90.93c-2.29,5.67-7.79,9.39-13.91,9.39H467.9C456.5,376.53,425.8,407.74,368.57,407.74z"/>
			<path fill="#60007a" d="M340.45,250.11c-2.2,0-4.4-0.8-6.13-2.41c-3.64-3.39-3.84-9.08-0.46-12.72c33.35-35.84,84.99-78.24,141.54-76.76 c16.58,0.44,32.86,3.54,48.4,9.22c4.67,1.71,7.07,6.88,5.36,11.54c-1.71,4.67-6.87,7.07-11.54,5.36 c-13.7-5.01-28.07-7.75-42.69-8.13c-49.83-1.35-97.07,37.9-127.89,71.02C345.27,249.15,342.87,250.11,340.45,250.11z"/>
			<path fill="#60007a" d="M925.1,948.81h-94.01v-30h94.01c24.57,0,44.56-19.99,44.56-44.56v-346.3c0-24.57-19.99-44.56-44.56-44.56h-94.01v-30h94.01 c41.11,0,74.56,33.45,74.56,74.56v346.3C999.67,915.36,966.22,948.81,925.1,948.81z"/>
			<path fill="#60007a" d="M905.92,868.06h-89.83V534.13h89.83c14.36,0,26.04,11.68,26.04,26.04v281.85C931.97,856.38,920.28,868.06,905.92,868.06z M846.09,838.06h55.87V564.13h-55.87V838.06z"/>
			<text fill="#ffffff" font-size="90" x="50%" y="1097" dominant-baseline="middle" text-anchor="middle" font-family="sans-serif">Party Lists!</text><rect x="234" y="409" height="532" width="532" clip-path="url('#clip-path-background-color')" fill="#ffffff"/><rect x="278" y="453" height="444" width="444" clip-path="url('#clip-path-dot-color')" fill="#660f05"/><rect x="278" y="453" height="84" width="84" clip-path="url('#clip-path-corners-square-color-0-0')" fill="#660f05"/><rect x="302" y="477" height="36" width="36" clip-path="url('#clip-path-corners-dot-color-0-0')" fill="#660f05"/><rect x="638" y="453" height="84" width="84" clip-path="url('#clip-path-corners-square-color-1-0')" fill="#660f05"/><rect x="662" y="477" height="36" width="36" clip-path="url('#clip-path-corners-dot-color-1-0')" fill="#660f05"/><rect x="278" y="813" height="84" width="84" clip-path="url('#clip-path-corners-square-color-0-1')" fill="#660f05"/><rect x="302" y="837" height="36" width="36" clip-path="url('#clip-path-corners-dot-color-0-1')" fill="#660f05"/></svg>