<?xml version="1.0" standalone="no"?>
<svg xmlns="http://www.w3.org/2000/svg" width="1000" height="1300" viewBox="0 0 1000 1300"><defs><clipPath id="clip-path-dot-color"><path d="M 269 570v 14h 7a 7 7, 0, 0, 0, 0 -14" transform="rotate(-90,276,577)"/><rect x="269" y="584" width="14" height="14" transform="rotate(0,276,591)"/><path d="M 269 598v 14h 14v -7a 7 7, 0, 0, 0, -7 -7" transform="rotate(180,276,605)"/><circle cx="276" cy="661" r="7" transform="rotate(0,276,661)"/><path d="M 269 682v 14h 14v -7a 7 7, 0, 0, 0, -7 -7" transform="rotate(-90,276,689)"/><path d="M 269 696v 14h 7a 7 7, 0, 0, 0, 0 -14" transform="rotate(90,276,703)"/><path d="M 269 738v 14h 14v -7a 7 7, 0, 0, 0, -7 -7" transform="rotate(-90,276,745)"/><rect x="269" y="752" width="14" height="14" transform="rotate(0,276,759)"/><path d="M 269 766v 14h 7a 7 7, 0, 0, 0, 0 -14" transform="rotate(90,276,773)"/><rect x="283" y="584" width="14" height="14" transform="rotate(0,290,591)"/><path d="M 283 598v 14h 14v -7a 7 7, 0, 0, 0, -7 -7" transform="rotate(90,290,605)"/><path d="M 283 640v 14h 7a 7 7, 0, 0, 0, 0 -14" transform="rotate(180,290,647)"/><path d="M 283 668v 14h 7a 7 7, 0, 0, 0, 0 -14" transform="rotate(-90,290,675)"/><path d="M 283 682v 14h 14v -7a 7 7, 0, 0, 0, -7 -7" transform="rotate(90,290,689)"/><path d="M 283 710v 14h 14v -7a 7 7, 0, 0, 0, -7 -7" transform="rotate(-90,290,717)"/><rect x="283" y="724" width="14" height="14" transform="rotate(0,290,731)"/><rect x="283" y="738" width="14" height="14" transform="rotate(0,290,745)"/><rect x="283" y="752" width="14" height="14" transform="rotate(0,290,759)"/><path d="M 283 780v 14h 7a 7 7, 0, 0, 0, 0 -14" transform="rotate(180,290,787)"/><circle cx="304" cy="563" r="7" transform="rotate(0,304,563)"/><rect x="297" y="584" width="14" height="14" transform="rotate(0,304,591)"/><path d="M 297 626v 14h 14v -7a 7 7, 0, 0, 0, -7 -7" transform="rotate(-90,304,633)"/><rect x="297" y="640" width="14" height="14" transform="rotate(0,304,647)"/><path d="M 297 710v 14h 14v -7a 7 7, 0, 0, 0, -7 -7" transform="rotate(0,304,717)"/><rect x="297" y="724" width="14" height="14" transform="rotate(0,304,731)"/><path d="M 297 752v 14h 14v -7a 7 7, 0, 0, 0, -7 -7" transform="rotate(0,304,759)"/><rect x="297" y="766" width="14" height="14" transform="rotate(0,304,773)"/><rect x="297" y="780" width="14" height="14" transform="rotate(0,304,787)"/><path d="M 311 570v 14h 7a 7 7, 0, 0, 0, 0 -14" transform="rotate(-90,318,577)"/><rect x="311" y="584" width="14" height="14" transform="rotate(0,318,591)"/><path d="M 311 612v 14h 14v -7a 7 7, 0, 0, 0, -7 -7" transform="rotate(-90,318,619)"/><rect x="311" y="626" width="14" height="14" transform="rotate(0,318,633)"/><rect x="311" y="640" width="14" height="14" transform="rotate(0,318,647)"/><path d="M 311 668v 14h 14v -7a 7 7, 0, 0, 0, -7 -7" transform="rotate(-90,318,675)"/><rect x="311" y="682" width="14" height="14" transform="rotate(0,318,689)"/><path d="M 311 696v 14h 14v -7a 7 7, 0, 0, 0, -7 -7" transform="rotate(180,318,703)"/><rect x="311" y="724" width="14" height="14" transform="rotate(0,318,731)"/><path d="M 311 738v 14h 14v -7a 7 7, 0, 0, 0, -7 -7" transform="rotate(180,318,745)"/><rect x="311" y="780" width="14" height="14" transform="rotate(0,318,787)"/><path d="M 325 556v 14h 7a 7 7, 0, 0, 0, 0 -14" transform="rotate(180,332,563)"/><path d="M 325 584v 14h 14v -7a 7 7, 0, 0, 0, -7 -7" transform="rotate(0,332,591)"/><rect x="325" y="598" width="14" height="14" transform="rotate(0,332,605)"/><rect x="325" y="612" width="14" height="14" transform="rotate(0,332,619)"/><rect x="325" y="626" width="14" height="14" transform="rotate(0,332,633)"/><rect x="325" y="640" width="14" height="14" transform="rotate(0,332,647)"/><rect x="325" y="654" width="14" height="14" transform="rotate(0,332,661)"/><path d="M 325 668v 14h 14v -7a 7 7, 0, 0, 0, -7 -7" transform="rotate(90,332,675)"/><path d="M 325 696v 14h 14v -7a 7 7, 0, 0, 0, -7 -7" transform="rotate(0,332,703)"/><rect x="325" y="710" width="14" height="14" transform="rotate(0,332,717)"/><rect x="325" y="724" width="14" height="14" transform="rotate(0,332,731)"/><path d="M 325 738v 14h 14v -7a 7 7, 0, 0, 0, -7 -7" transform="rotate(90,332,745)"/><path d="M 325 780v 14h 7a 7 7, 0, 0, 0, 0 -14" transform="rotate(0,332,787)"/><rect x="339" y="556" width="14" height="14" transform="rotate(0,346,563)"/><path d="M 339 570v 14h 7a 7 7, 0, 0, 0, 0 -14" transform="rotate(90,346,577)"/><rect x="339" y="612" width="14" height="14" transform="rotate(0,346,619)"/><path d="M 339 654v 14h 7a 7 7, 0, 0, 0, 0 -14" transform="rotate(0,346,661)"/><path d="M 339 710v 14h 7a 7 7, 0, 0, 0, 0 -14" transform="rotate(0,346,717)"/><path d="M 353 556v 14h 7a 7 7, 0, 0, 0, 0 -14" transform="rotate(0,360,563)"/><circle cx="360" cy="591" r="7" transform="rotate(0,360,591)"/><rect x="353" y="612" width="14" height="14" transform="rotate(0,360,619)"/><circle cx="360" cy="647" r="7" transform="rotate(0,360,647)"/><circle cx="360" cy="675" r="7" transform="rotate(0,360,675)"/><path d="M 353 696v 14h 7a 7 7, 0, 0, 0, 0 -14" transform="rotate(180,360,703)"/><circle cx="360" cy="731" r="7" transform="rotate(0,360,731)"/><circle cx="360" cy="759" r="7" transform="rotate(0,360,759)"/><circle cx="360" cy="787" r="7" transform="rotate(0,360,787)"/><path d="M 367 598v 14h 14v -7a 7 7, 0, 0, 0, -7 -7" transform="rotate(-90,374,605)"/><rect x="367" y="612" width="14" height="14" transform="rotate(0,374,619)"/><path d="M 367 654v 14h 7a 7 7, 0, 0, 0, 0 -14" transform="rotate(180,374,661)"/><path d="M 367 682v 14h 14v -7a 7 7, 0, 0, 0, -7 -7" transform="rotate(-90,374,689)"/><path d="M 367 696v 14h 14v -7a 7 7, 0, 0, 0, -7 -7" transform="rotate(90,374,703)"/><path d="M 367 738v 14h 7a 7 7, 0, 0, 0, 0 -14" transform="rotate(180,374,745)"/><circle cx="374" cy="773" r="7" transform="rotate(0,374,773)"/><path d="M 381 458v 14h 7a 7 7, 0, 0, 0, 0 -14" transform="rotate(180,388,465)"/><path d="M 381 500v 14h 7a 7 7, 0, 0, 0, 0 -14" transform="rotate(180,388,507)"/><circle cx="388" cy="535" r="7" transform="rotate(0,388,535)"/><path d="M 381 556v 14h 14v -7a 7 7, 0, 0, 0, -7 -7" transform="rotate(-90,388,563)"/><rect x="381" y="570" width="14" height="14" transform="rotate(0,388,577)"/><rect x="381" y="584" width="14" height="14" transform="rotate(0,388,591)"/><rect x="381" y="598" width="14" height="14" transform="rotate(0,388,605)"/><rect x="381" y="612" width="14" height="14" transform="rotate(0,388,619)"/><path d="M 381 640v 14h 7a 7 7, 0, 0, 0, 0 -14" transform="rotate(-90,388,647)"/><rect x="381" y="654" width="14" height="14" transform="rotate(0,388,661)"/><rect x="381" y="668" width="14" height="14" transform="rotate(0,388,675)"/><path d="M 381 682v 14h 14v -7a 7 7, 0, 0, 0, -7 -7" transform="rotate(90,388,689)"/><path d="M 381 710v 14h 7a 7 7, 0, 0, 0, 0 -14" transform="rotate(-90,388,717)"/><rect x="381" y="724" width="14" height="14" transform="rotate(0,388,731)"/><path d="M 381 738v 14h 14v -7a 7 7, 0, 0, 0, -7 -7" transform="rotate(90,388,745)"/><path d="M 381 780v 14h 7a 7 7, 0, 0, 0, 0 -14" transform="rotate(-90,388,787)"/><path d="M 381 794v 14h 14v -7a 7 7, 0, 0, 0, -7 -7" transform="rotate(180,388,801)"/><path d="M 381 822v 14h 7a 7 7, 0, 0, 0, 0 -14" transform="rotate(-90,388,829)"/><path d="M 381 836v 14h 7a 7 7, 0, 0, 0, 0 -14" transform="rotate(90,388,843)"/><path d="M 381 864v 14h 7a 7 7, 0, 0, 0, 0 -14" transform="rotate(180,388,871)"/><path d="M 395 458v 14h 14v -7a 7 7, 0, 0, 0, -7 -7" transform="rotate(0,402,465)"/><rect x="395" y="472" width="14" height="14" transform="rotate(0,402,479)"/><rect x="395" y="486" width="14" height="14" transform="rotate(0,402,493)"/><path d="M 395 500v 14h 14v -7a 7 7, 0, 0, 0, -7 -7" transform="rotate(90,402,507)"/><path d="M 395 556v 14h 7a 7 7, 0, 0, 0, 0 -14" transform="rotate(0,402,563)"/><path d="M 395 598v 14h 14v -7a 7 7, 0, 0, 0, -7 -7" transform="rotate(0,402,605)"/><rect x="395" y="612" width="14" height="14" transform="rotate(0,402,619)"/><path d="M 395 626v 14h 7a 7 7, 0, 0, 0, 0 -14" transform="rotate(90,402,633)"/><path d="M 395 654v 14h 7a 7 7, 0, 0, 0, 0 -14" transform="rotate(0,402,661)"/><path d="M 395 766v 14h 7a 7 7, 0, 0, 0, 0 -14" transform="rotate(180,402,773)"/><rect x="395" y="794" width="14" height="14" transform="rotate(0,402,801)"/><path d="M 395 850v 14h 14v -7a 7 7, 0, 0, 0, -7 -7" transform="rotate(-90,402,857)"/><rect x="395" y="864" width="14" height="14" transform="rotate(0,402,871)"/><path d="M 395 878v 14h 14v -7a 7 7, 0, 0, 0, -7 -7" transform="rotate(180,402,885)"/><path d="M 409 444v 14h 7a 7 7, 0, 0, 0, 0 -14" transform="rotate(180,416,451)"/><path d="M 409 472v 14h 14v -7a 7 7, 0, 0, 0, -7 -7" transform="rotate(0,416,479)"/><path d="M 409 486v 14h 14v -7a 7 7, 0, 0, 0, -7 -7" transform="rotate(90,416,493)"/><path d="M 409 514v 14h 7a 7 7, 0, 0, 0, 0 -14" transform="rotate(-90,416,521)"/><rect x="409" y="528" width="14" height="14" transform="rotate(0,416,535)"/><path d="M 409 542v 14h 14v -7a 7 7, 0, 0, 0, -7 -7" transform="rotate(180,416,549)"/><circle cx="416" cy="577" r="7" transform="rotate(0,416,577)"/><path d="M 409 612v 14h 7a 7 7, 0, 0, 0, 0 -14" transform="rotate(0,416,619)"/><circle cx="416" cy="647" r="7" transform="rotate(0,416,647)"/><path d="M 409 668v 14h 14v -7a 7 7, 0, 0, 0, -7 -7" transform="rotate(-90,416,675)"/><path d="M 409 682v 14h 14v -7a 7 7, 0, 0, 0, -7 -7" transform="rotate(180,416,689)"/><path d="M 409 738v 14h 14v -7a 7 7, 0, 0, 0, -7 -7" transform="rotate(-90,416,745)"/><rect x="409" y="752" width="14" height="14" transform="rotate(0,416,759)"/><path d="M 409 766v 14h 14v -7a 7 7, 0, 0, 0, -7 -7" transform="rotate(90,416,773)"/><path d="M 409 794v 14h 7a 7 7, 0, 0, 0, 0 -14" transform="rotate(0,416,801)"/><path d="M 409 850v 14h 7a 7 7, 0, 0, 0, 0 -14" transform="rotate(0,416,857)"/><path d="M 409 878v 14h 7a 7 7, 0, 0, 0, 0 -14" transform="rotate(0,416,885)"/><rect x="423" y="444" width="14" height="14" transform="rotate(0,430,451)"/><path d="M 423 458v 14h 7a 7 7, 0, 0, 0, 0 -14" transform="rotate(90,430,465)"/><circle cx="430" cy="507" r="7" transform="rotate(0,430,507)"/><path d="M 423 542v 14h 14v -7a 7 7, 0, 0, 0, -7 -7" transform="rotate(0,430,549)"/><path d="M 423 556v 14h 7a 7 7, 0, 0, 0, 0 -14" transform="rotate(90,430,563)"/><path d="M 423 584v 14h 14v -7a 7 7, 0, 0, 0, -7 -7" transform="rotate(-90,430,591)"/><path d="M 423 598v 14h 14v -7a 7 7, 0, 0, 0, -7 -7" transform="rotate(180,430,605)"/><path d="M 423 626v 14h 7a 7 7, 0, 0, 0, 0 -14" transform="rotate(180,430,633)"/><rect x="423" y="668" width="14" height="14" transform="rotate(0,430,675)"/><rect x="423" y="682" width="14" height="14" transform="rotate(0,430,689)"/><rect x="423" y="696" width="14" height="14" transform="rotate(0,430,703)"/><rect x="423" y="710" width="14" height="14" transform="rotate(0,430,717)"/><rect x="423" y="724" width="14" height="14" transform="rotate(0,430,731)"/><path d="M 423 738v 14h 14v -7a 7 7, 0, 0, 0, -7 -7" transform="rotate(90,430,745)"/><path d="M 423 780v 14h 7a 7 7, 0, 0, 0, 0 -14" transform="rotate(180,430,787)"/><circle cx="430" cy="899" r="7" transform="rotate(0,430,899)"/><path d="M 437 444v 14h 7a 7 7, 0, 0, 0, 0 -14" transform="rotate(0,444,451)"/><path d="M 437 472v 14h 7a 7 7, 0, 0, 0, 0 -14" transform="rotate(180,444,479)"/><path d="M 437 514v 14h 14v -7a 7 7, 0, 0, 0, -7 -7" transform="rotate(-90,444,521)"/><path d="M 437 528v 14h 7a 7 7, 0, 0, 0, 0 -14" transform="rotate(90,444,535)"/><rect x="437" y="584" width="14" height="14" transform="rotate(0,444,591)"/><rect x="437" y="598" width="14" height="14" transform="rotate(0,444,605)"/><rect x="437" y="612" width="14" height="14" transform="rotate(0,444,619)"/><rect x="437" y="626" width="14" height="14" transform="rotate(0,444,633)"/><rect x="437" y="640" width="14" height="14" transform="rotate(0,444,647)"/><rect x="437" y="654" width="14" height="14" transform="rotate(0,444,661)"/><path d="M 437 668v 14h 14v -7a 7 7, 0, 0, 0, -7 -7" transform="rotate(90,444,675)"/><path d="M 437 696v 14h 7a 7 7, 0, 0, 0, 0 -14" transform="rotate(0,444,703)"/><path d="M 437 724v 14h 7a 7 7, 0, 0, 0, 0 -14" transform="rotate(0,444,731)"/><path d="M 437 766v 14h 7a 7 7, 0, 0, 0, 0 -14" transform="rotate(-90,444,773)"/><path d="M 437 780v 14h 14v -7a 7 7, 0, 0, 0, -7 -7" transform="rotate(90,444,787)"/><path d="M 437 808v 14h 7a 7 7, 0, 0, 0, 0 -14" transform="rotate(-90,444,815)"/><rect x="437" y="822" width="14" height="14" transform="rotate(0,444,829)"/><rect x="437" y="836" width="14" height="14" transform="rotate(0,444,843)"/><path d="M 437 850v 14h 7a 7 7, 0, 0, 0, 0 -14" transform="rotate(90,444,857)"/><path d="M 451 472v 14h 7a 7 7, 0, 0, 0, 0 -14" transform="rotate(0,458,479)"/><path d="M 451 500v 14h 14v -7a 7 7, 0, 0, 0, -7 -7" transform="rotate(-90,458,507)"/><rect x="451" y="514" width="14" height="14" transform="rotate(0,458,521)"/><path d="M 451 570v 14h 14v -7a 7 7, 0, 0, 0, -7 -7" transform="rotate(-90,458,577)"/><path d="M 451 584v 14h 14v -7a 7 7, 0, 0, 0, -7 -7" transform="rotate(90,458,591)"/><rect x="451" y="612" width="14" height="14" transform="rotate(0,458,619)"/><path d="M 451 626v 14h 14v -7a 7 7, 0, 0, 0, -7 -7" transform="rotate(90,458,633)"/><path d="M 451 654v 14h 7a 7 7, 0, 0, 0, 0 -14" transform="rotate(0,458,661)"/><circle cx="458" cy="689" r="7" transform="rotate(0,458,689)"/><path d="M 451 710v 14h 7a 7 7, 0, 0, 0, 0 -14" transform="rotate(180,458,717)"/><path d="M 451 738v 14h 7a 7 7, 0, 0, 0, 0 -14" transform="rotate(-90,458,745)"/><path d="M 451 752v 14h 7a 7 7, 0, 0, 0, 0 -14" transform="rotate(90,458,759)"/><path d="M 451 794v 14h 7a 7 7, 0, 0, 0, 0 -14" transform="rotate(180,458,801)"/><rect x="451" y="822" width="14" height="14" transform="rotate(0,458,829)"/><path d="M 451 864v 14h 7a 7 7, 0, 0, 0, 0 -14" transform="rotate(180,458,871)"/><circle cx="472" cy="451" r="7" transform="rotate(0,472,451)"/><rect x="465" y="500" width="14" height="14" transform="rotate(0,472,507)"/><rect x="465" y="514" width="14" height="14" transform="rotate(0,472,521)"/><rect x="465" y="528" width="14" height="14" transform="rotate(0,472,535)"/><rect x="465" y="542" width="14" height="14" transform="rotate(0,472,549)"/><rect x="465" y="556" width="14" height="14" transform="rotate(0,472,563)"/><path d="M 465 570v 14h 14v -7a 7 7, 0, 0, 0, -7 -7" transform="rotate(90,472,577)"/><path d="M 465 598v 14h 14v -7a 7 7, 0, 0, 0, -7 -7" transform="rotate(-90,472,605)"/><path d="M 465 612v 14h 14v -7a 7 7, 0, 0, 0, -7 -7" transform="rotate(90,472,619)"/><circle cx="472" cy="675" r="7" transform="rotate(0,472,675)"/><path d="M 465 696v 14h 7a 7 7, 0, 0, 0, 0 -14" transform="rotate(-90,472,703)"/><rect x="465" y="710" width="14" height="14" transform="rotate(0,472,717)"/><rect x="465" y="794" width="14" height="14" transform="rotate(0,472,801)"/><rect x="465" y="808" width="14" height="14" transform="rotate(0,472,815)"/><rect x="465" y="822" width="14" height="14" transform="rotate(0,472,829)"/><path d="M 465 864v 14h 14v -7a 7 7, 0, 0, 0, -7 -7" transform="rotate(0,472,871)"/><path d="M 465 878v 14h 7a 7 7, 0, 0, 0, 0 -14" transform="rotate(90,472,885)"/><path d="M 479 472v 14h 7a 7 7, 0, 0, 0, 0 -14" transform="rotate(-90,486,479)"/><rect x="479" y="486" width="14" height="14" transform="rotate(0,486,493)"/><rect x="479" y="500" width="14" height="14" transform="rotate(0,486,507)"/><path d="M 479 542v 14h 14v -7a 7 7, 0, 0, 0, -7 -7" transform="rotate(0,486,549)"/><path d="M 479 556v 14h 14v -7a 7 7, 0, 0, 0, -7 -7" transform="rotate(90,486,563)"/><path d="M 479 598v 14h 7a 7 7, 0, 0, 0, 0 -14" transform="rotate(0,486,605)"/><path d="M 479 626v 14h 7a 7 7, 0, 0, 0, 0 -14" transform="rotate(-90,486,633)"/><path d="M 479 640v 14h 7a 7 7, 0, 0, 0, 0 -14" transform="rotate(90,486,647)"/><circle cx="486" cy="689" r="7" transform="rotate(0,486,689)"/><path d="M 479 710v 14h 14v -7a 7 7, 0, 0, 0, -7 -7" transform="rotate(0,486,717)"/><rect x="479" y="724" width="14" height="14" transform="rotate(0,486,731)"/><path d="M 479 738v 14h 14v -7a 7 7, 0, 0, 0, -7 -7" transform="rotate(180,486,745)"/><path d="M 479 780v 14h 14v -7a 7 7, 0, 0, 0, -7 -7" transform="rotate(-90,486,787)"/><rect x="479" y="794" width="14" height="14" transform="rotate(0,486,801)"/><rect x="479" y="808" width="14" height="14" transform="rotate(0,486,815)"/><rect x="479" y="822" width="14" height="14" transform="rotate(0,486,829)"/><path d="M 479 836v 14h 14v -7a 7 7, 0, 0, 0, -7 -7" transform="rotate(180,486,843)"/><rect x="493" y="500" width="14" height="14" transform="rotate(0,500,507)"/><circle cx="500" cy="535" r="7" transform="rotate(0,500,535)"/><path d="M 493 570v 14h 7a 7 7, 0, 0, 0, 0 -14" transform="rotate(-90,500,577)"/><path d="M 493 584v 14h 7a 7 7, 0, 0, 0, 0 -14" transform="rotate(90,500,591)"/><path d="M 493 654v 14h 7a 7 7, 0, 0, 0, 0 -14" transform="rotate(180,500,661)"/><circle cx="500" cy="703" r="7" transform="rotate(0,500,703)"/><path d="M 493 724v 14h 14v -7a 7 7, 0, 0, 0, -7 -7" transform="rotate(0,500,731)"/><rect x="493" y="738" width="14" height="14" transform="rotate(0,500,745)"/><rect x="493" y="752" width="14" height="14" transform="rotate(0,500,759)"/><rect x="493" y="766" width="14" height="14" transform="rotate(0,500,773)"/><rect x="493" y="780" width="14" height="14" transform="rotate(0,500,787)"/><path d="M 493 808v 14h 7a 7 7, 0, 0, 0, 0 -14" transform="rotate(0,500,815)"/><path d="M 493 836v 14h 7a 7 7, 0, 0, 0, 0 -14" transform="rotate(0,500,843)"/><path d="M 493 878v 14h 7a 7 7, 0, 0, 0, 0 -14" transform="rotate(180,500,885)"/><path d="M 507 458v 14h 7a 7 7, 0, 0, 0, 0 -14" transform="rotate(-90,514,465)"/><path d="M 507 472v 14h 14v -7a 7 7, 0, 0, 0, -7 -7" transform="rotate(180,514,479)"/><path d="M 507 500v 14h 14v -7a 7 7, 0, 0, 0, -7 -7" transform="rotate(0,514,507)"/><path d="M 507 514v 14h 7a 7 7, 0, 0, 0, 0 -14" transform="rotate(90,514,521)"/><path d="M 507 598v 14h 7a 7 7, 0, 0, 0, 0 -14" transform="rotate(180,514,605)"/><rect x="507" y="654" width="14" height="14" transform="rotate(0,514,661)"/><circle cx="514" cy="689" r="7" transform="rotate(0,514,689)"/><path d="M 507 738v 14h 7a 7 7, 0, 0, 0, 0 -14" transform="rotate(0,514,745)"/><rect x="507" y="766" width="14" height="14" transform="rotate(0,514,773)"/><rect x="507" y="780" width="14" height="14" transform="rotate(0,514,787)"/><path d="M 507 794v 14h 7a 7 7, 0, 0, 0, 0 -14" transform="rotate(90,514,801)"/><path d="M 507 850v 14h 14v -7a 7 7, 0, 0, 0, -7 -7" transform="rotate(-90,514,857)"/><rect x="507" y="864" width="14" height="14" transform="rotate(0,514,871)"/><rect x="507" y="878" width="14" height="14" transform="rotate(0,514,885)"/><path d="M 521 444v 14h 7a 7 7, 0, 0, 0, 0 -14" transform="rotate(180,528,451)"/><path d="M 521 472v 14h 7a 7 7, 0, 0, 0, 0 -14" transform="rotate(0,528,479)"/><circle cx="528" cy="535" r="7" transform="rotate(0,528,535)"/><path d="M 521 556v 14h 14v -7a 7 7, 0, 0, 0, -7 -7" transform="rotate(-90,528,563)"/><path d="M 521 570v 14h 7a 7 7, 0, 0, 0, 0 -14" transform="rotate(90,528,577)"/><path d="M 521 598v 14h 7a 7 7, 0, 0, 0, 0 -14" transform="rotate(0,528,605)"/><path d="M 521 640v 14h 7a 7 7, 0, 0, 0, 0 -14" transform="rotate(-90,528,647)"/><rect x="521" y="654" width="14" height="14" transform="rotate(0,528,661)"/><path d="M 521 668v 14h 7a 7 7, 0, 0, 0, 0 -14" transform="rotate(90,528,675)"/><path d="M 521 724v 14h 7a 7 7, 0, 0, 0, 0 -14" transform="rotate(180,528,731)"/><rect x="521" y="766" width="14" height="14" transform="rotate(0,528,773)"/><path d="M 521 808v 14h 7a 7 7, 0, 0, 0, 0 -14" transform="rotate(-90,528,815)"/><path d="M 521 822v 14h 14v -7a 7 7, 0, 0, 0, -7 -7" transform="rotate(180,528,829)"/><path d="M 521 850v 14h 7a 7 7, 0, 0, 0, 0 -14" transform="rotate(0,528,857)"/><rect x="521" y="878" width="14" height="14" transform="rotate(0,528,885)"/><path d="M 535 444v 14h 14v -7a 7 7, 0, 0, 0, -7 -7" transform="rotate(0,542,451)"/><path d="M 535 458v 14h 7a 7 7, 0, 0, 0, 0 -14" transform="rotate(90,542,465)"/><path d="M 535 486v 14h 7a 7 7, 0, 0, 0, 0 -14" transform="rotate(180,542,493)"/><path d="M 535 514v 14h 7a 7 7, 0, 0, 0, 0 -14" transform="rotate(180,542,521)"/><rect x="535" y="556" width="14" height="14" transform="rotate(0,542,563)"/><circle cx="542" cy="591" r="7" transform="rotate(0,542,591)"/><path d="M 535 626v 14h 7a 7 7, 0, 0, 0, 0 -14" transform="rotate(180,542,633)"/><rect x="535" y="654" width="14" height="14" transform="rotate(0,542,661)"/><circle cx="542" cy="689" r="7" transform="rotate(0,542,689)"/><path d="M 535 710v 14h 7a 7 7, 0, 0, 0, 0 -14" transform="rotate(-90,542,717)"/><path d="M 535 724v 14h 14v -7a 7 7, 0, 0, 0, -7 -7" transform="rotate(90,542,731)"/><path d="M 535 752v 14h 14v -7a 7 7, 0, 0, 0, -7 -7" transform="rotate(-90,542,759)"/><rect x="535" y="766" width="14" height="14" transform="rotate(0,542,773)"/><rect x="535" y="780" width="14" height="14" transform="rotate(0,542,787)"/><path d="M 535 794v 14h 7a 7 7, 0, 0, 0, 0 -14" transform="rotate(90,542,801)"/><rect x="535" y="822" width="14" height="14" transform="rotate(0,542,829)"/><path d="M 535 878v 14h 7a 7 7, 0, 0, 0, 0 -14" transform="rotate(0,542,885)"/><rect x="549" y="486" width="14" height="14" transform="rotate(0,556,493)"/><rect x="549" y="500" width="14" height="14" transform="rotate(0,556,507)"/><rect x="549" y="514" width="14" height="14" transform="rotate(0,556,521)"/><rect x="549" y="528" width="14" height="14" transform="rotate(0,556,535)"/><rect x="549" y="542" width="14" height="14" transform="rotate(0,556,549)"/><rect x="549" y="556" width="14" height="14" transform="rotate(0,556,563)"/><path d="M 549 612v 14h 7a 7 7, 0, 0, 0, 0 -14" transform="rotate(-90,556,619)"/><rect x="549" y="626" width="14" height="14" transform="rotate(0,556,633)"/><rect x="549" y="640" width="14" height="14" transform="rotate(0,556,647)"/><path d="M 549 654v 14h 14v -7a 7 7, 0, 0, 0, -7 -7" transform="rotate(90,556,661)"/><circle cx="556" cy="703" r="7" transform="rotate(0,556,703)"/><path d="M 549 752v 14h 7a 7 7, 0, 0, 0, 0 -14" transform="rotate(0,556,759)"/><rect x="549" y="780" width="14" height="14" transform="rotate(0,556,787)"/><path d="M 549 808v 14h 7a 7 7, 0, 0, 0, 0 -14" transform="rotate(-90,556,815)"/><rect x="549" y="822" width="14" height="14" transform="rotate(0,556,829)"/><rect x="549" y="836" width="14" height="14" transform="rotate(0,556,843)"/><path d="M 549 850v 14h 14v -7a 7 7, 0, 0, 0, -7 -7" transform="rotate(180,556,857)"/><circle cx="556" cy="899" r="7" transform="rotate(0,556,899)"/><circle cx="570" cy="451" r="7" transform="rotate(0,570,451)"/><path d="M 563 472v 14h 7a 7 7, 0, 0, 0, 0 -14" transform="rotate(-90,570,479)"/><path d="M 563 486v 14h 14v -7a 7 7, 0, 0, 0, -7 -7" transform="rotate(90,570,493)"/><rect x="563" y="514" width="14" height="14" transform="rotate(0,570,521)"/><path d="M 563 542v 14h 14v -7a 7 7, 0, 0, 0, -7 -7" transform="rotate(0,570,549)"/><rect x="563" y="556" width="14" height="14" transform="rotate(0,570,563)"/><path d="M 563 570v 14h 14v -7a 7 7, 0, 0, 0, -7 -7" transform="rotate(180,570,577)"/><path d="M 563 626v 14h 7a 7 7, 0, 0, 0, 0 -14" transform="rotate(0,570,633)"/><path d="M 563 668v 14h 14v -7a 7 7, 0, 0, 0, -7 -7" transform="rotate(-90,570,675)"/><path d="M 563 682v 14h 14v -7a 7 7, 0, 0, 0, -7 -7" transform="rotate(180,570,689)"/><path d="M 563 710v 14h 7a 7 7, 0, 0, 0, 0 -14" transform="rotate(-90,570,717)"/><rect x="563" y="724" width="14" height="14" transform="rotate(0,570,731)"/><path d="M 563 738v 14h 14v -7a 7 7, 0, 0, 0, -7 -7" transform="rotate(180,570,745)"/><rect x="563" y="780" width="14" height="14" transform="rotate(0,570,787)"/><path d="M 563 794v 14h 7a 7 7, 0, 0, 0, 0 -14" transform="rotate(90,570,801)"/><path d="M 563 822v 14h 7a 7 7, 0, 0, 0, 0 -14" transform="rotate(0,570,829)"/><path d="M 563 850v 14h 14v -7a 7 7, 0, 0, 0, -7 -7" transform="rotate(0,570,857)"/><rect x="563" y="864" width="14" height="14" transform="rotate(0,570,871)"/><path d="M 563 878v 14h 14v -7a 7 7, 0, 0, 0, -7 -7" transform="rotate(180,570,885)"/><path d="M 577 514v 14h 14v -7a 7 7, 0, 0, 0, -7 -7" transform="rotate(0,584,521)"/><path d="M 577 528v 14h 7a 7 7, 0, 0, 0, 0 -14" transform="rotate(90,584,535)"/><rect x="577" y="570" width="14" height="14" transform="rotate(0,584,577)"/><path d="M 577 598v 14h 7a 7 7, 0, 0, 0, 0 -14" transform="rotate(-90,584,605)"/><path d="M 577 612v 14h 14v -7a 7 7, 0, 0, 0, -7 -7" transform="rotate(180,584,619)"/><path d="M 577 654v 14h 7a 7 7, 0, 0, 0, 0 -14" transform="rotate(-90,584,661)"/><rect x="577" y="668" width="14" height="14" transform="rotate(0,584,675)"/><rect x="577" y="682" width="14" height="14" transform="rotate(0,584,689)"/><path d="M 577 696v 14h 7a 7 7, 0, 0, 0, 0 -14" transform="rotate(90,584,703)"/><path d="M 577 724v 14h 14v -7a 7 7, 0, 0, 0, -7 -7" transform="rotate(0,584,731)"/><rect x="577" y="738" width="14" height="14" transform="rotate(0,584,745)"/><path d="M 577 766v 14h 7a 7 7, 0, 0, 0, 0 -14" transform="rotate(-90,584,773)"/><path d="M 577 780v 14h 14v -7a 7 7, 0, 0, 0, -7 -7" transform="rotate(90,584,787)"/><path d="M 577 836v 14h 7a 7 7, 0, 0, 0, 0 -14" transform="rotate(180,584,843)"/><path d="M 577 878v 14h 7a 7 7, 0, 0, 0, 0 -14" transform="rotate(0,584,885)"/><path d="M 591 486v 14h 7a 7 7, 0, 0, 0, 0 -14" transform="rotate(180,598,493)"/><rect x="591" y="570" width="14" height="14" transform="rotate(0,598,577)"/><path d="M 591 584v 14h 14v -7a 7 7, 0, 0, 0, -7 -7" transform="rotate(180,598,591)"/><path d="M 591 612v 14h 7a 7 7, 0, 0, 0, 0 -14" transform="rotate(0,598,619)"/><path d="M 591 640v 14h 7a 7 7, 0, 0, 0, 0 -14" transform="rotate(180,598,647)"/><path d="M 591 668v 14h 7a 7 7, 0, 0, 0, 0 -14" transform="rotate(0,598,675)"/><rect x="591" y="738" width="14" height="14" transform="rotate(0,598,745)"/><path d="M 591 808v 14h 14v -7a 7 7, 0, 0, 0, -7 -7" transform="rotate(-90,598,815)"/><rect x="591" y="822" width="14" height="14" transform="rotate(0,598,829)"/><rect x="591" y="836" width="14" height="14" transform="rotate(0,598,843)"/><path d="M 591 892v 14h 7a 7 7, 0, 0, 0, 0 -14" transform="rotate(180,598,899)"/><path d="M 605 444v 14h 7a 7 7, 0, 0, 0, 0 -14" transform="rotate(-90,612,451)"/><rect x="605" y="458" width="14" height="14" transform="rotate(0,612,465)"/><rect x="605" y="472" width="14" height="14" transform="rotate(0,612,479)"/><path d="M 605 486v 14h 14v -7a 7 7, 0, 0, 0, -7 -7" transform="rotate(90,612,493)"/><path d="M 605 528v 14h 7a 7 7, 0, 0, 0, 0 -14" transform="rotate(-90,612,535)"/><path d="M 605 542v 14h 7a 7 7, 0, 0, 0, 0 -14" transform="rotate(90,612,549)"/><path d="M 605 570v 14h 14v -7a 7 7, 0, 0, 0, -7 -7" transform="rotate(0,612,577)"/><path d="M 605 584v 14h 14v -7a 7 7, 0, 0, 0, -7 -7" transform="rotate(90,612,591)"/><path d="M 605 626v 14h 7a 7 7, 0, 0, 0, 0 -14" transform="rotate(-90,612,633)"/><rect x="605" y="640" width="14" height="14" transform="rotate(0,612,647)"/><path d="M 605 654v 14h 7a 7 7, 0, 0, 0, 0 -14" transform="rotate(90,612,661)"/><path d="M 605 696v 14h 7a 7 7, 0, 0, 0, 0 -14" transform="rotate(-90,612,703)"/><rect x="605" y="710" width="14" height="14" transform="rotate(0,612,717)"/><rect x="605" y="724" width="14" height="14" transform="rotate(0,612,731)"/><path d="M 605 738v 14h 14v -7a 7 7, 0, 0, 0, -7 -7" transform="rotate(90,612,745)"/><path d="M 605 780v 14h 14v -7a 7 7, 0, 0, 0, -7 -7" transform="rotate(-90,612,787)"/><rect x="605" y="794" width="14" height="14" transform="rotate(0,612,801)"/><rect x="605" y="808" width="14" height="14" transform="rotate(0,612,815)"/><rect x="605" y="822" width="14" height="14" transform="rotate(0,612,829)"/><rect x="605" y="836" width="14" height="14" transform="rotate(0,612,843)"/><rect x="605" y="850" width="14" height="14" transform="rotate(0,612,857)"/><rect x="605" y="864" width="14" height="14" transform="rotate(0,612,871)"/><rect x="605" y="878" width="14" height="14" transform="rotate(0,612,885)"/><path d="M 605 892v 14h 14v -7a 7 7, 0, 0, 0, -7 -7" transform="rotate(90,612,899)"/><circle cx="626" cy="563" r="7" transform="rotate(0,626,563)"/><path d="M 619 598v 14h 7a 7 7, 0, 0, 0, 0 -14" transform="rotate(-90,626,605)"/><path d="M 619 612v 14h 14v -7a 7 7, 0, 0, 0, -7 -7" transform="rotate(180,626,619)"/><path d="M 619 640v 14h 7a 7 7, 0, 0, 0, 0 -14" transform="rotate(0,626,647)"/><circle cx="626" cy="675" r="7" transform="rotate(0,626,675)"/><path d="M 619 766v 14h 7a 7 7, 0, 0, 0, 0 -14" transform="rotate(-90,626,773)"/><rect x="619" y="780" width="14" height="14" transform="rotate(0,626,787)"/><rect x="619" y="836" width="14" height="14" transform="rotate(0,626,843)"/><path d="M 619 864v 14h 14v -7a 7 7, 0, 0, 0, -7 -7" transform="rotate(0,626,871)"/><rect x="619" y="878" width="14" height="14" transform="rotate(0,626,885)"/><circle cx="640" cy="577" r="7" transform="rotate(0,640,577)"/><path d="M 633 612v 14h 7a 7 7, 0, 0, 0, 0 -14" transform="rotate(0,640,619)"/><path d="M 633 654v 14h 7a 7 7, 0, 0, 0, 0 -14" transform="rotate(180,640,661)"/><path d="M 633 682v 14h 14v -7a 7 7, 0, 0, 0, -7 -7" transform="rotate(-90,640,689)"/><path d="M 633 696v 14h 7a 7 7, 0, 0, 0, 0 -14" transform="rotate(90,640,703)"/><path d="M 633 724v 14h 7a 7 7, 0, 0, 0, 0 -14" transform="rotate(-90,640,731)"/><rect x="633" y="738" width="14" height="14" transform="rotate(0,640,745)"/><path d="M 633 752v 14h 7a 7 7, 0, 0, 0, 0 -14" transform="rotate(90,640,759)"/><rect x="633" y="780" width="14" height="14" transform="rotate(0,640,787)"/><circle cx="640" cy="815" r="7" transform="rotate(0,640,815)"/><rect x="633" y="836" width="14" height="14" transform="rotate(0,640,843)"/><path d="M 633 850v 14h 7a 7 7, 0, 0, 0, 0 -14" transform="rotate(90,640,857)"/><path d="M 633 878v 14h 7a 7 7, 0, 0, 0, 0 -14" transform="rotate(0,640,885)"/><circle cx="654" cy="591" r="7" transform="rotate(0,654,591)"/><path d="M 647 654v 14h 14v -7a 7 7, 0, 0, 0, -7 -7" transform="rotate(0,654,661)"/><rect x="647" y="668" width="14" height="14" transform="rotate(0,654,675)"/><path d="M 647 682v 14h 14v -7a 7 7, 0, 0, 0, -7 -7" transform="rotate(90,654,689)"/><path d="M 647 710v 14h 7a 7 7, 0, 0, 0, 0 -14" transform="rotate(180,654,717)"/><path d="M 647 738v 14h 7a 7 7, 0, 0, 0, 0 -14" transform="rotate(0,654,745)"/><rect x="647" y="780" width="14" height="14" transform="rotate(0,654,787)"/><rect x="647" y="836" width="14" height="14" transform="rotate(0,654,843)"/><path d="M 647 892v 14h 7a 7 7, 0, 0, 0, 0 -14" transform="rotate(180,654,899)"/><path d="M 661 556v 14h 7a 7 7, 0, 0, 0, 0 -14" transform="rotate(-90,668,563)"/><path d="M 661 570v 14h 14v -7a 7 7, 0, 0, 0, -7 -7" transform="rotate(180,668,577)"/><circle cx="668" cy="633" r="7" transform="rotate(0,668,633)"/><path d="M 661 668v 14h 7a 7 7, 0, 0, 0, 0 -14" transform="rotate(0,668,675)"/><path d="M 661 696v 14h 14v -7a 7 7, 0, 0, 0, -7 -7" transform="rotate(-90,668,703)"/><rect x="661" y="710" width="14" height="14" transform="rotate(0,668,717)"/><path d="M 661 724v 14h 7a 7 7, 0, 0, 0, 0 -14" transform="rotate(90,668,731)"/><rect x="661" y="780" width="14" height="14" transform="rotate(0,668,787)"/><rect x="661" y="794" width="14" height="14" transform="rotate(0,668,801)"/><rect x="661" y="808" width="14" height="14" transform="rotate(0,668,815)"/><rect x="661" y="822" width="14" height="14" transform="rotate(0,668,829)"/><rect x="661" y="836" width="14" height="14" transform="rotate(0,668,843)"/><path d="M 661 850v 14h 7a 7 7, 0, 0, 0, 0 -14" transform="rotate(90,668,857)"/><path d="M 661 878v 14h 14v -7a 7 7, 0, 0, 0, -7 -7" transform="rotate(-90,668,885)"/><path d="M 661 892v 14h 14v -7a 7 7, 0, 0, 0, -7 -7" transform="rotate(90,668,899)"/><path d="M 675 570v 14h 7a 7 7, 0, 0, 0, 0 -14" transform="rotate(0,682,577)"/><path d="M 675 696v 14h 14v -7a 7 7, 0, 0, 0, -7 -7" transform="rotate(0,682,703)"/><rect x="675" y="710" width="14" height="14" transform="rotate(0,682,717)"/><path d="M 675 738v 14h 7a 7 7, 0, 0, 0, 0 -14" transform="rotate(-90,682,745)"/><rect x="675" y="752" width="14" height="14" transform="rotate(0,682,759)"/><rect x="675" y="766" width="14" height="14" transform="rotate(0,682,773)"/><rect x="675" y="780" width="14" height="14" transform="rotate(0,682,787)"/><rect x="675" y="808" width="14" height="14" transform="rotate(0,682,815)"/><rect x="675" y="822" width="14" height="14" transform="rotate(0,682,829)"/><rect x="675" y="836" width="14" height="14" transform="rotate(0,682,843)"/><path d="M 675 864v 14h 7a 7 7, 0, 0, 0, 0 -14" transform="rotate(-90,682,871)"/><path d="M 675 878v 14h 14v -7a 7 7, 0, 0, 0, -7 -7" transform="rotate(90,682,885)"/><path d="M 689 654v 14h 14v -7a 7 7, 0, 0, 0, -7 -7" transform="rotate(-90,696,661)"/><path d="M 689 668v 14h 7a 7 7, 0, 0, 0, 0 -14" transform="rotate(90,696,675)"/><rect x="689" y="710" width="14" height="14" transform="rotate(0,696,717)"/><path d="M 689 766v 14h 14v -7a 7 7, 0, 0, 0, -7 -7" transform="rotate(0,696,773)"/><rect x="689" y="780" width="14" height="14" transform="rotate(0,696,787)"/><path d="M 689 808v 14h 14v -7a 7 7, 0, 0, 0, -7 -7" transform="rotate(0,696,815)"/><rect x="689" y="822" width="14" height="14" transform="rotate(0,696,829)"/><rect x="689" y="836" width="14" height="14" transform="rotate(0,696,843)"/><path d="M 689 850v 14h 7a 7 7, 0, 0, 0, 0 -14" transform="rotate(90,696,857)"/><path d="M 703 556v 14h 7a 7 7, 0, 0, 0, 0 -14" transform="rotate(-90,710,563)"/><rect x="703" y="570" width="14" height="14" transform="rotate(0,710,577)"/><rect x="703" y="584" width="14" height="14" transform="rotate(0,710,591)"/><rect x="703" y="598" width="14" height="14" transform="rotate(0,710,605)"/><path d="M 703 612v 14h 14v -7a 7 7, 0, 0, 0, -7 -7" transform="rotate(180,710,619)"/><path d="M 703 640v 14h 7a 7 7, 0, 0, 0, 0 -14" transform="rotate(-90,710,647)"/><path d="M 703 654v 14h 14v -7a 7 7, 0, 0, 0, -7 -7" transform="rotate(90,710,661)"/><path d="M 703 682v 14h 14v -7a 7 7, 0, 0, 0, -7 -7" transform="rotate(-90,710,689)"/><rect x="703" y="696" width="14" height="14" transform="rotate(0,710,703)"/><rect x="703" y="710" width="14" height="14" transform="rotate(0,710,717)"/><rect x="703" y="724" width="14" height="14" transform="rotate(0,710,731)"/><path d="M 703 738v 14h 7a 7 7, 0, 0, 0, 0 -14" transform="rotate(90,710,745)"/><rect x="703" y="780" width="14" height="14" transform="rotate(0,710,787)"/><path d="M 703 794v 14h 7a 7 7, 0, 0, 0, 0 -14" transform="rotate(90,710,801)"/><path d="M 717 570v 14h 7a 7 7, 0, 0, 0, 0 -14" transform="rotate(0,724,577)"/><path d="M 717 598v 14h 14v -7a 7 7, 0, 0, 0, -7 -7" transform="rotate(0,724,605)"/><path d="M 717 612v 14h 14v -7a 7 7, 0, 0, 0, -7 -7" transform="rotate(90,724,619)"/><path d="M 717 668v 14h 7a 7 7, 0, 0, 0, 0 -14" transform="rotate(-90,724,675)"/><rect x="717" y="682" width="14" height="14" transform="rotate(0,724,689)"/><path d="M 717 696v 14h 14v -7a 7 7, 0, 0, 0, -7 -7" transform="rotate(90,724,703)"/><path d="M 717 724v 14h 7a 7 7, 0, 0, 0, 0 -14" transform="rotate(0,724,731)"/><path d="M 717 752v 14h 7a 7 7, 0, 0, 0, 0 -14" transform="rotate(-90,724,759)"/><rect x="717" y="766" width="14" height="14" transform="rotate(0,724,773)"/><path d="M 717 780v 14h 14v -7a 7 7, 0, 0, 0, -7 -7" transform="rotate(90,724,787)"/><circle cx="724" cy="815" r="7" transform="rotate(0,724,815)"/><circle cx="724" cy="899" r="7" transform="rotate(0,724,899)"/></clipPath><clipPath id="clip-path-corners-square-color-0-0"><path clip-rule="evenodd" d="M 269 479v 28a 35 35, 0, 0, 0, 35 35h 28a 35 35, 0, 0, 0, 35 -35v -28a 35 35, 0, 0, 0, -35 -35h -28a 35 35, 0, 0, 0, -35 35M 304 458h 28a 21 21, 0, 0, 1, 21 21v 28a 21 21, 0, 0, 1, -21 21h -28a 21 21, 0, 0, 1, -21 -21v -28a 21 21, 0, 0, 1, 21 -21" transform="rotate(0,318,493)"/></clipPath><clipPath id="clip-path-corners-dot-color-0-0"><path d="M 297 472v 14h 14v -7a 7 7, 0, 0, 0, -7 -7" transform="rotate(-90,304,479)"/><rect x="297" y="486" width="14" height="14" transform="rotate(0,304,493)"/><path d="M 297 500v 14h 14v -7a 7 7, 0, 0, 0, -7 -7" transform="rotate(180,304,507)"/><rect x="311" y="472" width="14" height="14" transform="rotate(0,318,479)"/><rect x="311" y="486" width="14" height="14" transform="rotate(0,318,493)"/><rect x="311" y="500" width="14" height="14" transform="rotate(0,318,507)"/><path d="M 325 472v 14h 14v -7a 7 7, 0, 0, 0, -7 -7" transform="rotate(0,332,479)"/><rect x="325" y="486" width="14" height="14" transform="rotate(0,332,493)"/><path d="M 325 500v 14h 14v -7a 7 7, 0, 0, 0, -7 -7" transform="rotate(90,332,507)"/></clipPath><clipPath id="clip-path-corners-square-color-1-0"><path clip-rule="evenodd" d="M 633 479v 28a 35 35, 0, 0, 0, 35 35h 28a 35 35, 0, 0, 0, 35 -35v -28a 35 35, 0, 0, 0, -35 -35h -28a 35 35, 0, 0, 0, -35 35M 668 458h 28a 21 21, 0, 0, 1, 21 21v 28a 21 21, 0, 0, 1, -21 21h -28a 21 21, 0, 0, 1, -21 -21v -28a 21 21, 0, 0, 1, 21 -21" transform="rotate(90,682,493)"/></clipPath><clipPath id="clip-path-corners-dot-color-1-0"><path d="M 661 472v 14h 14v -7a 7 7, 0, 0, 0, -7 -7" transform="rotate(-90,668,479)"/><rect x="661" y="486" width="14" height="14" transform="rotate(0,668,493)"/><path d="M 661 500v 14h 14v -7a 7 7, 0, 0, 0, -7 -7" transform="rotate(180,668,507)"/><rect x="675" y="472" width="14" height="14" transform="rotate(0,682,479)"/><rect x="675" y="486" width="14" height="14" transform="rotate(0,682,493)"/><rect x="675" y="500" width="14" height="14" transform="rotate(0,682,507)"/><path d="M 689 472v 14h 14v -7a 7 7, 0, 0, 0, -7 -7" transform="rotate(0,696,479)"/><rect x="689" y="486" width="14" height="14" transform="rotate(0,696,493)"/><path d="M 689 500v 14h 14v -7a 7 7, 0, 0, 0, -7 -7" transform="rotate(90,696,507)"/></clipPath><clipPath id="clip-path-corners-square-color-0-1"><path clip-rule="evenodd" d="M 269 843v 28a 35 35, 0, 0, 0, 35 35h 28a 35 35, 0, 0, 0, 35 -35v -28a 35 35, 0, 0, 0, -35 -35h -28a 35 35, 0, 0, 0, -35 35M 304 822h 28a 21 21, 0, 0, 1, 21 21v 28a 21 21, 0, 0, 1, -21 21h -28a 21 21, 0, 0, 1, -21 -21v -28a 21 21, 0, 0, 1, 21 -21" transform="rotate(-90,318,857)"/></clipPath><clipPath id="clip-path-corners-dot-color-0-1"><path d="M 297 836v 14h 14v -7a 7 7, 0, 0, 0, -7 -7" transform="rotate(-90,304,843)"/><rect x="297" y="850" width="14" height="14" transform="rotate(0,304,857)"/><path d="M 297 864v 14h 14v -7a 7 7, 0, 0, 0, -7 -7" transform="rotate(180,304,871)"/><rect x="311" y="836" width="14" height="14" transform="rotate(0,318,843)"/><rect x="311" y="850" width="14" height="14" transform="rotate(0,318,857)"/><rect x="311" y="864" width="14" height="14" transform="rotate(0,318,871)"/><path d="M 325 836v 14h 14v -7a 7 7, 0, 0, 0, -7 -7" transform="rotate(0,332,843)"/><rect x="325" y="850" width="14" height="14" transform="rotate(0,332,857)"/><path d="M 325 864v 14h 14v -7a 7 7, 0, 0, 0, -7 -7" transform="rotate(90,332,871)"/></clipPath></defs><defs/><path fill="#4d8cd5" d="M845.5,483.42v-151.2H469.88c-0.07,0.14-0.13,0.28-0.21,0.42c-6.44,11.55-14.36,21.2-24.61,29.58H815.5v121.1 L845.5,483.42z"/>
			<polygon fill="#4d8cd5" points="815.52,1065.96 815.52,918.86 845.52,918.76 845.52,1065.96"/>
			<path fill="#4d8cd5" d="M185.85,1021.88V362.22h110.12c-5.01-6.58-10.1-13.12-14.47-20.14c-2.05-3.29-3.92-6.56-5.63-9.86H155.85v689.65H185.85z"/>
			<path fill="#4d8cd5" d="M793.9,1193.76H207.45c-28.5,0-51.6-23.1-51.6-51.6V995.57H845.5v146.59C845.5,1170.66,822.4,1193.76,793.9,1193.76z"/>
			<path fill="#4d8cd5" d="M112.42,789.58c-29.16,0-70.21-26.14-70.21-84.26c0-39.83,21.83-82.36,39.38-116.53c6.76-13.18,13.16-25.63,16.82-35.23 c3.91-10.23-0.88-28.58-6.42-49.83c-9.01-34.54-21.35-81.86-9.78-140.39c10.1-51.08,36.67-89.2,78.98-113.27 c32.21-18.33,64.63-23.15,79.65-25.19c0.51-0.56,1.04-1.15,1.6-1.77c12.59-13.89,42.09-46.42,81.51-75.64 c50.34-37.32,99.13-56.24,145.02-56.24c48.39,0,94.67,15.41,133.85,44.56c29.64,22.05,44.91,44.25,45.55,45.19 c4.66,6.85,2.89,16.18-3.96,20.84c-6.85,4.66-16.18,2.88-20.84-3.96c-0.11-0.16-13.64-19.6-39.56-38.67 c-34.24-25.19-72.94-37.96-115.04-37.96c-62.15,0-130.89,41.06-204.3,122.03c-2.73,3.01-4.53,5-5.88,6.35 c-2.26,2.26-5.17,3.73-8.33,4.22c-1.12,0.17-2.53,0.36-4.18,0.59c-76.33,10.29-121.63,48.9-134.65,114.75 c-10.24,51.79,0.64,93.49,9.38,127c7.12,27.31,12.75,48.89,5.42,68.1c-4.26,11.14-11.01,24.3-18.16,38.23 c-16.07,31.3-36.06,70.25-36.06,102.83c0,41,27.09,54.26,40.21,54.26c19.69,0,34.06-11.33,42.7-33.67 c2.99-7.73,11.67-11.57,19.4-8.58c7.73,2.99,11.57,11.67,8.58,19.4c-7.2,18.63-17.93,32.66-31.89,41.68 C139.92,785.72,126.5,789.58,112.42,789.58z"/>
			<path fill="#4d8cd5" d="M368.57,407.74c-31.09,0-59.37-12.62-81.79-36.51c-16.56-17.64-24.19-35.46-24.51-36.21 c-3.22-7.63,0.35-16.43,7.98-19.65c7.63-3.23,16.43,0.35,19.65,7.98c0.04,0.09,6.23,14.27,19.39,28.03 c16.72,17.49,36.66,26.35,59.27,26.35c56.2,0,78.15-38.06,78.37-38.44c2.65-4.74,7.66-7.67,13.09-7.67h340.49 c6.13-20.2,6.29-41.46,0.39-62.06c-8.1-28.3-26.74-51.75-52.47-66.04c-25.74-14.28-55.5-17.69-83.8-9.59 c-17.64,5.05-33.84,14.46-46.83,27.23c-5.91,5.81-15.41,5.72-21.21-0.19c-5.81-5.91-5.72-15.41,0.19-21.21 c16.55-16.26,37.17-28.25,59.6-34.67c36-10.31,73.87-5.97,106.61,12.2c32.75,18.17,56.45,48.01,66.76,84.01 c8.67,30.31,7.04,61.75-4.72,90.93c-2.29,5.67-7.79,9.39-13.91,9.39H467.9C456.5,376.53,425.8,407.74,368.57,407.74z"/>
			<path fill="#4d8cd5" d="M340.45,250.11c-2.2,0-4.4-0.8-6.13-2.41c-3.64-3.39-3.84-9.08-0.46-12.72c33.35-35.84,84.99-78.24,141.54-76.76 c16.58,0.44,32.86,3.54,48.4,9.22c4.67,1.71,7.07,6.88,5.36,11.54c-1.71,4.67-6.87,7.07-11.54,5.36 c-13.7-5.01-28.07-7.75-42.69-8.13c-49.83-1.35-97.07,37.9-127.89,71.02C345.27,249.15,342.87,250.11,340.45,250.11z"/>
			<path fill="#4d8cd5" d="M925.1,948.81h-94.01v-30h94.01c24.57,0,44.56-19.99,44.56-44.56v-346.3c0-24.57-19.99-44.56-44.56-44.56h-94.01v-30h94.01 c41.11,0,74.56,33.45,74.56,74.56v346.3C999.67,915.36,966.22,948.81,925.1,948.81z"/>
			<path fill="#4d8cd5" d="M905.92,868.06h-89.83V534.13h89.83c14.36,0,26.04,11.68,26.04,26.04v281.85C931.97,856.38,920.28,868.06,905.92,868.06z M846.09,838.06h55.87V564.13h-55.87V838.06z"/>
			<text fill="#ffffff" font-size="90" x="50%" y="1097" dominant-baseline="middle" text-anchor="middle" font-family="sans-serif">Party Lists</text><rect x="234" y="409" height="532" width="532" clip-path="url('#clip-path-background-color')" fill="#ffffff"/><rect x="269" y="444" height="462" width="462" clip-path="url('#clip-path-dot-color')" fill="#da2100"/><rect x="269" y="444" height="98" width="98" clip-path="url('#clip-path-corners-square-color-0-0')" fill="#da2100"/><rect x="297" y="472" height="42" width="42" clip-path="url('#clip-path-corners-dot-color-0-0')" fill="#da2100"/><rect x="633" y="444" height="98" width="98" clip-path="url('#clip-path-corners-square-color-1-0')" fill="#da2100"/><rect x="661" y="472" height="42" width="42" clip-path="url('#clip-path-corners-dot-color-1-0')" fill="#da2100"/><rect x="269" y="808" height="98" width="98" clip-path="url('#clip-path-corners-square-color-0-1')" fill="#da2100"/><rect x="297" y="836" height="42" width="42" clip-path="url('#clip-path-corners-dot-color-0-1')" fill="#da2100"/></svg>