<?xml version="1.0" encoding="utf-8"?>
<svg viewBox="0 0 500 500" xmlns="http://www.w3.org/2000/svg">
  <defs>
    <clipPath id="clip-1">
      <path d="M 1178.267 493.22 L 1178.267 507.22 L 1185.267 507.22 C 1190.656 507.22 1194.023 501.387 1191.329 496.72 C 1190.079 494.554 1187.768 493.22 1185.267 493.22" style="transform-box: fill-box; transform-origin: 50% 50%;" transform="matrix(0, -1, 1, 0, -0.000037, -0.000026)"/>
      <rect x="1178.267" y="507.22" width="14" height="14"/>
      <path d="M 1178.267 521.22 L 1178.267 535.22 L 1192.267 535.22 L 1192.267 528.22 C 1192.267 524.354 1189.133 521.22 1185.267 521.22" style="transform-box: fill-box; transform-origin: 50% 50%;" transform="matrix(-1, 0, 0, -1, -0.00001, -0.000003)"/>
      <circle cx="1185.267" cy="584.22" r="7"/>
      <path d="M 1178.267 605.22 L 1178.267 619.22 L 1192.267 619.22 L 1192.267 612.22 C 1192.267 608.354 1189.133 605.22 1185.267 605.22" style="transform-box: fill-box; transform-origin: 50% 50%;" transform="matrix(0, -1, 1, 0, 0.000011, -0.000021)"/>
      <path d="M 1178.267 619.22 L 1178.267 633.22 L 1185.267 633.22 C 1190.656 633.22 1194.024 627.387 1191.329 622.72 C 1190.079 620.554 1187.768 619.22 1185.267 619.22" style="transform-box: fill-box; transform-origin: 50% 50%;" transform="matrix(0, 1, -1, 0, 0.000032, -0.000053)"/>
      <path d="M 1178.267 661.22 L 1178.267 675.22 L 1192.267 675.22 L 1192.267 668.22 C 1192.267 664.354 1189.133 661.22 1185.267 661.22" style="transform-box: fill-box; transform-origin: 50% 50%;" transform="matrix(0, -1, 1, 0, -0.000012, 0.000002)"/>
      <rect x="1178.267" y="675.22" width="14" height="14"/>
      <path d="M 1178.267 689.22 L 1178.267 703.22 L 1185.267 703.22 C 1190.656 703.22 1194.023 697.387 1191.329 692.72 C 1190.079 690.554 1187.768 689.22 1185.267 689.22" style="transform-box: fill-box; transform-origin: 50% 50%;" transform="matrix(0, 1, -1, 0, -0.000013, 0.00005)"/>
      <rect x="1192.267" y="507.22" width="14" height="14"/>
      <path d="M 1192.267 521.22 L 1192.267 535.22 L 1206.267 535.22 L 1206.267 528.22 C 1206.267 524.354 1203.133 521.22 1199.267 521.22" style="transform-box: fill-box; transform-origin: 50% 50%;" transform="matrix(0, 1, -1, 0, -0.00005, 0.000047)"/>
      <path d="M 1192.267 563.22 L 1192.267 577.22 L 1199.267 577.22 C 1204.656 577.22 1208.023 571.387 1205.329 566.72 C 1204.079 564.554 1201.768 563.22 1199.267 563.22" style="transform-box: fill-box; transform-origin: 50% 50%;" transform="matrix(-1, 0, 0, -1, 0.000046, 0.000031)"/>
      <path d="M 1192.267 591.22 L 1192.267 605.22 L 1199.267 605.22 C 1204.656 605.22 1208.024 599.387 1205.329 594.72 C 1204.079 592.554 1201.768 591.22 1199.267 591.22" style="transform-box: fill-box; transform-origin: 50% 50%;" transform="matrix(0, -1, 1, 0, 0.000119, 0.000075)"/>
      <path d="M 1192.267 605.22 L 1192.267 619.22 L 1206.267 619.22 L 1206.267 612.22 C 1206.267 608.354 1203.133 605.22 1199.267 605.22" style="transform-box: fill-box; transform-origin: 50% 50%;" transform="matrix(0, 1, -1, 0, -0.000064, 0.000032)"/>
      <path d="M 1192.267 633.22 L 1192.267 647.22 L 1206.267 647.22 L 1206.267 640.22 C 1206.267 636.354 1203.133 633.22 1199.267 633.22" style="transform-box: fill-box; transform-origin: 50% 50%;" transform="matrix(0, -1, 1, 0, -0.000044, -0.000053)"/>
      <rect x="1192.267" y="647.22" width="14" height="14"/>
      <rect x="1192.267" y="661.22" width="14" height="14"/>
      <rect x="1192.267" y="675.22" width="14" height="14"/>
      <path d="M 1192.267 703.22 L 1192.267 717.22 L 1199.267 717.22 C 1204.656 717.22 1208.023 711.387 1205.329 706.72 C 1204.079 704.554 1201.768 703.22 1199.267 703.22" style="transform-box: fill-box; transform-origin: 50% 50%;" transform="matrix(-1, 0, 0, -1, 0.000046, 0.000048)"/>
      <circle cx="1213.267" cy="486.22" r="7"/>
      <rect x="1206.267" y="507.22" width="14" height="14"/>
      <path d="M 1206.267 549.22 L 1206.267 563.22 L 1220.267 563.22 L 1220.267 556.22 C 1220.267 552.354 1217.133 549.22 1213.267 549.22" style="transform-box: fill-box; transform-origin: 50% 50%;" transform="matrix(0, -1, 1, 0, -0.000003, 0.000017)"/>
      <rect x="1206.267" y="563.22" width="14" height="14"/>
      <path d="M 1206.267 633.22 L 1206.267 647.22 L 1220.267 647.22 L 1220.267 640.22 C 1220.267 636.354 1217.133 633.22 1213.267 633.22"/>
      <rect x="1206.267" y="647.22" width="14" height="14"/>
      <path d="M 1206.267 675.22 L 1206.267 689.22 L 1220.267 689.22 L 1220.267 682.22 C 1220.267 678.354 1217.133 675.22 1213.267 675.22"/>
      <rect x="1206.267" y="689.22" width="14" height="14"/>
      <rect x="1206.267" y="703.22" width="14" height="14"/>
      <path d="M 1220.267 493.22 L 1220.267 507.22 L 1227.267 507.22 C 1232.656 507.22 1236.023 501.387 1233.329 496.72 C 1232.079 494.554 1229.768 493.22 1227.267 493.22" style="transform-box: fill-box; transform-origin: 50% 50%;" transform="matrix(0, -1, 1, 0, 0.000029, 0.00004)"/>
      <rect x="1220.267" y="507.22" width="14" height="14"/>
      <path d="M 1220.267 535.22 L 1220.267 549.22 L 1234.267 549.22 L 1234.267 542.22 C 1234.267 538.354 1231.133 535.22 1227.267 535.22" style="transform-box: fill-box; transform-origin: 50% 50%;" transform="matrix(0, -1, 1, 0, -0.000041, -0.000032)"/>
      <rect x="1220.267" y="549.22" width="14" height="14"/>
      <rect x="1220.267" y="563.22" width="14" height="14"/>
      <path d="M 1220.267 591.22 L 1220.267 605.22 L 1234.267 605.22 L 1234.267 598.22 C 1234.267 594.354 1231.133 591.22 1227.267 591.22" style="transform-box: fill-box; transform-origin: 50% 50%;" transform="matrix(0, -1, 1, 0, -0.000015, -0.000059)"/>
      <rect x="1220.267" y="605.22" width="14" height="14"/>
      <path d="M 1220.267 619.22 L 1220.267 633.22 L 1234.267 633.22 L 1234.267 626.22 C 1234.267 622.354 1231.133 619.22 1227.267 619.22" style="transform-box: fill-box; transform-origin: 50% 50%;" transform="matrix(-1, 0, 0, -1, -0.000073, -0.000021)"/>
      <rect x="1220.267" y="647.22" width="14" height="14"/>
      <path d="M 1220.267 661.22 L 1220.267 675.22 L 1234.267 675.22 L 1234.267 668.22 C 1234.267 664.354 1231.133 661.22 1227.267 661.22" style="transform-box: fill-box; transform-origin: 50% 50%;" transform="matrix(-1, 0, 0, -1, -0.000073, 0.000014)"/>
      <rect x="1220.267" y="703.22" width="14" height="14"/>
      <path d="M 1234.267 479.22 L 1234.267 493.22 L 1241.267 493.22 C 1246.656 493.22 1250.023 487.387 1247.329 482.72 C 1246.079 480.554 1243.768 479.22 1241.267 479.22" style="transform-box: fill-box; transform-origin: 50% 50%;" transform="matrix(-1, 0, 0, -1, -0.000018, 0)"/>
      <path d="M 1234.267 507.22 L 1234.267 521.22 L 1248.267 521.22 L 1248.267 514.22 C 1248.267 510.354 1245.133 507.22 1241.267 507.22"/>
      <rect x="1234.267" y="521.22" width="14" height="14"/>
      <rect x="1234.267" y="535.22" width="14" height="14"/>
      <rect x="1234.267" y="549.22" width="14" height="14"/>
      <rect x="1234.267" y="563.22" width="14" height="14"/>
      <rect x="1234.267" y="577.22" width="14" height="14"/>
      <path d="M 1234.267 591.22 L 1234.267 605.22 L 1248.267 605.22 L 1248.267 598.22 C 1248.267 594.354 1245.133 591.22 1241.267 591.22" style="transform-box: fill-box; transform-origin: 50% 50%;" transform="matrix(0, 1, -1, 0, -0.000004, -0.00004)"/>
      <path d="M 1234.267 619.22 L 1234.267 633.22 L 1248.267 633.22 L 1248.267 626.22 C 1248.267 622.354 1245.133 619.22 1241.267 619.22"/>
      <rect x="1234.267" y="633.22" width="14" height="14"/>
      <rect x="1234.267" y="647.22" width="14" height="14"/>
      <path d="M 1234.267 661.22 L 1234.267 675.22 L 1248.267 675.22 L 1248.267 668.22 C 1248.267 664.354 1245.133 661.22 1241.267 661.22" style="transform-box: fill-box; transform-origin: 50% 50%;" transform="matrix(0, 1, -1, 0, 0.000025, -0.000011)"/>
      <path d="M 1234.267 703.22 L 1234.267 717.22 L 1241.267 717.22 C 1246.656 717.22 1250.023 711.387 1247.329 706.72 C 1246.079 704.554 1243.768 703.22 1241.267 703.22"/>
      <rect x="1248.267" y="479.22" width="14" height="14"/>
      <path d="M 1248.267 493.22 L 1248.267 507.22 L 1255.267 507.22 C 1260.656 507.22 1264.024 501.387 1261.329 496.72 C 1260.079 494.554 1257.768 493.22 1255.267 493.22" style="transform-box: fill-box; transform-origin: 50% 50%;" transform="matrix(0, 1, -1, 0, 0.000028, -0.000017)"/>
      <rect x="1248.267" y="535.22" width="14" height="14"/>
      <path d="M 1248.267 577.22 L 1248.267 591.22 L 1255.267 591.22 C 1260.656 591.22 1264.023 585.387 1261.329 580.72 C 1260.079 578.554 1257.768 577.22 1255.267 577.22"/>
      <path d="M 1248.267 633.22 L 1248.267 647.22 L 1255.267 647.22 C 1260.656 647.22 1264.023 641.387 1261.329 636.72 C 1260.079 634.554 1257.768 633.22 1255.267 633.22"/>
      <path d="M 1262.267 479.22 L 1262.267 493.22 L 1269.267 493.22 C 1274.656 493.22 1278.023 487.387 1275.329 482.72 C 1274.079 480.554 1271.768 479.22 1269.267 479.22"/>
      <circle cx="1269.267" cy="514.22" r="7"/>
      <rect x="1262.267" y="535.22" width="14" height="14"/>
      <circle cx="1269.267" cy="570.22" r="7"/>
      <circle cx="1269.267" cy="598.22" r="7"/>
      <path d="M 1262.267 619.22 L 1262.267 633.22 L 1269.267 633.22 C 1274.656 633.22 1278.023 627.387 1275.329 622.72 C 1274.079 620.554 1271.768 619.22 1269.267 619.22" style="transform-box: fill-box; transform-origin: 50% 50%;" transform="matrix(-1, 0, 0, -1, 0.000005, -0.000021)"/>
      <circle cx="1269.267" cy="654.22" r="7"/>
      <circle cx="1269.267" cy="682.22" r="7"/>
      <circle cx="1269.267" cy="710.22" r="7"/>
      <path d="M 1276.267 521.22 L 1276.267 535.22 L 1290.267 535.22 L 1290.267 528.22 C 1290.267 524.354 1287.133 521.22 1283.267 521.22" style="transform-box: fill-box; transform-origin: 50% 50%;" transform="matrix(0, -1, 1, 0, -0.000012, -0.000015)"/>
      <rect x="1276.267" y="535.22" width="14" height="14"/>
      <path d="M 1276.267 577.22 L 1276.267 591.22 L 1283.267 591.22 C 1288.656 591.22 1292.024 585.387 1289.329 580.72 C 1288.079 578.554 1285.768 577.22 1283.267 577.22" style="transform-box: fill-box; transform-origin: 50% 50%;" transform="matrix(-1, 0, 0, -1, 0.000067, 0.000043)"/>
      <path d="M 1276.267 605.22 L 1276.267 619.22 L 1290.267 619.22 L 1290.267 612.22 C 1290.267 608.354 1287.133 605.22 1283.267 605.22" style="transform-box: fill-box; transform-origin: 50% 50%;" transform="matrix(0, -1, 1, 0, 0.000002, -0.00003)"/>
      <path d="M 1276.267 619.22 L 1276.267 633.22 L 1290.267 633.22 L 1290.267 626.22 C 1290.267 622.354 1287.133 619.22 1283.267 619.22" style="transform-box: fill-box; transform-origin: 50% 50%;" transform="matrix(0, 1, -1, 0, -0.000024, 0.000003)"/>
      <path d="M 1276.267 661.22 L 1276.267 675.22 L 1283.267 675.22 C 1288.656 675.22 1292.024 669.387 1289.329 664.72 C 1288.079 662.554 1285.768 661.22 1283.267 661.22" style="transform-box: fill-box; transform-origin: 50% 50%;" transform="matrix(-1, 0, 0, -1, 0.000067, 0.000014)"/>
      <circle cx="1283.267" cy="696.22" r="7"/>
      <path d="M 1290.267 381.22 L 1290.267 395.22 L 1297.267 395.22 C 1302.656 395.22 1306.023 389.387 1303.329 384.72 C 1302.079 382.554 1299.768 381.22 1297.267 381.22" style="transform-box: fill-box; transform-origin: 50% 50%;" transform="matrix(-1, 0, 0, -1, 0.000028, 0.000017)"/>
      <path d="M 1290.267 423.22 L 1290.267 437.22 L 1297.267 437.22 C 1302.656 437.22 1306.023 431.387 1303.329 426.72 C 1302.079 424.554 1299.768 423.22 1297.267 423.22" style="transform-box: fill-box; transform-origin: 50% 50%;" transform="matrix(-1, 0, 0, -1, 0.000028, -0.000046)"/>
      <circle cx="1297.267" cy="458.22" r="7"/>
      <path d="M 1290.267 479.22 L 1290.267 493.22 L 1304.267 493.22 L 1304.267 486.22 C 1304.267 482.354 1301.133 479.22 1297.267 479.22" style="transform-box: fill-box; transform-origin: 50% 50%;" transform="matrix(0, -1, 1, 0, 0.000041, 0.000041)"/>
      <rect x="1290.267" y="493.22" width="14" height="14"/>
      <rect x="1290.267" y="507.22" width="14" height="14"/>
      <rect x="1290.267" y="521.22" width="14" height="14"/>
      <rect x="1290.267" y="535.22" width="14" height="14"/>
      <path d="M 1290.267 563.22 L 1290.267 577.22 L 1297.267 577.22 C 1302.656 577.22 1306.024 571.387 1303.329 566.72 C 1302.079 564.554 1299.768 563.22 1297.267 563.22" style="transform-box: fill-box; transform-origin: 50% 50%;" transform="matrix(0, -1, 1, 0, 0.000073, 0.000104)"/>
      <rect x="1290.267" y="577.22" width="14" height="14"/>
      <rect x="1290.267" y="591.22" width="14" height="14"/>
      <path d="M 1290.267 605.22 L 1290.267 619.22 L 1304.267 619.22 L 1304.267 612.22 C 1304.267 608.354 1301.133 605.22 1297.267 605.22" style="transform-box: fill-box; transform-origin: 50% 50%;" transform="matrix(0, 1, -1, 0, 0.000025, -0.000057)"/>
      <path d="M 1290.267 633.22 L 1290.267 647.22 L 1297.267 647.22 C 1302.656 647.22 1306.023 641.387 1303.329 636.72 C 1302.079 634.554 1299.768 633.22 1297.267 633.22" style="transform-box: fill-box; transform-origin: 50% 50%;" transform="matrix(0, -1, 1, 0, 0.000019, 0.00001)"/>
      <rect x="1290.267" y="647.22" width="14" height="14"/>
      <path d="M 1290.267 661.22 L 1290.267 675.22 L 1304.267 675.22 L 1304.267 668.22 C 1304.267 664.354 1301.133 661.22 1297.267 661.22" style="transform-box: fill-box; transform-origin: 50% 50%;" transform="matrix(0, 1, -1, 0, 0.000048, -0.000034)"/>
      <path d="M 1290.267 703.22 L 1290.267 717.22 L 1297.267 717.22 C 1302.656 717.22 1306.023 711.387 1303.329 706.72 C 1302.079 704.554 1299.768 703.22 1297.267 703.22" style="transform-box: fill-box; transform-origin: 50% 50%;" transform="matrix(0, -1, 1, 0, -0.00001, 0.000038)"/>
      <path d="M 1290.267 717.22 L 1290.267 731.22 L 1304.267 731.22 L 1304.267 724.22 C 1304.267 720.354 1301.133 717.22 1297.267 717.22" style="transform-box: fill-box; transform-origin: 50% 50%;" transform="matrix(-1, 0, 0, -1, 0.000082, -0.000038)"/>
      <path d="M 1290.267 745.22 L 1290.267 759.22 L 1297.267 759.22 C 1302.656 759.22 1306.023 753.387 1303.329 748.72 C 1302.079 746.554 1299.768 745.22 1297.267 745.22" style="transform-box: fill-box; transform-origin: 50% 50%;" transform="matrix(0, -1, 1, 0, 0.000022, 0.000007)"/>
      <path d="M 1290.267 759.22 L 1290.267 773.22 L 1297.267 773.22 C 1302.656 773.22 1306.023 767.387 1303.329 762.72 C 1302.079 760.554 1299.768 759.22 1297.267 759.22" style="transform-box: fill-box; transform-origin: 50% 50%;" transform="matrix(0, 1, -1, 0, 0.000012, -0.000016)"/>
      <path d="M 1290.267 787.22 L 1290.267 801.22 L 1297.267 801.22 C 1302.656 801.22 1306.023 795.386 1303.329 790.72 C 1302.079 788.554 1299.768 787.22 1297.267 787.22" style="transform-box: fill-box; transform-origin: 50% 50%;" transform="matrix(-1, 0, 0, -1, 0.000028, -0.000079)"/>
      <path d="M 1304.267 381.22 L 1304.267 395.22 L 1318.267 395.22 L 1318.267 388.22 C 1318.267 384.354 1315.133 381.22 1311.267 381.22"/>
      <rect x="1304.267" y="395.22" width="14" height="14"/>
      <rect x="1304.267" y="409.22" width="14" height="14"/>
      <path d="M 1304.267 423.22 L 1304.267 437.22 L 1318.267 437.22 L 1318.267 430.22 C 1318.267 426.354 1315.133 423.22 1311.267 423.22" style="transform-box: fill-box; transform-origin: 50% 50%;" transform="matrix(0, 1, -1, 0, -0.000025, -0.000021)"/>
      <path d="M 1304.267 479.22 L 1304.267 493.22 L 1311.267 493.22 C 1316.656 493.22 1320.023 487.387 1317.329 482.72 C 1316.079 480.554 1313.768 479.22 1311.267 479.22"/>
      <path d="M 1304.267 521.22 L 1304.267 535.22 L 1318.267 535.22 L 1318.267 528.22 C 1318.267 524.354 1315.133 521.22 1311.267 521.22"/>
      <rect x="1304.267" y="535.22" width="14" height="14"/>
      <path d="M 1304.267 549.22 L 1304.267 563.22 L 1311.267 563.22 C 1316.656 563.22 1320.024 557.387 1317.329 552.72 C 1316.079 550.554 1313.768 549.22 1311.267 549.22" style="transform-box: fill-box; transform-origin: 50% 50%;" transform="matrix(0, 1, -1, 0, 0.000055, -0.000035)"/>
      <path d="M 1304.267 577.22 L 1304.267 591.22 L 1311.267 591.22 C 1316.656 591.22 1320.023 585.387 1317.329 580.72 C 1316.079 578.554 1313.768 577.22 1311.267 577.22"/>
      <path d="M 1304.267 689.22 L 1304.267 703.22 L 1311.267 703.22 C 1316.656 703.22 1320.023 697.387 1317.329 692.72 C 1316.079 690.554 1313.768 689.22 1311.267 689.22" style="transform-box: fill-box; transform-origin: 50% 50%;" transform="matrix(-1, 0, 0, -1, -0.000058, 0.000037)"/>
      <rect x="1304.267" y="717.22" width="14" height="14"/>
      <path d="M 1304.267 773.22 L 1304.267 787.22 L 1318.267 787.22 L 1318.267 780.22 C 1318.267 776.354 1315.133 773.22 1311.267 773.22" style="transform-box: fill-box; transform-origin: 50% 50%;" transform="matrix(0, -1, 1, 0, -0.000006, 0.000002)"/>
      <rect x="1304.267" y="787.22" width="14" height="14"/>
      <path d="M 1304.267 801.22 L 1304.267 815.22 L 1318.267 815.22 L 1318.267 808.22 C 1318.267 804.354 1315.133 801.22 1311.267 801.22" style="transform-box: fill-box; transform-origin: 50% 50%;" transform="matrix(-1, 0, 0, -1, -0.000004, 0.000031)"/>
      <path d="M 1318.267 367.22 L 1318.267 381.22 L 1325.267 381.22 C 1330.656 381.22 1334.024 375.387 1331.329 370.72 C 1330.079 368.554 1327.768 367.22 1325.267 367.22" style="transform-box: fill-box; transform-origin: 50% 50%;" transform="matrix(-1, 0, 0, -1, 0.0002, 0.000006)"/>
      <path d="M 1318.267 395.22 L 1318.267 409.22 L 1332.267 409.22 L 1332.267 402.22 C 1332.267 398.354 1329.133 395.22 1325.267 395.22"/>
      <path d="M 1318.267 409.22 L 1318.267 423.22 L 1332.267 423.22 L 1332.267 416.22 C 1332.267 412.354 1329.133 409.22 1325.267 409.22" style="transform-box: fill-box; transform-origin: 50% 50%;" transform="matrix(0, 1, -1, 0, -0.000025, 0.000066)"/>
      <path d="M 1318.267 437.22 L 1318.267 451.22 L 1325.267 451.22 C 1330.656 451.22 1334.024 445.387 1331.329 440.72 C 1330.079 438.554 1327.768 437.22 1325.267 437.22" style="transform-box: fill-box; transform-origin: 50% 50%;" transform="matrix(0, -1, 1, 0, 0.000117, 0.000082)"/>
      <rect x="1318.267" y="451.22" width="14" height="14"/>
      <path d="M 1318.267 465.22 L 1318.267 479.22 L 1332.267 479.22 L 1332.267 472.22 C 1332.267 468.354 1329.133 465.22 1325.267 465.22" style="transform-box: fill-box; transform-origin: 50% 50%;" transform="matrix(-1, 0, 0, -1, -0.000091, -0.000012)"/>
      <circle cx="1325.267" cy="500.22" r="7"/>
      <path d="M 1318.267 535.22 L 1318.267 549.22 L 1325.267 549.22 C 1330.656 549.22 1334.023 543.387 1331.329 538.72 C 1330.079 536.554 1327.768 535.22 1325.267 535.22"/>
      <circle cx="1325.267" cy="570.22" r="7"/>
      <path d="M 1318.267 591.22 L 1318.267 605.22 L 1332.267 605.22 L 1332.267 598.22 C 1332.267 594.354 1329.133 591.22 1325.267 591.22" style="transform-box: fill-box; transform-origin: 50% 50%;" transform="matrix(0, -1, 1, 0, -0.000024, -0.000067)"/>
      <path d="M 1318.267 605.22 L 1318.267 619.22 L 1332.267 619.22 L 1332.267 612.22 C 1332.267 608.354 1329.133 605.22 1325.267 605.22" style="transform-box: fill-box; transform-origin: 50% 50%;" transform="matrix(-1, 0, 0, -1, -0.000091, -0.000032)"/>
      <path d="M 1318.267 661.22 L 1318.267 675.22 L 1332.267 675.22 L 1332.267 668.22 C 1332.267 664.354 1329.133 661.22 1325.267 661.22" style="transform-box: fill-box; transform-origin: 50% 50%;" transform="matrix(0, -1, 1, 0, -0.000052, -0.000039)"/>
      <rect x="1318.267" y="675.22" width="14" height="14"/>
      <path d="M 1318.267 689.22 L 1318.267 703.22 L 1332.267 703.22 L 1332.267 696.22 C 1332.267 692.354 1329.133 689.22 1325.267 689.22" style="transform-box: fill-box; transform-origin: 50% 50%;" transform="matrix(0, 1, -1, 0, -0.000027, 0.000064)"/>
      <path d="M 1318.267 717.22 L 1318.267 731.22 L 1325.267 731.22 C 1330.656 731.22 1334.023 725.387 1331.329 720.72 C 1330.079 718.554 1327.768 717.22 1325.267 717.22"/>
      <path d="M 1318.267 773.22 L 1318.267 787.22 L 1325.267 787.22 C 1330.656 787.22 1334.023 781.387 1331.329 776.72 C 1330.079 774.554 1327.768 773.22 1325.267 773.22"/>
      <path d="M 1318.267 801.22 L 1318.267 815.22 L 1325.267 815.22 C 1330.656 815.22 1334.023 809.387 1331.329 804.72 C 1330.079 802.554 1327.768 801.22 1325.267 801.22"/>
      <rect x="1332.267" y="367.22" width="14" height="14"/>
      <path d="M 1332.267 381.22 L 1332.267 395.22 L 1339.267 395.22 C 1344.656 395.22 1348.023 389.387 1345.329 384.72 C 1344.079 382.554 1341.768 381.22 1339.267 381.22" style="transform-box: fill-box; transform-origin: 50% 50%;" transform="matrix(0, 1, -1, 0, -0.000009, 0.000026)"/>
      <circle cx="1339.267" cy="430.22" r="7"/>
      <path d="M 1332.267 465.22 L 1332.267 479.22 L 1346.267 479.22 L 1346.267 472.22 C 1346.267 468.354 1343.133 465.22 1339.267 465.22"/>
      <path d="M 1332.267 479.22 L 1332.267 493.22 L 1339.267 493.22 C 1344.656 493.22 1348.024 487.387 1345.329 482.72 C 1344.079 480.554 1341.768 479.22 1339.267 479.22" style="transform-box: fill-box; transform-origin: 50% 50%;" transform="matrix(0, 1, -1, 0, 0.000056, -0.000057)"/>
      <path d="M 1332.267 507.22 L 1332.267 521.22 L 1346.267 521.22 L 1346.267 514.22 C 1346.267 510.354 1343.133 507.22 1339.267 507.22" style="transform-box: fill-box; transform-origin: 50% 50%;" transform="matrix(0, -1, 1, 0, 0.000017, 0.000002)"/>
      <path d="M 1332.267 521.22 L 1332.267 535.22 L 1346.267 535.22 L 1346.267 528.22 C 1346.267 524.354 1343.133 521.22 1339.267 521.22" style="transform-box: fill-box; transform-origin: 50% 50%;" transform="matrix(-1, 0, 0, -1, 0.000019, -0.000003)"/>
      <path d="M 1332.267 549.22 L 1332.267 563.22 L 1339.267 563.22 C 1344.656 563.22 1348.024 557.387 1345.329 552.72 C 1344.079 550.554 1341.768 549.22 1339.267 549.22" style="transform-box: fill-box; transform-origin: 50% 50%;" transform="matrix(-1, 0, 0, -1, 0.000113, 0.00002)"/>
      <rect x="1332.267" y="591.22" width="14" height="14"/>
      <rect x="1332.267" y="605.22" width="14" height="14"/>
      <rect x="1332.267" y="619.22" width="14" height="14"/>
      <rect x="1332.267" y="633.22" width="14" height="14"/>
      <rect x="1332.267" y="647.22" width="14" height="14"/>
      <path d="M 1332.267 661.22 L 1332.267 675.22 L 1346.267 675.22 L 1346.267 668.22 C 1346.267 664.354 1343.133 661.22 1339.267 661.22" style="transform-box: fill-box; transform-origin: 50% 50%;" transform="matrix(0, 1, -1, 0, 0.000016, -0.000002)"/>
      <path d="M 1332.267 703.22 L 1332.267 717.22 L 1339.267 717.22 C 1344.656 717.22 1348.024 711.387 1345.329 706.72 C 1344.079 704.554 1341.768 703.22 1339.267 703.22" style="transform-box: fill-box; transform-origin: 50% 50%;" transform="matrix(-1, 0, 0, -1, 0.000113, 0.000048)"/>
      <circle cx="1339.267" cy="822.22" r="7"/>
      <path d="M 1346.267 367.22 L 1346.267 381.22 L 1353.267 381.22 C 1358.656 381.22 1362.023 375.387 1359.329 370.72 C 1358.079 368.554 1355.768 367.22 1353.267 367.22"/>
      <path d="M 1346.267 395.22 L 1346.267 409.22 L 1353.267 409.22 C 1358.656 409.22 1362.023 403.387 1359.329 398.72 C 1358.079 396.554 1355.768 395.22 1353.267 395.22" style="transform-box: fill-box; transform-origin: 50% 50%;" transform="matrix(-1, 0, 0, -1, 0.000074, 0.000029)"/>
      <path d="M 1346.267 437.22 L 1346.267 451.22 L 1360.267 451.22 L 1360.267 444.22 C 1360.267 440.354 1357.133 437.22 1353.267 437.22" style="transform-box: fill-box; transform-origin: 50% 50%;" transform="matrix(0, -1, 1, 0, -0.000017, -0.000051)"/>
      <path d="M 1346.267 451.22 L 1346.267 465.22 L 1353.267 465.22 C 1358.656 465.22 1362.023 459.387 1359.329 454.72 C 1358.079 452.554 1355.768 451.22 1353.267 451.22" style="transform-box: fill-box; transform-origin: 50% 50%;" transform="matrix(0, 1, -1, 0, 0.000025, -0.000049)"/>
      <rect x="1346.267" y="507.22" width="14" height="14"/>
      <rect x="1346.267" y="521.22" width="14" height="14"/>
      <rect x="1346.267" y="535.22" width="14" height="14"/>
      <rect x="1346.267" y="549.22" width="14" height="14"/>
      <rect x="1346.267" y="563.22" width="14" height="14"/>
      <rect x="1346.267" y="577.22" width="14" height="14"/>
      <path d="M 1346.267 591.22 L 1346.267 605.22 L 1360.267 605.22 L 1360.267 598.22 C 1360.267 594.354 1357.133 591.22 1353.267 591.22" style="transform-box: fill-box; transform-origin: 50% 50%;" transform="matrix(0, 1, -1, 0, -0.000056, 0.000012)"/>
      <path d="M 1346.267 619.22 L 1346.267 633.22 L 1353.267 633.22 C 1358.656 633.22 1362.023 627.387 1359.329 622.72 C 1358.079 620.554 1355.768 619.22 1353.267 619.22"/>
      <path d="M 1346.267 647.22 L 1346.267 661.22 L 1353.267 661.22 C 1358.656 661.22 1362.023 655.387 1359.329 650.72 C 1358.079 648.554 1355.768 647.22 1353.267 647.22"/>
      <path d="M 1346.267 689.22 L 1346.267 703.22 L 1353.267 703.22 C 1358.656 703.22 1362.024 697.387 1359.329 692.72 C 1358.079 690.554 1355.768 689.22 1353.267 689.22" style="transform-box: fill-box; transform-origin: 50% 50%;" transform="matrix(0, -1, 1, 0, -0.000005, 0.000032)"/>
      <path d="M 1346.267 703.22 L 1346.267 717.22 L 1360.267 717.22 L 1360.267 710.22 C 1360.267 706.354 1357.133 703.22 1353.267 703.22" style="transform-box: fill-box; transform-origin: 50% 50%;" transform="matrix(0, 1, -1, 0, -0.00001, 0.000058)"/>
      <path d="M 1346.267 731.22 L 1346.267 745.22 L 1353.267 745.22 C 1358.656 745.22 1362.023 739.387 1359.329 734.72 C 1358.079 732.554 1355.768 731.22 1353.267 731.22" style="transform-box: fill-box; transform-origin: 50% 50%;" transform="matrix(0, -1, 1, 0, 0.000051, 0.000024)"/>
      <rect x="1346.267" y="745.22" width="14" height="14"/>
      <rect x="1346.267" y="759.22" width="14" height="14"/>
      <path d="M 1346.267 773.22 L 1346.267 787.22 L 1353.267 787.22 C 1358.656 787.22 1362.023 781.387 1359.329 776.72 C 1358.079 774.554 1355.768 773.22 1353.267 773.22" style="transform-box: fill-box; transform-origin: 50% 50%;" transform="matrix(0, 1, -1, 0, 0.000041, -0.000033)"/>
      <path d="M 1360.267 395.22 L 1360.267 409.22 L 1367.267 409.22 C 1372.656 409.22 1376.023 403.387 1373.329 398.72 C 1372.079 396.554 1369.768 395.22 1367.267 395.22"/>
      <path d="M 1360.267 423.22 L 1360.267 437.22 L 1374.267 437.22 L 1374.267 430.22 C 1374.267 426.354 1371.133 423.22 1367.267 423.22" style="transform-box: fill-box; transform-origin: 50% 50%;" transform="matrix(0, -1, 1, 0, 0.000044, -0.000002)"/>
      <rect x="1360.267" y="437.22" width="14" height="14"/>
      <path d="M 1360.267 493.22 L 1360.267 507.22 L 1374.267 507.22 L 1374.267 500.22 C 1374.267 496.354 1371.133 493.22 1367.267 493.22" style="transform-box: fill-box; transform-origin: 50% 50%;" transform="matrix(0, -1, 1, 0, 0.000015, 0.000026)"/>
      <path d="M 1360.267 507.22 L 1360.267 521.22 L 1374.267 521.22 L 1374.267 514.22 C 1374.267 510.354 1371.133 507.22 1367.267 507.22" style="transform-box: fill-box; transform-origin: 50% 50%;" transform="matrix(0, 1, -1, 0, 0.000014, -0.000028)"/>
      <rect x="1360.267" y="535.22" width="14" height="14"/>
      <path d="M 1360.267 549.22 L 1360.267 563.22 L 1374.267 563.22 L 1374.267 556.22 C 1374.267 552.354 1371.133 549.22 1367.267 549.22" style="transform-box: fill-box; transform-origin: 50% 50%;" transform="matrix(0, 1, -1, 0, 0.000031, -0.000011)"/>
      <path d="M 1360.267 577.22 L 1360.267 591.22 L 1367.267 591.22 C 1372.656 591.22 1376.023 585.387 1373.329 580.72 C 1372.079 578.554 1369.768 577.22 1367.267 577.22"/>
      <circle cx="1367.267" cy="612.22" r="7"/>
      <path d="M 1360.267 633.22 L 1360.267 647.22 L 1367.267 647.22 C 1372.656 647.22 1376.023 641.387 1373.329 636.72 C 1372.079 634.554 1369.768 633.22 1367.267 633.22" style="transform-box: fill-box; transform-origin: 50% 50%;" transform="matrix(-1, 0, 0, -1, -0.000012, -0.000009)"/>
      <path d="M 1360.267 661.22 L 1360.267 675.22 L 1367.267 675.22 C 1372.656 675.22 1376.024 669.387 1373.329 664.72 C 1372.079 662.554 1369.768 661.22 1367.267 661.22" style="transform-box: fill-box; transform-origin: 50% 50%;" transform="matrix(0, -1, 1, 0, 0.000061, 0.000075)"/>
      <path d="M 1360.267 675.22 L 1360.267 689.22 L 1367.267 689.22 C 1372.656 689.22 1376.024 683.387 1373.329 678.72 C 1372.079 676.554 1369.768 675.22 1367.267 675.22" style="transform-box: fill-box; transform-origin: 50% 50%;" transform="matrix(0, 1, -1, 0, 0.000081, -0.000055)"/>
      <path d="M 1360.267 717.22 L 1360.267 731.22 L 1367.267 731.22 C 1372.656 731.22 1376.023 725.387 1373.329 720.72 C 1372.079 718.554 1369.768 717.22 1367.267 717.22" style="transform-box: fill-box; transform-origin: 50% 50%;" transform="matrix(-1, 0, 0, -1, -0.000012, -0.000038)"/>
      <rect x="1360.267" y="745.22" width="14" height="14"/>
      <path d="M 1360.267 787.22 L 1360.267 801.22 L 1367.267 801.22 C 1372.656 801.22 1376.023 795.386 1373.329 790.72 C 1372.079 788.554 1369.768 787.22 1367.267 787.22" style="transform-box: fill-box; transform-origin: 50% 50%;" transform="matrix(-1, 0, 0, -1, -0.000012, -0.000079)"/>
      <circle cx="1381.267" cy="374.22" r="7"/>
      <rect x="1374.267" y="423.22" width="14" height="14"/>
      <rect x="1374.267" y="437.22" width="14" height="14"/>
      <rect x="1374.267" y="451.22" width="14" height="14"/>
      <rect x="1374.267" y="465.22" width="14" height="14"/>
      <rect x="1374.267" y="479.22" width="14" height="14"/>
      <path d="M 1374.267 493.22 L 1374.267 507.22 L 1388.267 507.22 L 1388.267 500.22 C 1388.267 496.354 1385.133 493.22 1381.267 493.22" style="transform-box: fill-box; transform-origin: 50% 50%;" transform="matrix(0, 1, -1, 0, -0.000017, 0.000028)"/>
      <path d="M 1374.267 521.22 L 1374.267 535.22 L 1388.267 535.22 L 1388.267 528.22 C 1388.267 524.354 1385.133 521.22 1381.267 521.22" style="transform-box: fill-box; transform-origin: 50% 50%;" transform="matrix(0, -1, 1, 0, -0.000021, -0.000024)"/>
      <path d="M 1374.267 535.22 L 1374.267 549.22 L 1388.267 549.22 L 1388.267 542.22 C 1388.267 538.354 1385.133 535.22 1381.267 535.22" style="transform-box: fill-box; transform-origin: 50% 50%;" transform="matrix(0, 1, -1, 0, -0.000018, 0.000027)"/>
      <circle cx="1381.267" cy="598.22" r="7"/>
      <path d="M 1374.267 619.22 L 1374.267 633.22 L 1381.267 633.22 C 1386.656 633.22 1390.023 627.387 1387.329 622.72 C 1386.079 620.554 1383.768 619.22 1381.267 619.22" style="transform-box: fill-box; transform-origin: 50% 50%;" transform="matrix(0, -1, 1, 0, 0.000059, 0.000038)"/>
      <rect x="1374.267" y="633.22" width="14" height="14"/>
      <rect x="1374.267" y="717.22" width="14" height="14"/>
      <rect x="1374.267" y="731.22" width="14" height="14"/>
      <rect x="1374.267" y="745.22" width="14" height="14"/>
      <path d="M 1374.267 787.22 L 1374.267 801.22 L 1388.267 801.22 L 1388.267 794.22 C 1388.267 790.354 1385.133 787.22 1381.267 787.22"/>
      <path d="M 1374.267 801.22 L 1374.267 815.22 L 1381.267 815.22 C 1386.656 815.22 1390.023 809.387 1387.329 804.72 C 1386.079 802.554 1383.768 801.22 1381.267 801.22" style="transform-box: fill-box; transform-origin: 50% 50%;" transform="matrix(0, 1, -1, 0, 0.000064, -0.000033)"/>
      <path d="M 1388.267 395.22 L 1388.267 409.22 L 1395.267 409.22 C 1400.656 409.22 1404.023 403.387 1401.329 398.72 C 1400.079 396.554 1397.768 395.22 1395.267 395.22" style="transform-box: fill-box; transform-origin: 50% 50%;" transform="matrix(0, -1, 1, 0, -0.000009, 0.00002)"/>
      <rect x="1388.267" y="409.22" width="14" height="14"/>
      <rect x="1388.267" y="423.22" width="14" height="14"/>
      <path d="M 1388.267 465.22 L 1388.267 479.22 L 1402.267 479.22 L 1402.267 472.22 C 1402.267 468.354 1399.133 465.22 1395.267 465.22"/>
      <path d="M 1388.267 479.22 L 1388.267 493.22 L 1402.267 493.22 L 1402.267 486.22 C 1402.267 482.354 1399.133 479.22 1395.267 479.22" style="transform-box: fill-box; transform-origin: 50% 50%;" transform="matrix(0, 1, -1, 0, 0.000032, -0.000033)"/>
      <path d="M 1388.267 521.22 L 1388.267 535.22 L 1395.267 535.22 C 1400.656 535.22 1404.023 529.387 1401.329 524.72 C 1400.079 522.554 1397.768 521.22 1395.267 521.22"/>
      <path d="M 1388.267 549.22 L 1388.267 563.22 L 1395.267 563.22 C 1400.656 563.22 1404.023 557.387 1401.329 552.72 C 1400.079 550.554 1397.768 549.22 1395.267 549.22" style="transform-box: fill-box; transform-origin: 50% 50%;" transform="matrix(0, -1, 1, 0, -0.000005, 0.000015)"/>
      <path d="M 1388.267 563.22 L 1388.267 577.22 L 1395.267 577.22 C 1400.656 577.22 1404.023 571.387 1401.329 566.72 C 1400.079 564.554 1397.768 563.22 1395.267 563.22" style="transform-box: fill-box; transform-origin: 50% 50%;" transform="matrix(0, 1, -1, 0, 0.000021, 0.00001)"/>
      <circle cx="1395.267" cy="612.22" r="7"/>
      <path d="M 1388.267 633.22 L 1388.267 647.22 L 1402.267 647.22 L 1402.267 640.22 C 1402.267 636.354 1399.133 633.22 1395.267 633.22"/>
      <rect x="1388.267" y="647.22" width="14" height="14"/>
      <path d="M 1388.267 661.22 L 1388.267 675.22 L 1402.267 675.22 L 1402.267 668.22 C 1402.267 664.354 1399.133 661.22 1395.267 661.22" style="transform-box: fill-box; transform-origin: 50% 50%;" transform="matrix(-1, 0, 0, -1, 0.000065, 0.000014)"/>
      <path d="M 1388.267 703.22 L 1388.267 717.22 L 1402.267 717.22 L 1402.267 710.22 C 1402.267 706.354 1399.133 703.22 1395.267 703.22" style="transform-box: fill-box; transform-origin: 50% 50%;" transform="matrix(0, -1, 1, 0, 0.000008, 0.000056)"/>
      <rect x="1388.267" y="717.22" width="14" height="14"/>
      <rect x="1388.267" y="731.22" width="14" height="14"/>
      <rect x="1388.267" y="745.22" width="14" height="14"/>
      <path d="M 1388.267 759.22 L 1388.267 773.22 L 1402.267 773.22 L 1402.267 766.22 C 1402.267 762.354 1399.133 759.22 1395.267 759.22" style="transform-box: fill-box; transform-origin: 50% 50%;" transform="matrix(-1, 0, 0, -1, 0.000065, -0.000004)"/>
      <rect x="1402.267" y="423.22" width="14" height="14"/>
      <circle cx="1409.267" cy="458.22" r="7"/>
      <path d="M 1402.267 493.22 L 1402.267 507.22 L 1409.267 507.22 C 1414.656 507.22 1418.023 501.387 1415.329 496.72 C 1414.079 494.554 1411.768 493.22 1409.267 493.22" style="transform-box: fill-box; transform-origin: 50% 50%;" transform="matrix(0, -1, 1, 0, -0.000043, -0.000032)"/>
      <path d="M 1402.267 507.22 L 1402.267 521.22 L 1409.267 521.22 C 1414.656 521.22 1418.023 515.387 1415.329 510.72 C 1414.079 508.554 1411.768 507.22 1409.267 507.22" style="transform-box: fill-box; transform-origin: 50% 50%;" transform="matrix(0, 1, -1, 0, -0.000045, 0.000031)"/>
      <path d="M 1402.267 577.22 L 1402.267 591.22 L 1409.267 591.22 C 1414.656 591.22 1418.023 585.387 1415.329 580.72 C 1414.079 578.554 1411.768 577.22 1409.267 577.22" style="transform-box: fill-box; transform-origin: 50% 50%;" transform="matrix(-1, 0, 0, -1, -0.000076, 0.000043)"/>
      <circle cx="1409.267" cy="626.22" r="7"/>
      <path d="M 1402.267 647.22 L 1402.267 661.22 L 1416.267 661.22 L 1416.267 654.22 C 1416.267 650.354 1413.133 647.22 1409.267 647.22"/>
      <rect x="1402.267" y="661.22" width="14" height="14"/>
      <rect x="1402.267" y="675.22" width="14" height="14"/>
      <rect x="1402.267" y="689.22" width="14" height="14"/>
      <rect x="1402.267" y="703.22" width="14" height="14"/>
      <path d="M 1402.267 731.22 L 1402.267 745.22 L 1409.267 745.22 C 1414.656 745.22 1418.023 739.387 1415.329 734.72 C 1414.079 732.554 1411.768 731.22 1409.267 731.22"/>
      <path d="M 1402.267 759.22 L 1402.267 773.22 L 1409.267 773.22 C 1414.656 773.22 1418.023 767.387 1415.329 762.72 C 1414.079 760.554 1411.768 759.22 1409.267 759.22"/>
      <path d="M 1402.267 801.22 L 1402.267 815.22 L 1409.267 815.22 C 1414.656 815.22 1418.023 809.387 1415.329 804.72 C 1414.079 802.554 1411.768 801.22 1409.267 801.22" style="transform-box: fill-box; transform-origin: 50% 50%;" transform="matrix(-1, 0, 0, -1, -0.000076, 0.000031)"/>
      <path d="M 1416.267 381.22 L 1416.267 395.22 L 1423.267 395.22 C 1428.656 395.22 1432.023 389.387 1429.329 384.72 C 1428.079 382.554 1425.768 381.22 1423.267 381.22" style="transform-box: fill-box; transform-origin: 50% 50%;" transform="matrix(0, -1, 1, 0, 0.000008, 0.000025)"/>
      <path d="M 1416.267 395.22 L 1416.267 409.22 L 1430.267 409.22 L 1430.267 402.22 C 1430.267 398.354 1427.133 395.22 1423.267 395.22" style="transform-box: fill-box; transform-origin: 50% 50%;" transform="matrix(-1, 0, 0, -1, 0.000088, 0.000029)"/>
      <path d="M 1416.267 423.22 L 1416.267 437.22 L 1430.267 437.22 L 1430.267 430.22 C 1430.267 426.354 1427.133 423.22 1423.267 423.22"/>
      <path d="M 1416.267 437.22 L 1416.267 451.22 L 1423.267 451.22 C 1428.656 451.22 1432.023 445.387 1429.329 440.72 C 1428.079 438.554 1425.768 437.22 1423.267 437.22" style="transform-box: fill-box; transform-origin: 50% 50%;" transform="matrix(0, 1, -1, 0, -0.000001, -0.000034)"/>
      <path d="M 1416.267 521.22 L 1416.267 535.22 L 1423.267 535.22 C 1428.656 535.22 1432.023 529.387 1429.329 524.72 C 1428.079 522.554 1425.768 521.22 1423.267 521.22" style="transform-box: fill-box; transform-origin: 50% 50%;" transform="matrix(-1, 0, 0, -1, 0.000034, -0.000003)"/>
      <rect x="1416.267" y="577.22" width="14" height="14"/>
      <circle cx="1423.267" cy="612.22" r="7"/>
      <path d="M 1416.267 661.22 L 1416.267 675.22 L 1423.267 675.22 C 1428.656 675.22 1432.023 669.387 1429.329 664.72 C 1428.079 662.554 1425.768 661.22 1423.267 661.22"/>
      <rect x="1416.267" y="689.22" width="14" height="14"/>
      <rect x="1416.267" y="703.22" width="14" height="14"/>
      <path d="M 1416.267 717.22 L 1416.267 731.22 L 1423.267 731.22 C 1428.656 731.22 1432.023 725.387 1429.329 720.72 C 1428.079 718.554 1425.768 717.22 1423.267 717.22" style="transform-box: fill-box; transform-origin: 50% 50%;" transform="matrix(0, 1, -1, 0, -0.000002, -0.000036)"/>
      <path d="M 1416.267 773.22 L 1416.267 787.22 L 1430.267 787.22 L 1430.267 780.22 C 1430.267 776.354 1427.133 773.22 1423.267 773.22" style="transform-box: fill-box; transform-origin: 50% 50%;" transform="matrix(0, -1, 1, 0, 0.00004, 0.000048)"/>
      <rect x="1416.267" y="787.22" width="14" height="14"/>
      <rect x="1416.267" y="801.22" width="14" height="14"/>
      <path d="M 1430.267 367.22 L 1430.267 381.22 L 1437.267 381.22 C 1442.656 381.22 1446.023 375.387 1443.329 370.72 C 1442.079 368.554 1439.768 367.22 1437.267 367.22" style="transform-box: fill-box; transform-origin: 50% 50%;" transform="matrix(-1, 0, 0, -1, -0.000053, 0.000006)"/>
      <path d="M 1430.267 395.22 L 1430.267 409.22 L 1437.267 409.22 C 1442.656 409.22 1446.023 403.387 1443.329 398.72 C 1442.079 396.554 1439.768 395.22 1437.267 395.22"/>
      <circle cx="1437.267" cy="458.22" r="7"/>
      <path d="M 1430.267 479.22 L 1430.267 493.22 L 1444.267 493.22 L 1444.267 486.22 C 1444.267 482.354 1441.133 479.22 1437.267 479.22" style="transform-box: fill-box; transform-origin: 50% 50%;" transform="matrix(0, -1, 1, 0, 0.000001, 0)"/>
      <path d="M 1430.267 493.22 L 1430.267 507.22 L 1437.267 507.22 C 1442.656 507.22 1446.024 501.387 1443.329 496.72 C 1442.079 494.554 1439.768 493.22 1437.267 493.22" style="transform-box: fill-box; transform-origin: 50% 50%;" transform="matrix(0, 1, -1, 0, 0.000053, -0.000042)"/>
      <path d="M 1430.267 521.22 L 1430.267 535.22 L 1437.267 535.22 C 1442.656 535.22 1446.023 529.387 1443.329 524.72 C 1442.079 522.554 1439.768 521.22 1437.267 521.22"/>
      <path d="M 1430.267 563.22 L 1430.267 577.22 L 1437.267 577.22 C 1442.656 577.22 1446.024 571.387 1443.329 566.72 C 1442.079 564.554 1439.768 563.22 1437.267 563.22" style="transform-box: fill-box; transform-origin: 50% 50%;" transform="matrix(0, -1, 1, 0, 0.000032, 0.000063)"/>
      <rect x="1430.267" y="577.22" width="14" height="14"/>
      <path d="M 1430.267 591.22 L 1430.267 605.22 L 1437.267 605.22 C 1442.656 605.22 1446.023 599.387 1443.329 594.72 C 1442.079 592.554 1439.768 591.22 1437.267 591.22" style="transform-box: fill-box; transform-origin: 50% 50%;" transform="matrix(0, 1, -1, 0, -0.000048, 0.000005)"/>
      <path d="M 1430.267 647.22 L 1430.267 661.22 L 1437.267 661.22 C 1442.656 661.22 1446.023 655.387 1443.329 650.72 C 1442.079 648.554 1439.768 647.22 1437.267 647.22" style="transform-box: fill-box; transform-origin: 50% 50%;" transform="matrix(-1, 0, 0, -1, -0.000053, 0.000002)"/>
      <rect x="1430.267" y="689.22" width="14" height="14"/>
      <path d="M 1430.267 731.22 L 1430.267 745.22 L 1437.267 745.22 C 1442.656 745.22 1446.023 739.387 1443.329 734.72 C 1442.079 732.554 1439.768 731.22 1437.267 731.22" style="transform-box: fill-box; transform-origin: 50% 50%;" transform="matrix(0, -1, 1, 0, -0.000013, -0.00004)"/>
      <path d="M 1430.267 745.22 L 1430.267 759.22 L 1444.267 759.22 L 1444.267 752.22 C 1444.267 748.354 1441.133 745.22 1437.267 745.22" style="transform-box: fill-box; transform-origin: 50% 50%;" transform="matrix(-1, 0, 0, -1, 0.000001, -0.000015)"/>
      <path d="M 1430.267 773.22 L 1430.267 787.22 L 1437.267 787.22 C 1442.656 787.22 1446.023 781.387 1443.329 776.72 C 1442.079 774.554 1439.768 773.22 1437.267 773.22"/>
      <rect x="1430.267" y="801.22" width="14" height="14"/>
      <path d="M 1444.267 367.22 L 1444.267 381.22 L 1458.267 381.22 L 1458.267 374.22 C 1458.267 370.354 1455.133 367.22 1451.267 367.22"/>
      <path d="M 1444.267 381.22 L 1444.267 395.22 L 1451.267 395.22 C 1456.656 395.22 1460.023 389.387 1457.329 384.72 C 1456.079 382.554 1453.768 381.22 1451.267 381.22" style="transform-box: fill-box; transform-origin: 50% 50%;" transform="matrix(0, 1, -1, 0, 0.000037, -0.00002)"/>
      <path d="M 1444.267 409.22 L 1444.267 423.22 L 1451.267 423.22 C 1456.656 423.22 1460.024 417.387 1457.329 412.72 C 1456.079 410.554 1453.768 409.22 1451.267 409.22" style="transform-box: fill-box; transform-origin: 50% 50%;" transform="matrix(-1, 0, 0, -1, 0.000205, 0.00004)"/>
      <path d="M 1444.267 437.22 L 1444.267 451.22 L 1451.267 451.22 C 1456.656 451.22 1460.024 445.387 1457.329 440.72 C 1456.079 438.554 1453.768 437.22 1451.267 437.22" style="transform-box: fill-box; transform-origin: 50% 50%;" transform="matrix(-1, 0, 0, -1, 0.000205, -0.000035)"/>
      <rect x="1444.267" y="479.22" width="14" height="14"/>
      <circle cx="1451.267" cy="514.22" r="7"/>
      <path d="M 1444.267 549.22 L 1444.267 563.22 L 1451.267 563.22 C 1456.656 563.22 1460.024 557.387 1457.329 552.72 C 1456.079 550.554 1453.768 549.22 1451.267 549.22" style="transform-box: fill-box; transform-origin: 50% 50%;" transform="matrix(-1, 0, 0, -1, 0.000205, 0.00002)"/>
      <rect x="1444.267" y="577.22" width="14" height="14"/>
      <circle cx="1451.267" cy="612.22" r="7"/>
      <path d="M 1444.267 633.22 L 1444.267 647.22 L 1451.267 647.22 C 1456.656 647.22 1460.024 641.387 1457.329 636.72 C 1456.079 634.554 1453.768 633.22 1451.267 633.22" style="transform-box: fill-box; transform-origin: 50% 50%;" transform="matrix(0, -1, 1, 0, 0.000107, 0.000098)"/>
      <path d="M 1444.267 647.22 L 1444.267 661.22 L 1458.267 661.22 L 1458.267 654.22 C 1458.267 650.354 1455.133 647.22 1451.267 647.22" style="transform-box: fill-box; transform-origin: 50% 50%;" transform="matrix(0, 1, -1, 0, -0.000042, 0.000044)"/>
      <path d="M 1444.267 675.22 L 1444.267 689.22 L 1458.267 689.22 L 1458.267 682.22 C 1458.267 678.354 1455.133 675.22 1451.267 675.22" style="transform-box: fill-box; transform-origin: 50% 50%;" transform="matrix(0, -1, 1, 0, -0.000055, -0.00003)"/>
      <rect x="1444.267" y="689.22" width="14" height="14"/>
      <rect x="1444.267" y="703.22" width="14" height="14"/>
      <path d="M 1444.267 717.22 L 1444.267 731.22 L 1451.267 731.22 C 1456.656 731.22 1460.023 725.387 1457.329 720.72 C 1456.079 718.554 1453.768 717.22 1451.267 717.22" style="transform-box: fill-box; transform-origin: 50% 50%;" transform="matrix(0, 1, -1, 0, 0.000009, -0.000048)"/>
      <rect x="1444.267" y="745.22" width="14" height="14"/>
      <path d="M 1444.267 801.22 L 1444.267 815.22 L 1451.267 815.22 C 1456.656 815.22 1460.023 809.387 1457.329 804.72 C 1456.079 802.554 1453.768 801.22 1451.267 801.22"/>
      <rect x="1458.267" y="409.22" width="14" height="14"/>
      <rect x="1458.267" y="423.22" width="14" height="14"/>
      <rect x="1458.267" y="437.22" width="14" height="14"/>
      <rect x="1458.267" y="451.22" width="14" height="14"/>
      <rect x="1458.267" y="465.22" width="14" height="14"/>
      <rect x="1458.267" y="479.22" width="14" height="14"/>
      <path d="M 1458.267 535.22 L 1458.267 549.22 L 1465.267 549.22 C 1470.656 549.22 1474.024 543.387 1471.329 538.72 C 1470.079 536.554 1467.768 535.22 1465.267 535.22" style="transform-box: fill-box; transform-origin: 50% 50%;" transform="matrix(0, -1, 1, 0, 0.000055, 0.000063)"/>
      <rect x="1458.267" y="549.22" width="14" height="14"/>
      <rect x="1458.267" y="563.22" width="14" height="14"/>
      <path d="M 1458.267 577.22 L 1458.267 591.22 L 1472.267 591.22 L 1472.267 584.22 C 1472.267 580.354 1469.133 577.22 1465.267 577.22" style="transform-box: fill-box; transform-origin: 50% 50%;" transform="matrix(0, 1, -1, 0, 0.000033, 0.000009)"/>
      <circle cx="1465.267" cy="626.22" r="7"/>
      <path d="M 1458.267 675.22 L 1458.267 689.22 L 1465.267 689.22 C 1470.656 689.22 1474.023 683.387 1471.329 678.72 C 1470.079 676.554 1467.768 675.22 1465.267 675.22"/>
      <rect x="1458.267" y="703.22" width="14" height="14"/>
      <path d="M 1458.267 731.22 L 1458.267 745.22 L 1465.267 745.22 C 1470.656 745.22 1474.023 739.387 1471.329 734.72 C 1470.079 732.554 1467.768 731.22 1465.267 731.22" style="transform-box: fill-box; transform-origin: 50% 50%;" transform="matrix(0, -1, 1, 0, -0.000001, -0.000028)"/>
      <rect x="1458.267" y="745.22" width="14" height="14"/>
      <rect x="1458.267" y="759.22" width="14" height="14"/>
      <path d="M 1458.267 773.22 L 1458.267 787.22 L 1472.267 787.22 L 1472.267 780.22 C 1472.267 776.354 1469.133 773.22 1465.267 773.22" style="transform-box: fill-box; transform-origin: 50% 50%;" transform="matrix(-1, 0, 0, -1, 0.000024, 0.000008)"/>
      <circle cx="1465.267" cy="822.22" r="7"/>
      <circle cx="1479.267" cy="374.22" r="7"/>
      <path d="M 1472.267 395.22 L 1472.267 409.22 L 1479.267 409.22 C 1484.656 409.22 1488.023 403.387 1485.329 398.72 C 1484.079 396.554 1481.768 395.22 1479.267 395.22" style="transform-box: fill-box; transform-origin: 50% 50%;" transform="matrix(0, -1, 1, 0, 0.000026, 0.000054)"/>
      <path d="M 1472.267 409.22 L 1472.267 423.22 L 1486.267 423.22 L 1486.267 416.22 C 1486.267 412.354 1483.133 409.22 1479.267 409.22" style="transform-box: fill-box; transform-origin: 50% 50%;" transform="matrix(0, 1, -1, 0, -0.000011, 0.000051)"/>
      <rect x="1472.267" y="437.22" width="14" height="14"/>
      <path d="M 1472.267 465.22 L 1472.267 479.22 L 1486.267 479.22 L 1486.267 472.22 C 1486.267 468.354 1483.133 465.22 1479.267 465.22"/>
      <rect x="1472.267" y="479.22" width="14" height="14"/>
      <path d="M 1472.267 493.22 L 1472.267 507.22 L 1486.267 507.22 L 1486.267 500.22 C 1486.267 496.354 1483.133 493.22 1479.267 493.22" style="transform-box: fill-box; transform-origin: 50% 50%;" transform="matrix(-1, 0, 0, -1, -0.000063, 0.000011)"/>
      <path d="M 1472.267 549.22 L 1472.267 563.22 L 1479.267 563.22 C 1484.656 563.22 1488.023 557.387 1485.329 552.72 C 1484.079 550.554 1481.768 549.22 1479.267 549.22"/>
      <path d="M 1472.267 591.22 L 1472.267 605.22 L 1486.267 605.22 L 1486.267 598.22 C 1486.267 594.354 1483.133 591.22 1479.267 591.22" style="transform-box: fill-box; transform-origin: 50% 50%;" transform="matrix(0, -1, 1, 0, -0.000009, -0.000053)"/>
      <path d="M 1472.267 605.22 L 1472.267 619.22 L 1486.267 619.22 L 1486.267 612.22 C 1486.267 608.354 1483.133 605.22 1479.267 605.22" style="transform-box: fill-box; transform-origin: 50% 50%;" transform="matrix(-1, 0, 0, -1, -0.000063, -0.000032)"/>
      <path d="M 1472.267 633.22 L 1472.267 647.22 L 1479.267 647.22 C 1484.656 647.22 1488.023 641.387 1485.329 636.72 C 1484.079 634.554 1481.768 633.22 1479.267 633.22" style="transform-box: fill-box; transform-origin: 50% 50%;" transform="matrix(0, -1, 1, 0, 0.000044, 0.000035)"/>
      <rect x="1472.267" y="647.22" width="14" height="14"/>
      <path d="M 1472.267 661.22 L 1472.267 675.22 L 1486.267 675.22 L 1486.267 668.22 C 1486.267 664.354 1483.133 661.22 1479.267 661.22" style="transform-box: fill-box; transform-origin: 50% 50%;" transform="matrix(-1, 0, 0, -1, -0.000063, 0.000014)"/>
      <rect x="1472.267" y="703.22" width="14" height="14"/>
      <path d="M 1472.267 717.22 L 1472.267 731.22 L 1479.267 731.22 C 1484.656 731.22 1488.023 725.387 1485.329 720.72 C 1484.079 718.554 1481.768 717.22 1479.267 717.22" style="transform-box: fill-box; transform-origin: 50% 50%;" transform="matrix(0, 1, -1, 0, 0.000021, -0.000059)"/>
      <path d="M 1472.267 745.22 L 1472.267 759.22 L 1479.267 759.22 C 1484.656 759.22 1488.023 753.387 1485.329 748.72 C 1484.079 746.554 1481.768 745.22 1479.267 745.22"/>
      <path d="M 1472.267 773.22 L 1472.267 787.22 L 1486.267 787.22 L 1486.267 780.22 C 1486.267 776.354 1483.133 773.22 1479.267 773.22"/>
      <rect x="1472.267" y="787.22" width="14" height="14"/>
      <path d="M 1472.267 801.22 L 1472.267 815.22 L 1486.267 815.22 L 1486.267 808.22 C 1486.267 804.354 1483.133 801.22 1479.267 801.22" style="transform-box: fill-box; transform-origin: 50% 50%;" transform="matrix(-1, 0, 0, -1, -0.000063, 0.000031)"/>
      <path d="M 1486.267 437.22 L 1486.267 451.22 L 1500.267 451.22 L 1500.267 444.22 C 1500.267 440.354 1497.133 437.22 1493.267 437.22"/>
      <path d="M 1486.267 451.22 L 1486.267 465.22 L 1493.267 465.22 C 1498.656 465.22 1502.023 459.387 1499.329 454.72 C 1498.079 452.554 1495.768 451.22 1493.267 451.22" style="transform-box: fill-box; transform-origin: 50% 50%;" transform="matrix(0, 1, -1, 0, -0.000015, -0.000008)"/>
      <rect x="1486.267" y="493.22" width="14" height="14"/>
      <path d="M 1486.267 521.22 L 1486.267 535.22 L 1493.267 535.22 C 1498.656 535.22 1502.023 529.387 1499.329 524.72 C 1498.079 522.554 1495.768 521.22 1493.267 521.22" style="transform-box: fill-box; transform-origin: 50% 50%;" transform="matrix(0, -1, 1, 0, -0.000002, -0.000005)"/>
      <path d="M 1486.267 535.22 L 1486.267 549.22 L 1500.267 549.22 L 1500.267 542.22 C 1500.267 538.354 1497.133 535.22 1493.267 535.22" style="transform-box: fill-box; transform-origin: 50% 50%;" transform="matrix(-1, 0, 0, -1, 0.000047, 0.000008)"/>
      <path d="M 1486.267 577.22 L 1486.267 591.22 L 1493.267 591.22 C 1498.656 591.22 1502.023 585.387 1499.329 580.72 C 1498.079 578.554 1495.768 577.22 1493.267 577.22" style="transform-box: fill-box; transform-origin: 50% 50%;" transform="matrix(0, -1, 1, 0, -0.000025, 0.000018)"/>
      <rect x="1486.267" y="591.22" width="14" height="14"/>
      <rect x="1486.267" y="605.22" width="14" height="14"/>
      <path d="M 1486.267 619.22 L 1486.267 633.22 L 1493.267 633.22 C 1498.656 633.22 1502.023 627.387 1499.329 622.72 C 1498.079 620.554 1495.768 619.22 1493.267 619.22" style="transform-box: fill-box; transform-origin: 50% 50%;" transform="matrix(0, 1, -1, 0, -0.000014, -0.000007)"/>
      <path d="M 1486.267 647.22 L 1486.267 661.22 L 1500.267 661.22 L 1500.267 654.22 C 1500.267 650.354 1497.133 647.22 1493.267 647.22"/>
      <rect x="1486.267" y="661.22" width="14" height="14"/>
      <path d="M 1486.267 689.22 L 1486.267 703.22 L 1493.267 703.22 C 1498.656 703.22 1502.024 697.387 1499.329 692.72 C 1498.079 690.554 1495.768 689.22 1493.267 689.22" style="transform-box: fill-box; transform-origin: 50% 50%;" transform="matrix(0, -1, 1, 0, 0.000052, 0.000089)"/>
      <path d="M 1486.267 703.22 L 1486.267 717.22 L 1500.267 717.22 L 1500.267 710.22 C 1500.267 706.354 1497.133 703.22 1493.267 703.22" style="transform-box: fill-box; transform-origin: 50% 50%;" transform="matrix(0, 1, -1, 0, 0.000048, 0.000001)"/>
      <path d="M 1486.267 759.22 L 1486.267 773.22 L 1493.267 773.22 C 1498.656 773.22 1502.023 767.387 1499.329 762.72 C 1498.079 760.554 1495.768 759.22 1493.267 759.22" style="transform-box: fill-box; transform-origin: 50% 50%;" transform="matrix(-1, 0, 0, -1, -0.000007, -0.000004)"/>
      <path d="M 1486.267 801.22 L 1486.267 815.22 L 1493.267 815.22 C 1498.656 815.22 1502.023 809.387 1499.329 804.72 C 1498.079 802.554 1495.768 801.22 1493.267 801.22"/>
      <path d="M 1500.267 409.22 L 1500.267 423.22 L 1507.267 423.22 C 1512.656 423.22 1516.023 417.387 1513.329 412.72 C 1512.079 410.554 1509.768 409.22 1507.267 409.22" style="transform-box: fill-box; transform-origin: 50% 50%;" transform="matrix(-1, 0, 0, -1, -0.000093, 0.00004)"/>
      <rect x="1500.267" y="493.22" width="14" height="14"/>
      <path d="M 1500.267 507.22 L 1500.267 521.22 L 1514.267 521.22 L 1514.267 514.22 C 1514.267 510.354 1511.133 507.22 1507.267 507.22" style="transform-box: fill-box; transform-origin: 50% 50%;" transform="matrix(-1, 0, 0, -1, -0.00004, -0.000015)"/>
      <path d="M 1500.267 535.22 L 1500.267 549.22 L 1507.267 549.22 C 1512.656 549.22 1516.023 543.387 1513.329 538.72 C 1512.079 536.554 1509.768 535.22 1507.267 535.22"/>
      <path d="M 1500.267 563.22 L 1500.267 577.22 L 1507.267 577.22 C 1512.656 577.22 1516.023 571.387 1513.329 566.72 C 1512.079 564.554 1509.768 563.22 1507.267 563.22" style="transform-box: fill-box; transform-origin: 50% 50%;" transform="matrix(-1, 0, 0, -1, -0.000093, 0.000031)"/>
      <path d="M 1500.267 591.22 L 1500.267 605.22 L 1507.267 605.22 C 1512.656 605.22 1516.023 599.387 1513.329 594.72 C 1512.079 592.554 1509.768 591.22 1507.267 591.22"/>
      <rect x="1500.267" y="661.22" width="14" height="14"/>
      <path d="M 1500.267 731.22 L 1500.267 745.22 L 1514.267 745.22 L 1514.267 738.22 C 1514.267 734.354 1511.133 731.22 1507.267 731.22" style="transform-box: fill-box; transform-origin: 50% 50%;" transform="matrix(0, -1, 1, 0, -0.000006, -0.000033)"/>
      <rect x="1500.267" y="745.22" width="14" height="14"/>
      <rect x="1500.267" y="759.22" width="14" height="14"/>
      <path d="M 1500.267 815.22 L 1500.267 829.22 L 1507.267 829.22 C 1512.656 829.22 1516.023 823.386 1513.329 818.72 C 1512.079 816.554 1509.768 815.22 1507.267 815.22" style="transform-box: fill-box; transform-origin: 50% 50%;" transform="matrix(-1, 0, 0, -1, -0.000093, -0.000056)"/>
      <path d="M 1514.267 367.22 L 1514.267 381.22 L 1521.267 381.22 C 1526.656 381.22 1530.023 375.387 1527.329 370.72 C 1526.079 368.554 1523.768 367.22 1521.267 367.22" style="transform-box: fill-box; transform-origin: 50% 50%;" transform="matrix(0, -1, 1, 0, 0.000005, 0.000011)"/>
      <rect x="1514.267" y="381.22" width="14" height="14"/>
      <rect x="1514.267" y="395.22" width="14" height="14"/>
      <path d="M 1514.267 409.22 L 1514.267 423.22 L 1528.267 423.22 L 1528.267 416.22 C 1528.267 412.354 1525.133 409.22 1521.267 409.22" style="transform-box: fill-box; transform-origin: 50% 50%;" transform="matrix(0, 1, -1, 0, 0.000055, -0.000015)"/>
      <path d="M 1514.267 451.22 L 1514.267 465.22 L 1521.267 465.22 C 1526.656 465.22 1530.023 459.387 1527.329 454.72 C 1526.079 452.554 1523.768 451.22 1521.267 451.22" style="transform-box: fill-box; transform-origin: 50% 50%;" transform="matrix(0, -1, 1, 0, 0.00002, -0.000004)"/>
      <path d="M 1514.267 465.22 L 1514.267 479.22 L 1521.267 479.22 C 1526.656 479.22 1530.023 473.387 1527.329 468.72 C 1526.079 466.554 1523.768 465.22 1521.267 465.22" style="transform-box: fill-box; transform-origin: 50% 50%;" transform="matrix(0, 1, -1, 0, 0.000002, -0.000014)"/>
      <path d="M 1514.267 493.22 L 1514.267 507.22 L 1528.267 507.22 L 1528.267 500.22 C 1528.267 496.354 1525.133 493.22 1521.267 493.22"/>
      <path d="M 1514.267 507.22 L 1514.267 521.22 L 1528.267 521.22 L 1528.267 514.22 C 1528.267 510.354 1525.133 507.22 1521.267 507.22" style="transform-box: fill-box; transform-origin: 50% 50%;" transform="matrix(0, 1, -1, 0, 0.000028, -0.000042)"/>
      <path d="M 1514.267 549.22 L 1514.267 563.22 L 1521.267 563.22 C 1526.656 563.22 1530.023 557.387 1527.329 552.72 C 1526.079 550.554 1523.768 549.22 1521.267 549.22" style="transform-box: fill-box; transform-origin: 50% 50%;" transform="matrix(0, -1, 1, 0, -0.000002, 0.000018)"/>
      <rect x="1514.267" y="563.22" width="14" height="14"/>
      <path d="M 1514.267 577.22 L 1514.267 591.22 L 1521.267 591.22 C 1526.656 591.22 1530.023 585.387 1527.329 580.72 C 1526.079 578.554 1523.768 577.22 1521.267 577.22" style="transform-box: fill-box; transform-origin: 50% 50%;" transform="matrix(0, 1, -1, 0, 0.00003, 0.000013)"/>
      <path d="M 1514.267 619.22 L 1514.267 633.22 L 1521.267 633.22 C 1526.656 633.22 1530.023 627.387 1527.329 622.72 C 1526.079 620.554 1523.768 619.22 1521.267 619.22" style="transform-box: fill-box; transform-origin: 50% 50%;" transform="matrix(0, -1, 1, 0, 0.000018, -0.000002)"/>
      <rect x="1514.267" y="633.22" width="14" height="14"/>
      <rect x="1514.267" y="647.22" width="14" height="14"/>
      <path d="M 1514.267 661.22 L 1514.267 675.22 L 1528.267 675.22 L 1528.267 668.22 C 1528.267 664.354 1525.133 661.22 1521.267 661.22" style="transform-box: fill-box; transform-origin: 50% 50%;" transform="matrix(0, 1, -1, 0, 0.000042, -0.000028)"/>
      <path d="M 1514.267 703.22 L 1514.267 717.22 L 1528.267 717.22 L 1528.267 710.22 C 1528.267 706.354 1525.133 703.22 1521.267 703.22" style="transform-box: fill-box; transform-origin: 50% 50%;" transform="matrix(0, -1, 1, 0, 0.000011, 0.000059)"/>
      <rect x="1514.267" y="717.22" width="14" height="14"/>
      <rect x="1514.267" y="731.22" width="14" height="14"/>
      <rect x="1514.267" y="745.22" width="14" height="14"/>
      <rect x="1514.267" y="759.22" width="14" height="14"/>
      <rect x="1514.267" y="773.22" width="14" height="14"/>
      <rect x="1514.267" y="787.22" width="14" height="14"/>
      <rect x="1514.267" y="801.22" width="14" height="14"/>
      <path d="M 1514.267 815.22 L 1514.267 829.22 L 1528.267 829.22 L 1528.267 822.22 C 1528.267 818.354 1525.133 815.22 1521.267 815.22" style="transform-box: fill-box; transform-origin: 50% 50%;" transform="matrix(0, 1, -1, 0, 0.000007, -0.000063)"/>
      <circle cx="1535.267" cy="486.22" r="7"/>
      <path d="M 1528.267 521.22 L 1528.267 535.22 L 1535.267 535.22 C 1540.656 535.22 1544.023 529.387 1541.329 524.72 C 1540.079 522.554 1537.768 521.22 1535.267 521.22" style="transform-box: fill-box; transform-origin: 50% 50%;" transform="matrix(0, -1, 1, 0, -0.000034, -0.000037)"/>
      <path d="M 1528.267 535.22 L 1528.267 549.22 L 1542.267 549.22 L 1542.267 542.22 C 1542.267 538.354 1539.133 535.22 1535.267 535.22" style="transform-box: fill-box; transform-origin: 50% 50%;" transform="matrix(-1, 0, 0, -1, -0.000017, 0.000008)"/>
      <path d="M 1528.267 563.22 L 1528.267 577.22 L 1535.267 577.22 C 1540.656 577.22 1544.023 571.387 1541.329 566.72 C 1540.079 564.554 1537.768 563.22 1535.267 563.22"/>
      <circle cx="1535.267" cy="598.22" r="7"/>
      <path d="M 1528.267 689.22 L 1528.267 703.22 L 1535.267 703.22 C 1540.656 703.22 1544.024 697.387 1541.329 692.72 C 1540.079 690.554 1537.768 689.22 1535.267 689.22" style="transform-box: fill-box; transform-origin: 50% 50%;" transform="matrix(0, -1, 1, 0, 0.00002, 0.000057)"/>
      <rect x="1528.267" y="703.22" width="14" height="14"/>
      <rect x="1528.267" y="759.22" width="14" height="14"/>
      <path d="M 1528.267 787.22 L 1528.267 801.22 L 1542.267 801.22 L 1542.267 794.22 C 1542.267 790.354 1539.133 787.22 1535.267 787.22"/>
      <rect x="1528.267" y="801.22" width="14" height="14"/>
      <circle cx="1549.267" cy="500.22" r="7"/>
      <path d="M 1542.267 535.22 L 1542.267 549.22 L 1549.267 549.22 C 1554.656 549.22 1558.023 543.387 1555.329 538.72 C 1554.079 536.554 1551.768 535.22 1549.267 535.22"/>
      <path d="M 1542.267 577.22 L 1542.267 591.22 L 1549.267 591.22 C 1554.656 591.22 1558.023 585.387 1555.329 580.72 C 1554.079 578.554 1551.768 577.22 1549.267 577.22" style="transform-box: fill-box; transform-origin: 50% 50%;" transform="matrix(-1, 0, 0, -1, 0.000039, 0.000043)"/>
      <path d="M 1542.267 605.22 L 1542.267 619.22 L 1556.267 619.22 L 1556.267 612.22 C 1556.267 608.354 1553.133 605.22 1549.267 605.22" style="transform-box: fill-box; transform-origin: 50% 50%;" transform="matrix(0, -1, 1, 0, 0.000063, 0.00003)"/>
      <path d="M 1542.267 619.22 L 1542.267 633.22 L 1549.267 633.22 C 1554.656 633.22 1558.023 627.387 1555.329 622.72 C 1554.079 620.554 1551.768 619.22 1549.267 619.22" style="transform-box: fill-box; transform-origin: 50% 50%;" transform="matrix(0, 1, -1, 0, 0.000009, -0.00003)"/>
      <path d="M 1542.267 647.22 L 1542.267 661.22 L 1549.267 661.22 C 1554.656 661.22 1558.023 655.387 1555.329 650.72 C 1554.079 648.554 1551.768 647.22 1549.267 647.22" style="transform-box: fill-box; transform-origin: 50% 50%;" transform="matrix(0, -1, 1, 0, 0.000018, 0.000021)"/>
      <rect x="1542.267" y="661.22" width="14" height="14"/>
      <path d="M 1542.267 675.22 L 1542.267 689.22 L 1549.267 689.22 C 1554.656 689.22 1558.023 683.387 1555.329 678.72 C 1554.079 676.554 1551.768 675.22 1549.267 675.22" style="transform-box: fill-box; transform-origin: 50% 50%;" transform="matrix(0, 1, -1, 0, 0.000032, -0.000007)"/>
      <rect x="1542.267" y="703.22" width="14" height="14"/>
      <circle cx="1549.267" cy="738.22" r="7"/>
      <rect x="1542.267" y="759.22" width="14" height="14"/>
      <path d="M 1542.267 773.22 L 1542.267 787.22 L 1549.267 787.22 C 1554.656 787.22 1558.023 781.387 1555.329 776.72 C 1554.079 774.554 1551.768 773.22 1549.267 773.22" style="transform-box: fill-box; transform-origin: 50% 50%;" transform="matrix(0, 1, -1, 0, 0.000023, -0.000016)"/>
      <path d="M 1542.267 801.22 L 1542.267 815.22 L 1549.267 815.22 C 1554.656 815.22 1558.023 809.387 1555.329 804.72 C 1554.079 802.554 1551.768 801.22 1549.267 801.22"/>
      <circle cx="1563.267" cy="514.22" r="7"/>
      <path d="M 1556.267 577.22 L 1556.267 591.22 L 1570.267 591.22 L 1570.267 584.22 C 1570.267 580.354 1567.133 577.22 1563.267 577.22"/>
      <rect x="1556.267" y="591.22" width="14" height="14"/>
      <path d="M 1556.267 605.22 L 1556.267 619.22 L 1570.267 619.22 L 1570.267 612.22 C 1570.267 608.354 1567.133 605.22 1563.267 605.22" style="transform-box: fill-box; transform-origin: 50% 50%;" transform="matrix(0, 1, -1, 0, -0.000013, -0.000019)"/>
      <path d="M 1556.267 633.22 L 1556.267 647.22 L 1563.267 647.22 C 1568.656 647.22 1572.023 641.387 1569.329 636.72 C 1568.079 634.554 1565.768 633.22 1563.267 633.22" style="transform-box: fill-box; transform-origin: 50% 50%;" transform="matrix(-1, 0, 0, -1, -0.000047, -0.000009)"/>
      <path d="M 1556.267 661.22 L 1556.267 675.22 L 1563.267 675.22 C 1568.656 675.22 1572.023 669.387 1569.329 664.72 C 1568.079 662.554 1565.768 661.22 1563.267 661.22"/>
      <rect x="1556.267" y="703.22" width="14" height="14"/>
      <rect x="1556.267" y="759.22" width="14" height="14"/>
      <path d="M 1556.267 815.22 L 1556.267 829.22 L 1563.267 829.22 C 1568.656 829.22 1572.023 823.386 1569.329 818.72 C 1568.079 816.554 1565.768 815.22 1563.267 815.22" style="transform-box: fill-box; transform-origin: 50% 50%;" transform="matrix(-1, 0, 0, -1, -0.000047, -0.000056)"/>
      <path d="M 1570.267 479.22 L 1570.267 493.22 L 1577.267 493.22 C 1582.656 493.22 1586.023 487.387 1583.329 482.72 C 1582.079 480.554 1579.768 479.22 1577.267 479.22" style="transform-box: fill-box; transform-origin: 50% 50%;" transform="matrix(0, -1, 1, 0, -0.000067, -0.000067)"/>
      <path d="M 1570.267 493.22 L 1570.267 507.22 L 1584.267 507.22 L 1584.267 500.22 C 1584.267 496.354 1581.133 493.22 1577.267 493.22" style="transform-box: fill-box; transform-origin: 50% 50%;" transform="matrix(-1, 0, 0, -1, -0.00008, 0.000011)"/>
      <circle cx="1577.267" cy="556.22" r="7"/>
      <path d="M 1570.267 591.22 L 1570.267 605.22 L 1577.267 605.22 C 1582.656 605.22 1586.023 599.387 1583.329 594.72 C 1582.079 592.554 1579.768 591.22 1577.267 591.22"/>
      <path d="M 1570.267 619.22 L 1570.267 633.22 L 1584.267 633.22 L 1584.267 626.22 C 1584.267 622.354 1581.133 619.22 1577.267 619.22" style="transform-box: fill-box; transform-origin: 50% 50%;" transform="matrix(0, -1, 1, 0, -0.00003, -0.00005)"/>
      <rect x="1570.267" y="633.22" width="14" height="14"/>
      <path d="M 1570.267 647.22 L 1570.267 661.22 L 1577.267 661.22 C 1582.656 661.22 1586.023 655.387 1583.329 650.72 C 1582.079 648.554 1579.768 647.22 1577.267 647.22" style="transform-box: fill-box; transform-origin: 50% 50%;" transform="matrix(0, 1, -1, 0, -0.000066, 0.000068)"/>
      <rect x="1570.267" y="703.22" width="14" height="14"/>
      <rect x="1570.267" y="717.22" width="14" height="14"/>
      <rect x="1570.267" y="731.22" width="14" height="14"/>
      <rect x="1570.267" y="745.22" width="14" height="14"/>
      <rect x="1570.267" y="759.22" width="14" height="14"/>
      <path d="M 1570.267 773.22 L 1570.267 787.22 L 1577.267 787.22 C 1582.656 787.22 1586.023 781.387 1583.329 776.72 C 1582.079 774.554 1579.768 773.22 1577.267 773.22" style="transform-box: fill-box; transform-origin: 50% 50%;" transform="matrix(0, 1, -1, 0, -0.000063, 0.000071)"/>
      <path d="M 1570.267 801.22 L 1570.267 815.22 L 1584.267 815.22 L 1584.267 808.22 C 1584.267 804.354 1581.133 801.22 1577.267 801.22" style="transform-box: fill-box; transform-origin: 50% 50%;" transform="matrix(0, -1, 1, 0, -0.000055, -0.000025)"/>
      <path d="M 1570.267 815.22 L 1570.267 829.22 L 1584.267 829.22 L 1584.267 822.22 C 1584.267 818.354 1581.133 815.22 1577.267 815.22" style="transform-box: fill-box; transform-origin: 50% 50%;" transform="matrix(0, 1, -1, 0, -0.000068, 0.000012)"/>
      <path d="M 1584.267 493.22 L 1584.267 507.22 L 1591.267 507.22 C 1596.656 507.22 1600.023 501.387 1597.329 496.72 C 1596.079 494.554 1593.768 493.22 1591.267 493.22"/>
      <path d="M 1584.267 619.22 L 1584.267 633.22 L 1598.267 633.22 L 1598.267 626.22 C 1598.267 622.354 1595.133 619.22 1591.267 619.22"/>
      <rect x="1584.267" y="633.22" width="14" height="14"/>
      <path d="M 1584.267 661.22 L 1584.267 675.22 L 1591.267 675.22 C 1596.656 675.22 1600.024 669.387 1597.329 664.72 C 1596.079 662.554 1593.768 661.22 1591.267 661.22" style="transform-box: fill-box; transform-origin: 50% 50%;" transform="matrix(0, -1, 1, 0, -0.000043, -0.000029)"/>
      <rect x="1584.267" y="675.22" width="14" height="14"/>
      <rect x="1584.267" y="689.22" width="14" height="14"/>
      <rect x="1584.267" y="703.22" width="14" height="14"/>
      <rect x="1584.267" y="731.22" width="14" height="14"/>
      <rect x="1584.267" y="745.22" width="14" height="14"/>
      <rect x="1584.267" y="759.22" width="14" height="14"/>
      <path d="M 1584.267 787.22 L 1584.267 801.22 L 1591.267 801.22 C 1596.656 801.22 1600.024 795.387 1597.329 790.72 C 1596.079 788.554 1593.768 787.22 1591.267 787.22" style="transform-box: fill-box; transform-origin: 50% 50%;" transform="matrix(0, -1, 1, 0, 0.000003, -0.000076)"/>
      <path d="M 1584.267 801.22 L 1584.267 815.22 L 1598.267 815.22 L 1598.267 808.22 C 1598.267 804.354 1595.133 801.22 1591.267 801.22" style="transform-box: fill-box; transform-origin: 50% 50%;" transform="matrix(0, 1, -1, 0, -0.000068, 0.000099)"/>
      <path d="M 1598.267 577.22 L 1598.267 591.22 L 1612.267 591.22 L 1612.267 584.22 C 1612.267 580.354 1609.133 577.22 1605.267 577.22" style="transform-box: fill-box; transform-origin: 50% 50%;" transform="matrix(0, -1, 1, 0, 0.000048, 0.000091)"/>
      <path d="M 1598.267 591.22 L 1598.267 605.22 L 1605.267 605.22 C 1610.655 605.22 1614.023 599.387 1611.329 594.72 C 1610.079 592.554 1607.768 591.22 1605.267 591.22" style="transform-box: fill-box; transform-origin: 50% 50%;" transform="matrix(0, 1, -1, 0, -0.000053, 0.00001)"/>
      <rect x="1598.267" y="633.22" width="14" height="14"/>
      <path d="M 1598.267 689.22 L 1598.267 703.22 L 1612.267 703.22 L 1612.267 696.22 C 1612.267 692.354 1609.133 689.22 1605.267 689.22"/>
      <rect x="1598.267" y="703.22" width="14" height="14"/>
      <path d="M 1598.267 731.22 L 1598.267 745.22 L 1612.267 745.22 L 1612.267 738.22 C 1612.267 734.354 1609.133 731.22 1605.267 731.22"/>
      <rect x="1598.267" y="745.22" width="14" height="14"/>
      <rect x="1598.267" y="759.22" width="14" height="14"/>
      <path d="M 1598.267 773.22 L 1598.267 787.22 L 1605.267 787.22 C 1610.656 787.22 1614.023 781.387 1611.329 776.72 C 1610.079 774.554 1607.768 773.22 1605.267 773.22" style="transform-box: fill-box; transform-origin: 50% 50%;" transform="matrix(0, 1, -1, 0, 0.000046, -0.000039)"/>
      <path d="M 1612.267 479.22 L 1612.267 493.22 L 1619.267 493.22 C 1624.656 493.22 1628.023 487.387 1625.329 482.72 C 1624.079 480.554 1621.768 479.22 1619.267 479.22" style="transform-box: fill-box; transform-origin: 50% 50%;" transform="matrix(0, -1, 1, 0, 0, -0.000001)"/>
      <rect x="1612.267" y="493.22" width="14" height="14"/>
      <rect x="1612.267" y="507.22" width="14" height="14"/>
      <rect x="1612.267" y="521.22" width="14" height="14"/>
      <path d="M 1612.267 535.22 L 1612.267 549.22 L 1626.267 549.22 L 1626.267 542.22 C 1626.267 538.354 1623.133 535.22 1619.267 535.22" style="transform-box: fill-box; transform-origin: 50% 50%;" transform="matrix(-1, 0, 0, -1, 0.000052, 0.000008)"/>
      <path d="M 1612.267 563.22 L 1612.267 577.22 L 1619.267 577.22 C 1624.656 577.22 1628.024 571.387 1625.329 566.72 C 1624.079 564.554 1621.768 563.22 1619.267 563.22" style="transform-box: fill-box; transform-origin: 50% 50%;" transform="matrix(0, -1, 1, 0, 0.000058, 0.000089)"/>
      <path d="M 1612.267 577.22 L 1612.267 591.22 L 1626.267 591.22 L 1626.267 584.22 C 1626.267 580.354 1623.133 577.22 1619.267 577.22" style="transform-box: fill-box; transform-origin: 50% 50%;" transform="matrix(0, 1, -1, 0, 0.000048, -0.000005)"/>
      <path d="M 1612.267 605.22 L 1612.267 619.22 L 1626.267 619.22 L 1626.267 612.22 C 1626.267 608.354 1623.133 605.22 1619.267 605.22" style="transform-box: fill-box; transform-origin: 50% 50%;" transform="matrix(0, -1, 1, 0, 0.000042, 0.00001)"/>
      <rect x="1612.267" y="619.22" width="14" height="14"/>
      <rect x="1612.267" y="633.22" width="14" height="14"/>
      <rect x="1612.267" y="647.22" width="14" height="14"/>
      <path d="M 1612.267 661.22 L 1612.267 675.22 L 1619.267 675.22 C 1624.656 675.22 1628.023 669.387 1625.329 664.72 C 1624.079 662.554 1621.768 661.22 1619.267 661.22" style="transform-box: fill-box; transform-origin: 50% 50%;" transform="matrix(0, 1, -1, 0, 0.000006, 0.000008)"/>
      <rect x="1612.267" y="703.22" width="14" height="14"/>
      <path d="M 1612.267 717.22 L 1612.267 731.22 L 1619.267 731.22 C 1624.655 731.22 1628.023 725.387 1625.329 720.72 C 1624.079 718.554 1621.768 717.22 1619.267 717.22" style="transform-box: fill-box; transform-origin: 50% 50%;" transform="matrix(0, 1, -1, 0, 0.000102, -0.000141)"/>
      <path d="M 1626.267 493.22 L 1626.267 507.22 L 1633.267 507.22 C 1638.656 507.22 1642.023 501.387 1639.329 496.72 C 1638.079 494.554 1635.768 493.22 1633.267 493.22"/>
      <path d="M 1626.267 521.22 L 1626.267 535.22 L 1640.267 535.22 L 1640.267 528.22 C 1640.267 524.354 1637.133 521.22 1633.267 521.22"/>
      <path d="M 1626.267 535.22 L 1626.267 549.22 L 1640.267 549.22 L 1640.267 542.22 C 1640.267 538.354 1637.133 535.22 1633.267 535.22" style="transform-box: fill-box; transform-origin: 50% 50%;" transform="matrix(0, 1, -1, 0, -0.000013, 0.000021)"/>
      <path d="M 1626.267 591.22 L 1626.267 605.22 L 1633.267 605.22 C 1638.656 605.22 1642.024 599.387 1639.329 594.72 C 1638.079 592.554 1635.768 591.22 1633.267 591.22" style="transform-box: fill-box; transform-origin: 50% 50%;" transform="matrix(0, -1, 1, 0, 0.000052, 0.000008)"/>
      <rect x="1626.267" y="605.22" width="14" height="14"/>
      <path d="M 1626.267 619.22 L 1626.267 633.22 L 1640.267 633.22 L 1640.267 626.22 C 1640.267 622.354 1637.133 619.22 1633.267 619.22" style="transform-box: fill-box; transform-origin: 50% 50%;" transform="matrix(0, 1, -1, 0, -0.000027, 0.000007)"/>
      <path d="M 1626.267 647.22 L 1626.267 661.22 L 1633.267 661.22 C 1638.656 661.22 1642.023 655.387 1639.329 650.72 C 1638.079 648.554 1635.768 647.22 1633.267 647.22"/>
      <path d="M 1626.267 675.22 L 1626.267 689.22 L 1633.267 689.22 C 1638.656 689.22 1642.023 683.387 1639.329 678.72 C 1638.079 676.554 1635.768 675.22 1633.267 675.22" style="transform-box: fill-box; transform-origin: 50% 50%;" transform="matrix(0, -1, 1, 0, -0.000057, -0.000031)"/>
      <rect x="1626.267" y="689.22" width="14" height="14"/>
      <path d="M 1626.267 703.22 L 1626.267 717.22 L 1640.267 717.22 L 1640.267 710.22 C 1640.267 706.354 1637.133 703.22 1633.267 703.22" style="transform-box: fill-box; transform-origin: 50% 50%;" transform="matrix(0, 1, -1, 0, 0.000007, 0.000041)"/>
      <circle cx="1633.267" cy="738.22" r="7"/>
      <circle cx="1633.267" cy="822.22" r="7"/>
    </clipPath>
    <clipPath id="clip-2">
      <path clip-rule="evenodd" d="M 1178.267 402.22 L 1178.267 430.22 C 1178.267 449.55 1193.937 465.22 1213.267 465.22 L 1241.267 465.22 C 1260.597 465.22 1276.267 449.55 1276.267 430.22 L 1276.267 402.22 C 1276.267 382.89 1260.597 367.22 1241.267 367.22 L 1213.267 367.22 C 1193.937 367.22 1178.267 382.89 1178.267 402.22 M 1213.267 381.22 L 1241.267 381.22 C 1252.865 381.22 1262.267 390.622 1262.267 402.22 L 1262.267 430.22 C 1262.267 441.818 1252.865 451.22 1241.267 451.22 L 1213.267 451.22 C 1201.669 451.22 1192.267 441.818 1192.267 430.22 L 1192.267 402.22 C 1192.267 390.622 1201.669 381.22 1213.267 381.22"/>
    </clipPath>
    <clipPath id="clip-3">
      <path d="M 1206.267 395.22 L 1206.267 409.22 L 1220.267 409.22 L 1220.267 402.22 C 1220.267 398.354 1217.133 395.22 1213.267 395.22" style="transform-box: fill-box; transform-origin: 50% 50%;" transform="matrix(0, -1, 1, 0, -0.000008, 0.000021)"/>
      <rect x="1206.267" y="409.22" width="14" height="14"/>
      <path d="M 1206.267 423.22 L 1206.267 437.22 L 1220.267 437.22 L 1220.267 430.22 C 1220.267 426.354 1217.133 423.22 1213.267 423.22" style="transform-box: fill-box; transform-origin: 50% 50%;" transform="matrix(-1, 0, 0, -1, 0.000013, -0.000046)"/>
      <rect x="1220.267" y="395.22" width="14" height="14"/>
      <rect x="1220.267" y="409.22" width="14" height="14"/>
      <rect x="1220.267" y="423.22" width="14" height="14"/>
      <path d="M 1234.267 395.22 L 1234.267 409.22 L 1248.267 409.22 L 1248.267 402.22 C 1248.267 398.354 1245.133 395.22 1241.267 395.22"/>
      <rect x="1234.267" y="409.22" width="14" height="14"/>
      <path d="M 1234.267 423.22 L 1234.267 437.22 L 1248.267 437.22 L 1248.267 430.22 C 1248.267 426.354 1245.133 423.22 1241.267 423.22" style="transform-box: fill-box; transform-origin: 50% 50%;" transform="matrix(0, 1, -1, 0, -0.000005, -0.000041)"/>
    </clipPath>
    <clipPath id="clip-4">
      <path clip-rule="evenodd" d="M 1542.267 402.22 L 1542.267 430.22 C 1542.267 449.55 1557.937 465.22 1577.267 465.22 L 1605.267 465.22 C 1624.597 465.22 1640.267 449.55 1640.267 430.22 L 1640.267 402.22 C 1640.267 382.89 1624.597 367.22 1605.267 367.22 L 1577.267 367.22 C 1557.937 367.22 1542.267 382.89 1542.267 402.22 M 1577.267 381.22 L 1605.267 381.22 C 1616.865 381.22 1626.267 390.622 1626.267 402.22 L 1626.267 430.22 C 1626.267 441.818 1616.865 451.22 1605.267 451.22 L 1577.267 451.22 C 1565.669 451.22 1556.267 441.818 1556.267 430.22 L 1556.267 402.22 C 1556.267 390.622 1565.669 381.22 1577.267 381.22" style="transform-box: fill-box; transform-origin: 50% 50%;" transform="matrix(0, 1, -1, 0, -0.000063, 0.000103)"/>
    </clipPath>
    <clipPath id="clip-5">
      <path d="M 1570.267 395.22 L 1570.267 409.22 L 1584.267 409.22 L 1584.267 402.22 C 1584.267 398.354 1581.133 395.22 1577.267 395.22" style="transform-box: fill-box; transform-origin: 50% 50%;" transform="matrix(0, -1, 1, 0, -0.000054, -0.000026)"/>
      <rect x="1570.267" y="409.22" width="14" height="14"/>
      <path d="M 1570.267 423.22 L 1570.267 437.22 L 1584.267 437.22 L 1584.267 430.22 C 1584.267 426.354 1581.133 423.22 1577.267 423.22" style="transform-box: fill-box; transform-origin: 50% 50%;" transform="matrix(-1, 0, 0, -1, -0.00008, -0.000046)"/>
      <rect x="1584.267" y="395.22" width="14" height="14"/>
      <rect x="1584.267" y="409.22" width="14" height="14"/>
      <rect x="1584.267" y="423.22" width="14" height="14"/>
      <path d="M 1598.267 395.22 L 1598.267 409.22 L 1612.267 409.22 L 1612.267 402.22 C 1612.267 398.354 1609.133 395.22 1605.267 395.22"/>
      <rect x="1598.267" y="409.22" width="14" height="14"/>
      <path d="M 1598.267 423.22 L 1598.267 437.22 L 1612.267 437.22 L 1612.267 430.22 C 1612.267 426.354 1609.133 423.22 1605.267 423.22" style="transform-box: fill-box; transform-origin: 50% 50%;" transform="matrix(0, 1, -1, 0, 0.000046, -0.000093)"/>
    </clipPath>
    <clipPath id="clip-6">
      <path clip-rule="evenodd" d="M 1178.267 766.22 L 1178.267 794.22 C 1178.267 813.55 1193.937 829.22 1213.267 829.22 L 1241.267 829.22 C 1260.597 829.22 1276.267 813.55 1276.267 794.22 L 1276.267 766.22 C 1276.267 746.89 1260.597 731.22 1241.267 731.22 L 1213.267 731.22 C 1193.937 731.22 1178.267 746.89 1178.267 766.22 M 1213.267 745.22 L 1241.267 745.22 C 1252.865 745.22 1262.267 754.622 1262.267 766.22 L 1262.267 794.22 C 1262.267 805.818 1252.865 815.22 1241.267 815.22 L 1213.267 815.22 C 1201.669 815.22 1192.267 805.818 1192.267 794.22 L 1192.267 766.22 C 1192.267 754.622 1201.669 745.22 1213.267 745.22" style="transform-box: fill-box; transform-origin: 50% 50%;" transform="matrix(0, -1, 1, 0, -0.000041, -0.000033)"/>
    </clipPath>
    <clipPath id="clip-7">
      <path d="M 1206.267 759.22 L 1206.267 773.22 L 1220.267 773.22 L 1220.267 766.22 C 1220.267 762.354 1217.133 759.22 1213.267 759.22" style="transform-box: fill-box; transform-origin: 50% 50%;" transform="matrix(0, -1, 1, 0, 0.000009, 0.000005)"/>
      <rect x="1206.267" y="773.22" width="14" height="14"/>
      <path d="M 1206.267 787.22 L 1206.267 801.22 L 1220.267 801.22 L 1220.267 794.22 C 1220.267 790.354 1217.133 787.22 1213.267 787.22" style="transform-box: fill-box; transform-origin: 50% 50%;" transform="matrix(-1, 0, 0, -1, 0.000013, -0.000079)"/>
      <rect x="1220.267" y="759.22" width="14" height="14"/>
      <rect x="1220.267" y="773.22" width="14" height="14"/>
      <rect x="1220.267" y="787.22" width="14" height="14"/>
      <path d="M 1234.267 759.22 L 1234.267 773.22 L 1248.267 773.22 L 1248.267 766.22 C 1248.267 762.354 1245.133 759.22 1241.267 759.22"/>
      <rect x="1234.267" y="773.22" width="14" height="14"/>
      <path d="M 1234.267 787.22 L 1234.267 801.22 L 1248.267 801.22 L 1248.267 794.22 C 1248.267 790.354 1245.133 787.22 1241.267 787.22" style="transform-box: fill-box; transform-origin: 50% 50%;" transform="matrix(0, 1, -1, 0, -0.000021, -0.000058)"/>
    </clipPath>
  </defs>
  <g transform="matrix(1, 0, 0, 1, -1165.568115, -346.189606)">
    <rect x="1178.267" y="367.22" height="462" width="462" clip-path="url(#clip-1)" style="fill: rgb(59, 0, 255);"/>
    <rect x="1178.267" y="367.22" height="98" width="98" clip-path="url(#clip-2)" style="fill: rgb(59, 0, 255);"/>
    <rect x="1206.267" y="395.22" height="42" width="42" clip-path="url(#clip-3)" style="fill: rgb(59, 0, 255);"/>
    <rect x="1542.267" y="367.22" height="98" width="98" clip-path="url(#clip-4)" style="fill: rgb(59, 0, 255);"/>
    <rect x="1570.267" y="395.22" height="42" width="42" clip-path="url(#clip-5)" style="fill: rgb(59, 0, 255);"/>
    <rect x="1178.267" y="731.22" height="98" width="98" clip-path="url(#clip-6)" style="fill: rgb(59, 0, 255);"/>
    <rect x="1206.267" y="759.22" height="42" width="42" clip-path="url(#clip-7)" style="fill: rgb(59, 0, 255);"/>
  </g>
</svg>